<svg width="16" height="16" viewBox="0 0 16 16" fill="none" xmlns="http://www.w3.org/2000/svg">
<path d="M8 14C11.3137 14 14 11.3137 14 8C14 4.68629 11.3137 2 8 2C4.68629 2 2 4.68629 2 8C2 11.3137 4.68629 14 8 14Z" fill="#DFDFE6"/>
<path fill-rule="evenodd" clip-rule="evenodd" d="M6.60029 5.76396C6.40503 5.5687 6.08844 5.5687 5.89318 5.76396C5.69792 5.95922 5.69792 6.27581 5.89318 6.47107L7.38431 7.9622L5.8933 9.45321C5.69804 9.64848 5.69804 9.96506 5.8933 10.1603C6.08856 10.3556 6.40515 10.3556 6.60041 10.1603L8.09142 8.66931L9.58243 10.1603C9.7777 10.3556 10.0943 10.3556 10.2895 10.1603C10.4848 9.96506 10.4848 9.64848 10.2895 9.45321L8.79853 7.9622L10.2897 6.47107C10.4849 6.27581 10.4849 5.95922 10.2897 5.76396C10.0944 5.5687 9.77782 5.5687 9.58255 5.76396L8.09142 7.25509L6.60029 5.76396Z" fill="white"/>
</svg>
