<svg width="24" height="24" viewBox="0 0 24 24" fill="none" xmlns="http://www.w3.org/2000/svg">
<path d="M16.5 13.26V15.96C16.5 19.56 15.06 21 11.46 21H8.04C4.44 21 3 19.56 3 15.96V12.54C3 8.94 4.44 7.5 8.04 7.5H10.74" stroke="#434657" stroke-width="1.5" stroke-linecap="round" stroke-linejoin="round"/>
<path d="M16.5 13.26H13.62C11.46 13.26 10.74 12.54 10.74 10.38V7.5L16.5 13.26Z" stroke="#434657" stroke-width="1.5" stroke-linecap="round" stroke-linejoin="round"/>
<path d="M11.6399 3H15.2399" stroke="#434657" stroke-width="1.5" stroke-linecap="round" stroke-linejoin="round"/>
<path d="M7.5 5.7C7.5 4.206 8.706 3 10.2 3H12.558" stroke="#434657" stroke-width="1.5" stroke-linecap="round" stroke-linejoin="round"/>
<path d="M20.9999 8.39999V13.971C20.9999 15.366 19.8659 16.5 18.4709 16.5" stroke="#434657" stroke-width="1.5" stroke-linecap="round" stroke-linejoin="round"/>
<path d="M21.0001 8.4H18.3001C16.2751 8.4 15.6001 7.725 15.6001 5.7V3L21.0001 8.4Z" stroke="#434657" stroke-width="1.5" stroke-linecap="round" stroke-linejoin="round"/>
</svg>
