<svg width="16" height="16" viewBox="0 0 16 16" fill="none" xmlns="http://www.w3.org/2000/svg">
<path d="M14.5 5.9997C14.5023 5.23263 14.2519 4.48616 13.7874 3.87571C13.3229 3.26526 12.6703 2.82484 11.9303 2.62256C11.1904 2.42028 10.4045 2.4674 9.69403 2.75664C8.98358 3.04588 8.38821 3.56113 7.99999 4.2227C7.74905 3.79732 7.41073 3.43001 7.00737 3.14502C6.604 2.86003 6.14478 2.66384 5.66001 2.56941C5.17524 2.47498 4.67595 2.48445 4.19511 2.59721C3.71427 2.70996 3.26282 2.92343 2.87056 3.22352C2.4783 3.52361 2.15416 3.90349 1.91954 4.33808C1.68491 4.77268 1.54515 5.2521 1.50946 5.74469C1.47378 6.23728 1.54299 6.73184 1.71253 7.19571C1.88207 7.65958 2.14808 8.08221 2.49299 8.4357L7.99999 14.0647L13.338 8.5877C13.7027 8.2622 13.9946 7.86349 14.1948 7.41756C14.3951 6.97163 14.499 6.48851 14.5 5.9997Z" stroke="#7C7C8A" stroke-linecap="round" stroke-linejoin="round"/>
</svg>
