<svg width="24" height="24" viewBox="0 0 24 24" fill="none" xmlns="http://www.w3.org/2000/svg">
<path d="M18.5 4.11001L13.51 2.24001C12.68 1.93001 11.32 1.93001 10.49 2.24001L5.50003 4.11001C4.35003 4.54001 3.41003 5.90001 3.41003 7.12001V14.55C3.41003 15.73 4.19003 17.28 5.14003 17.99L9.44003 21.2C10.85 22.26 13.17 22.26 14.58 21.2L18.88 17.99C19.83 17.28 20.61 15.73 20.61 14.55V7.12001C20.59 5.90001 19.65 4.54001 18.5 4.11001V4.11001ZM11.93 7.03001C13.11 7.03001 14.07 7.99001 14.07 9.17001C14.07 10.33 13.16 11.26 12.01 11.3H11.91C10.71 11.26 9.81003 10.33 9.81003 9.17001C9.80003 7.99001 10.76 7.03001 11.93 7.03001V7.03001ZM14.19 16.36C13.58 16.76 12.79 16.97 12 16.97C11.21 16.97 10.41 16.77 9.81003 16.36C9.24003 15.98 8.93003 15.46 8.92003 14.89C8.92003 14.33 9.24003 13.79 9.81003 13.41C11.02 12.61 12.99 12.61 14.2 13.41C14.77 13.79 15.09 14.31 15.09 14.88C15.08 15.44 14.76 15.98 14.19 16.36Z" fill="white"/>
</svg>
