<svg width="18" height="18" viewBox="0 0 18 18" fill="none" xmlns="http://www.w3.org/2000/svg">
<path d="M7.95834 1.04168C8.54167 0.550011 9.48334 0.550011 10.05 1.04168L11.3667 2.16668C11.6167 2.37501 12.0917 2.55001 12.425 2.55001H13.8417C14.725 2.55001 15.45 3.27501 15.45 4.15834V5.57501C15.45 5.90834 15.625 6.37501 15.8333 6.62501L16.9583 7.94168C17.45 8.52501 17.45 9.46668 16.9583 10.0333L15.8333 11.35C15.625 11.6 15.45 12.0667 15.45 12.4V13.8167C15.45 14.7 14.725 15.425 13.8417 15.425H12.425C12.0917 15.425 11.625 15.6 11.375 15.8083L10.0583 16.9333C9.475 17.425 8.53334 17.425 7.96667 16.9333L6.65 15.8083C6.4 15.6 5.925 15.425 5.6 15.425H4.14167C3.25834 15.425 2.53334 14.7 2.53334 13.8167V12.3917C2.53334 12.0667 2.36667 11.5917 2.15834 11.35L1.03334 10.025C0.550004 9.45001 0.550004 8.51668 1.03334 7.94168L2.15834 6.61668C2.36667 6.36668 2.53334 5.90001 2.53334 5.57501V4.16668C2.53334 3.28334 3.25834 2.55834 4.14167 2.55834H5.58334C5.91667 2.55834 6.38334 2.38334 6.63334 2.17501L7.95834 1.04168Z" stroke="#0E3EDA" stroke-width="1.25" stroke-linecap="round" stroke-linejoin="round"/>
<path d="M9 5.77501V9.80001" stroke="#0E3EDA" stroke-width="1.25" stroke-linecap="round" stroke-linejoin="round"/>
<path d="M8.99582 12.3333H9.00332" stroke="#0E3EDA" stroke-width="1.66667" stroke-linecap="round" stroke-linejoin="round"/>
</svg>
