<svg width="24" height="24" viewBox="0 0 24 24" fill="none" xmlns="http://www.w3.org/2000/svg">
<path d="M16.3799 17L16.3899 17.03C16.4428 17.227 16.4563 17.4325 16.4295 17.6347C16.4028 17.8369 16.3365 18.0318 16.2343 18.2083C16.1321 18.3848 15.9961 18.5394 15.834 18.6633C15.672 18.7871 15.4871 18.8777 15.2899 18.93L7.77993 20.95C7.3808 21.0567 6.95564 21.0009 6.59762 20.7947C6.2396 20.5885 5.97792 20.2488 5.86993 19.85L3.04993 9.32999C2.94457 8.93091 3.00102 8.50637 3.20701 8.1487C3.413 7.79102 3.75187 7.52914 4.14993 7.41999L10.1099 5.82999" stroke="#434657" stroke-width="1.5" stroke-linecap="round" stroke-linejoin="round"/>
<path d="M20.1411 3H10.9701C10.4957 3 10.1111 3.38459 10.1111 3.859V16.141C10.1111 16.6154 10.4957 17 10.9701 17H20.1411C20.6155 17 21.0001 16.6154 21.0001 16.141V3.859C21.0001 3.38459 20.6155 3 20.1411 3Z" stroke="#434657" stroke-width="1.5" stroke-linecap="round" stroke-linejoin="round"/>
<path d="M16.23 7.92L17.485 9.517C17.5995 9.66594 17.6617 9.84858 17.6617 10.0365C17.6617 10.2244 17.5995 10.4071 17.485 10.556L16.229 12.153C16.1628 12.2408 16.0771 12.312 15.9787 12.3611C15.8803 12.4101 15.7719 12.4357 15.662 12.4357C15.552 12.4357 15.4436 12.4101 15.3452 12.3611C15.2468 12.312 15.1611 12.2408 15.095 12.153L13.839 10.556C13.7241 10.407 13.6619 10.2241 13.6619 10.036C13.6619 9.84787 13.7241 9.66503 13.839 9.516L15.095 7.92C15.1611 7.8322 15.2468 7.76097 15.3452 7.71191C15.4436 7.66286 15.552 7.63733 15.662 7.63733C15.7719 7.63733 15.8803 7.66286 15.9787 7.71191C16.0771 7.76097 16.1628 7.8322 16.229 7.92H16.23Z" stroke="#434657" stroke-width="1.5" stroke-linecap="round" stroke-linejoin="round"/>
</svg>
