<svg width="125" height="37" viewBox="0 0 125 37" fill="none" xmlns="http://www.w3.org/2000/svg">
<path d="M123.396 32.0263C123.396 33.9315 121.821 35.4747 119.872 35.4747H4.54954C2.6019 35.4747 1.021 33.9315 1.021 32.0263V4.52661C1.021 2.62235 2.6019 1.07373 4.54954 1.07373H119.871C121.821 1.07373 123.395 2.62235 123.395 4.52661L123.396 32.0263Z" fill="black"/>
<path d="M119.5 1.11602C121.622 1.11602 123.349 2.79963 123.349 4.86866V31.6812C123.349 33.7502 121.622 35.4338 119.5 35.4338H4.91683C2.79475 35.4338 1.06797 33.7502 1.06797 31.6812V4.86866C1.06797 2.79963 2.79475 1.11602 4.91683 1.11602H119.5ZM119.5 0.399906H4.91683C2.39714 0.399906 0.333496 2.41196 0.333496 4.86866V31.6812C0.333496 34.1378 2.39714 36.1499 4.91683 36.1499H119.5C122.02 36.1499 124.083 34.1378 124.083 31.6812V4.86866C124.083 2.41196 122.02 0.399906 119.5 0.399906Z" fill="#A6A6A6"/>
<path d="M27.951 18.0811C27.9244 15.2005 30.3701 13.7991 30.4819 13.7339C29.0968 11.7649 26.95 11.4959 26.1956 11.4745C24.3925 11.2895 22.6435 12.5264 21.725 12.5264C20.7882 12.5264 19.3737 11.4923 17.8493 11.5227C15.8877 11.5522 14.0525 12.6596 13.046 14.3792C10.9688 17.8853 12.518 23.0378 14.5081 25.8719C15.5036 27.2599 16.6668 28.8096 18.1894 28.7551C19.679 28.6952 20.2354 27.8292 22.033 27.8292C23.8141 27.8292 24.3366 28.7551 25.8894 28.7203C27.4881 28.6952 28.4946 27.326 29.4552 25.9255C30.6057 24.3346 31.0677 22.7679 31.086 22.6875C31.0484 22.6749 27.9812 21.5336 27.951 18.0811Z" fill="white"/>
<path d="M25.0177 9.61011C25.8188 8.63324 26.367 7.30423 26.2148 5.95557C25.0552 6.00562 23.6051 6.7376 22.77 7.69302C22.0312 8.53493 21.3712 9.91488 21.5417 11.2126C22.8442 11.3073 24.1817 10.5718 25.0177 9.61011Z" fill="white"/>
<path d="M45.2958 9.34695C45.2958 10.3989 44.9722 11.1908 44.326 11.7225C43.7274 12.2132 42.8767 12.459 41.7749 12.459C41.2285 12.459 40.761 12.4358 40.3696 12.3893V6.64157C40.8802 6.56113 41.4302 6.52002 42.0242 6.52002C43.0738 6.52002 43.8649 6.74256 44.3984 7.18765C44.996 7.69083 45.2958 8.4103 45.2958 9.34695ZM44.2829 9.37287C44.2829 8.69094 44.0977 8.16809 43.7274 7.80344C43.357 7.43969 42.8162 7.25736 42.104 7.25736C41.8015 7.25736 41.5439 7.27703 41.3303 7.31814V11.6877C41.4485 11.7056 41.6649 11.7136 41.9793 11.7136C42.7145 11.7136 43.2819 11.5143 43.6815 11.1157C44.0812 10.7171 44.2829 10.1361 44.2829 9.37287Z" fill="white"/>
<path d="M50.6668 10.2654C50.6668 10.9134 50.4771 11.4443 50.0976 11.8608C49.6997 12.2889 49.1727 12.5025 48.5145 12.5025C47.8802 12.5025 47.3751 12.2978 46.9983 11.8867C46.6225 11.4765 46.4346 10.959 46.4346 10.3351C46.4346 9.6827 46.628 9.14734 47.0167 8.73175C47.4053 8.31615 47.9278 8.10791 48.586 8.10791C49.2203 8.10791 49.73 8.31258 50.1159 8.72281C50.4826 9.12142 50.6668 9.63622 50.6668 10.2654ZM49.6704 10.2958C49.6704 9.90703 49.5842 9.57366 49.4128 9.2957C49.2112 8.95965 48.9242 8.79163 48.5512 8.79163C48.1652 8.79163 47.8719 8.95965 47.6702 9.2957C47.4979 9.57366 47.4127 9.91239 47.4127 10.3128C47.4127 10.7016 47.4988 11.0349 47.6702 11.3129C47.8783 11.6489 48.168 11.817 48.542 11.817C48.9087 11.817 49.1965 11.6463 49.4037 11.304C49.5815 11.0206 49.6704 10.6846 49.6704 10.2958Z" fill="white"/>
<path d="M57.8683 8.19287L56.5162 12.406H55.6362L55.0761 10.5765C54.934 10.1198 54.8185 9.66577 54.7287 9.21532H54.7113C54.6278 9.67828 54.5123 10.1314 54.3638 10.5765L53.7689 12.406H52.8788L51.6074 8.19287H52.5947L53.0833 10.1958C53.2015 10.6695 53.2987 11.1208 53.3766 11.548H53.394C53.4655 11.1959 53.5838 10.7472 53.7506 10.2047L54.3638 8.19377H55.1467L55.7343 10.1618C55.8763 10.6417 55.9918 11.1038 56.0808 11.5489H56.1073C56.1724 11.1154 56.2705 10.6534 56.4007 10.1618L56.925 8.19377H57.8683V8.19287Z" fill="white"/>
<path d="M62.8482 12.4076H61.8875V9.99445C61.8875 9.25085 61.5979 8.87905 61.0167 8.87905C60.7316 8.87905 60.5015 8.98094 60.3228 9.18561C60.1459 9.39028 60.056 9.63159 60.056 9.90776V12.4067H59.0954V9.39832C59.0954 9.02831 59.0835 8.62701 59.0605 8.19265H59.9048L59.9497 8.85135H59.9763C60.0881 8.64668 60.255 8.47776 60.474 8.3428C60.7344 8.1855 61.0259 8.10596 61.3449 8.10596C61.7482 8.10596 62.0837 8.23287 62.3505 8.48759C62.6823 8.79951 62.8482 9.26515 62.8482 9.88363V12.4076Z" fill="white"/>
<path d="M65.4973 12.4066H64.5376V6.26025H65.4973V12.4066Z" fill="white"/>
<path d="M71.1532 10.2654C71.1532 10.9134 70.9634 11.4443 70.5839 11.8608C70.1861 12.2889 69.6581 12.5025 69.0008 12.5025C68.3656 12.5025 67.8605 12.2978 67.4846 11.8867C67.1088 11.4765 66.9209 10.959 66.9209 10.3351C66.9209 9.6827 67.1143 9.14734 67.503 8.73175C67.8917 8.31615 68.4142 8.10791 69.0714 8.10791C69.7067 8.10791 70.2154 8.31258 70.6022 8.72281C70.9689 9.12142 71.1532 9.63622 71.1532 10.2654ZM70.1558 10.2958C70.1558 9.90703 70.0697 9.57366 69.8982 9.2957C69.6975 8.95965 69.4097 8.79163 69.0375 8.79163C68.6507 8.79163 68.3573 8.95965 68.1566 9.2957C67.9842 9.57366 67.899 9.91239 67.899 10.3128C67.899 10.7016 67.9852 11.0349 68.1566 11.3129C68.3647 11.6489 68.6543 11.817 69.0283 11.817C69.395 11.817 69.6819 11.6463 69.8891 11.304C70.0678 11.0206 70.1558 10.6846 70.1558 10.2958Z" fill="white"/>
<path d="M75.8024 12.4068H74.9398L74.8683 11.9215H74.8417C74.5465 12.3085 74.1258 12.5025 73.5795 12.5025C73.1715 12.5025 72.8416 12.3747 72.5931 12.1208C72.3676 11.8903 72.2549 11.6034 72.2549 11.2628C72.2549 10.748 72.4749 10.3557 72.9176 10.084C73.3595 9.81229 73.981 9.67912 74.7812 9.68538V9.60673C74.7812 9.05171 74.4824 8.77465 73.8838 8.77465C73.4575 8.77465 73.0817 8.87922 72.7572 9.08657L72.562 8.47167C72.9635 8.22946 73.4594 8.10791 74.0442 8.10791C75.1735 8.10791 75.74 8.68885 75.74 9.85072V11.4023C75.74 11.8232 75.7611 12.1584 75.8024 12.4068ZM74.805 10.959V10.3092C73.7454 10.2913 73.2156 10.5747 73.2156 11.1583C73.2156 11.3781 73.276 11.5426 73.3998 11.6525C73.5235 11.7625 73.6812 11.817 73.8691 11.817C74.08 11.817 74.277 11.7517 74.4567 11.6221C74.6373 11.4916 74.7482 11.3263 74.7895 11.1234C74.7995 11.0778 74.805 11.0224 74.805 10.959Z" fill="white"/>
<path d="M81.2607 12.4066H80.4082L80.3633 11.73H80.3367C80.0645 12.2448 79.6007 12.5022 78.9489 12.5022C78.4282 12.5022 77.9947 12.3029 77.6509 11.9043C77.3072 11.5057 77.1357 10.9882 77.1357 10.3527C77.1357 9.6708 77.3218 9.11847 77.6958 8.69662C78.0579 8.30337 78.5016 8.10674 79.0296 8.10674C79.6098 8.10674 80.0159 8.29711 80.2469 8.67874H80.2652V6.26025H81.2268V11.2715C81.2268 11.6817 81.2378 12.0598 81.2607 12.4066ZM80.2652 10.6298V9.92731C80.2652 9.80576 80.2561 9.70745 80.2386 9.63237C80.1846 9.40715 80.0682 9.21767 79.8912 9.06484C79.7125 8.91201 79.4971 8.83515 79.2486 8.83515C78.8902 8.83515 78.6097 8.97368 78.4035 9.25163C78.1991 9.52959 78.0955 9.88441 78.0955 10.3179C78.0955 10.7344 78.1936 11.0722 78.3907 11.3323C78.5987 11.6093 78.8792 11.7479 79.2303 11.7479C79.5457 11.7479 79.7977 11.6326 79.9893 11.4011C80.1745 11.1875 80.2652 10.9301 80.2652 10.6298Z" fill="white"/>
<path d="M89.4774 10.2654C89.4774 10.9134 89.2876 11.4443 88.9081 11.8608C88.5103 12.2889 87.9841 12.5025 87.325 12.5025C86.6916 12.5025 86.1865 12.2978 85.8089 11.8867C85.433 11.4765 85.2451 10.959 85.2451 10.3351C85.2451 9.6827 85.4385 9.14734 85.8272 8.73175C86.2159 8.31615 86.7384 8.10791 87.3974 8.10791C88.0309 8.10791 88.5414 8.31258 88.9264 8.72281C89.2931 9.12142 89.4774 9.63622 89.4774 10.2654ZM88.4819 10.2958C88.4819 9.90703 88.3957 9.57366 88.2243 9.2957C88.0217 8.95965 87.7357 8.79163 87.3617 8.79163C86.9767 8.79163 86.6834 8.95965 86.4808 9.2957C86.3084 9.57366 86.2232 9.91239 86.2232 10.3128C86.2232 10.7016 86.3094 11.0349 86.4808 11.3129C86.6889 11.6489 86.9785 11.817 87.3525 11.817C87.7192 11.817 88.0079 11.6463 88.2151 11.304C88.392 11.0206 88.4819 10.6846 88.4819 10.2958Z" fill="white"/>
<path d="M94.6432 12.4076H93.6834V9.99445C93.6834 9.25085 93.3938 8.87905 92.8117 8.87905C92.5266 8.87905 92.2965 8.98094 92.1187 9.18561C91.9409 9.39028 91.8519 9.63159 91.8519 9.90776V12.4067H90.8904V9.39832C90.8904 9.02831 90.8794 8.62701 90.8564 8.19265H91.6998L91.7447 8.85135H91.7713C91.884 8.64668 92.0509 8.47776 92.269 8.3428C92.5303 8.1855 92.8209 8.10596 93.1408 8.10596C93.5432 8.10596 93.8787 8.23287 94.1454 8.48759C94.4782 8.79951 94.6432 9.26515 94.6432 9.88363V12.4076Z" fill="white"/>
<path d="M101.108 8.8949H100.05V10.9416C100.05 11.4617 100.238 11.7218 100.61 11.7218C100.782 11.7218 100.925 11.7075 101.038 11.678L101.063 12.3886C100.873 12.4583 100.624 12.4931 100.317 12.4931C99.9372 12.4931 99.6421 12.3805 99.4285 12.1553C99.214 11.9301 99.1077 11.5511 99.1077 11.0193V8.8949H98.4761V8.19331H99.1077V7.42111L100.049 7.14404V8.19241H101.107V8.8949H101.108Z" fill="white"/>
<path d="M106.194 12.4066H105.232V10.0113C105.232 9.2561 104.943 8.87805 104.362 8.87805C103.917 8.87805 103.612 9.09702 103.446 9.53495C103.417 9.62701 103.401 9.73962 103.401 9.8719V12.4057H102.441V6.26025H103.401V8.7994H103.419C103.722 8.33733 104.155 8.10674 104.717 8.10674C105.115 8.10674 105.444 8.23365 105.705 8.48837C106.031 8.80565 106.194 9.27755 106.194 9.90139V12.4066Z" fill="white"/>
<path d="M111.439 10.1012C111.439 10.2692 111.427 10.4104 111.404 10.5257H108.523C108.535 10.9422 108.673 11.2595 108.94 11.4794C109.183 11.676 109.498 11.7743 109.883 11.7743C110.309 11.7743 110.698 11.7082 111.048 11.575L111.198 12.2256C110.789 12.399 110.306 12.4857 109.748 12.4857C109.079 12.4857 108.552 12.2936 108.171 11.9093C107.787 11.5249 107.598 11.0093 107.598 10.3622C107.598 9.72672 107.775 9.19762 108.131 8.77577C108.503 8.32532 109.007 8.1001 109.642 8.1001C110.263 8.1001 110.735 8.32532 111.054 8.77577C111.312 9.13327 111.439 9.57568 111.439 10.1012ZM110.523 9.859C110.53 9.58104 110.467 9.34152 110.337 9.13953C110.17 8.87945 109.916 8.74896 109.572 8.74896C109.259 8.74896 109.003 8.87587 108.808 9.13059C108.648 9.33347 108.554 9.57568 108.523 9.859H110.523Z" fill="white"/>
<path d="M49.5077 28.5556H47.426L46.2857 25.062H42.322L41.2357 28.5556H39.209L43.136 16.6616H45.5615L49.5077 28.5556ZM45.9419 23.5962L44.9107 20.4904C44.8016 20.1732 44.5971 19.426 44.2956 18.2498H44.2589C44.1388 18.7557 43.9454 19.5029 43.6796 20.4904L42.6666 23.5962H45.9419Z" fill="white"/>
<path d="M59.6067 24.164C59.6067 25.6226 59.2024 26.7755 58.3939 27.6219C57.6697 28.3753 56.7705 28.7516 55.6971 28.7516C54.5384 28.7516 53.7061 28.3458 53.1992 27.5343H53.1625V32.0522H51.2082V22.8046C51.2082 21.8876 51.1834 20.9465 51.1357 19.9812H52.8545L52.9636 21.3406H53.0002C53.652 20.3164 54.6411 19.8052 55.9684 19.8052C57.0061 19.8052 57.8723 20.2047 58.5653 21.0046C59.2602 21.8054 59.6067 22.8582 59.6067 24.164ZM57.6157 24.2337C57.6157 23.3989 57.4232 22.7108 57.0363 22.1691C56.6137 21.6043 56.0463 21.3219 55.335 21.3219C54.8528 21.3219 54.4147 21.4792 54.0232 21.7893C53.6309 22.1021 53.3742 22.5106 53.2542 23.0164C53.1937 23.2524 53.1634 23.4454 53.1634 23.5974V25.0274C53.1634 25.6512 53.3596 26.1776 53.7519 26.6075C54.1442 27.0374 54.6539 27.2519 55.2809 27.2519C56.017 27.2519 56.5899 26.9748 56.9997 26.4225C57.4103 25.8693 57.6157 25.14 57.6157 24.2337Z" fill="white"/>
<path d="M69.7239 24.164C69.7239 25.6226 69.3197 26.7755 68.5102 27.6219C67.787 28.3753 66.8877 28.7516 65.8143 28.7516C64.6557 28.7516 63.8233 28.3458 63.3173 27.5343H63.2807V32.0522H61.3263V22.8046C61.3263 21.8876 61.3016 20.9465 61.2539 19.9812H62.9727L63.0817 21.3406H63.1184C63.7692 20.3164 64.7583 19.8052 66.0866 19.8052C67.1233 19.8052 67.9896 20.2047 68.6844 21.0046C69.3765 21.8054 69.7239 22.8582 69.7239 24.164ZM67.7329 24.2337C67.7329 23.3989 67.5395 22.7108 67.1527 22.1691C66.7301 21.6043 66.1645 21.3219 65.4522 21.3219C64.9692 21.3219 64.5319 21.4792 64.1396 21.7893C63.7472 22.1021 63.4915 22.5106 63.3714 23.0164C63.3118 23.2524 63.2807 23.4454 63.2807 23.5974V25.0274C63.2807 25.6512 63.4768 26.1776 63.8673 26.6075C64.2597 27.0365 64.7693 27.2519 65.3982 27.2519C66.1342 27.2519 66.7072 26.9748 67.1169 26.4225C67.5276 25.8693 67.7329 25.14 67.7329 24.2337Z" fill="white"/>
<path d="M81.0358 25.2206C81.0358 26.2324 80.6755 27.0555 79.9523 27.691C79.1575 28.3854 78.0511 28.7322 76.6294 28.7322C75.3167 28.7322 74.2644 28.4855 73.4678 27.9913L73.9206 26.4031C74.7786 26.9089 75.72 27.1627 76.7458 27.1627C77.4819 27.1627 78.0548 27.0001 78.4664 26.6765C78.8761 26.353 79.0805 25.9186 79.0805 25.377C79.0805 24.8944 78.9119 24.4878 78.5736 24.158C78.2372 23.8282 77.6753 23.5216 76.8906 23.2383C74.7548 22.4616 73.6878 21.3239 73.6878 19.8277C73.6878 18.85 74.0618 18.0483 74.8107 17.4244C75.5569 16.7997 76.5524 16.4878 77.7972 16.4878C78.9073 16.4878 79.8294 16.6764 80.5655 17.0526L80.0769 18.606C79.3894 18.2413 78.6121 18.059 77.7422 18.059C77.0547 18.059 76.5175 18.2244 76.1325 18.5533C75.8071 18.8473 75.6439 19.2057 75.6439 19.6302C75.6439 20.1003 75.83 20.4891 76.204 20.7948C76.5294 21.0772 77.1207 21.3829 77.9787 21.7127C79.0283 22.1247 79.7992 22.6064 80.2951 23.1587C80.7892 23.7093 81.0358 24.3984 81.0358 25.2206Z" fill="white"/>
<path d="M87.4971 21.4102H85.343V25.5742C85.343 26.6333 85.7225 27.1624 86.4833 27.1624C86.8326 27.1624 87.1222 27.1329 87.3514 27.0739L87.4055 28.5209C87.0205 28.6612 86.5136 28.7318 85.8856 28.7318C85.1138 28.7318 84.5106 28.5021 84.0752 28.0436C83.6416 27.5842 83.4235 26.8138 83.4235 25.7315V21.4084H82.1401V19.9784H83.4235V18.4081L85.343 17.8433V19.9784H87.4971V21.4102Z" fill="white"/>
<path d="M97.2163 24.198C97.2163 25.5162 96.8295 26.5986 96.0577 27.445C95.2482 28.3164 94.1739 28.7507 92.8347 28.7507C91.544 28.7507 90.5164 28.3333 89.7501 27.4986C88.9837 26.6638 88.6006 25.6101 88.6006 24.3401C88.6006 23.0111 88.9948 21.9225 89.7858 21.0761C90.5751 20.2288 91.6402 19.8052 92.9795 19.8052C94.2702 19.8052 95.3087 20.2226 96.0925 21.0582C96.8423 21.8688 97.2163 22.9154 97.2163 24.198ZM95.1887 24.2596C95.1887 23.4687 95.0154 22.7903 94.6643 22.2246C94.2546 21.5399 93.6688 21.1985 92.9098 21.1985C92.1242 21.1985 91.5275 21.5408 91.1178 22.2246C90.7667 22.7912 90.5934 23.4803 90.5934 24.2954C90.5934 25.0863 90.7667 25.7647 91.1178 26.3295C91.5403 27.0142 92.1307 27.3556 92.8924 27.3556C93.6386 27.3556 94.2243 27.007 94.6469 26.3117C95.0072 25.7352 95.1887 25.0497 95.1887 24.2596Z" fill="white"/>
<path d="M103.569 21.657C103.376 21.6222 103.17 21.6043 102.953 21.6043C102.266 21.6043 101.734 21.8572 101.36 22.364C101.035 22.8109 100.872 23.3757 100.872 24.0576V28.5577H98.9183L98.9366 22.6822C98.9366 21.6937 98.9119 20.7937 98.8633 19.9821H100.566L100.637 21.6231H100.691C100.897 21.0591 101.223 20.6051 101.668 20.2646C102.104 19.958 102.574 19.8052 103.081 19.8052C103.261 19.8052 103.425 19.8177 103.569 19.84V21.657Z" fill="white"/>
<path d="M112.31 23.8622C112.31 24.2036 112.287 24.4914 112.238 24.7265H106.375C106.398 25.5737 106.681 26.2217 107.226 26.6686C107.72 27.0681 108.359 27.2683 109.143 27.2683C110.011 27.2683 110.803 27.1333 111.516 26.8625L111.822 28.1853C110.99 28.5392 110.007 28.7153 108.873 28.7153C107.509 28.7153 106.438 28.3238 105.659 27.5418C104.882 26.7597 104.492 25.7096 104.492 24.3922C104.492 23.0989 104.854 22.022 105.579 21.1631C106.338 20.2461 107.364 19.7876 108.655 19.7876C109.923 19.7876 110.882 20.2461 111.534 21.1631C112.05 21.8915 112.31 22.7924 112.31 23.8622ZM110.446 23.368C110.459 22.8031 110.331 22.3151 110.066 21.9031C109.728 21.3731 109.208 21.1086 108.509 21.1086C107.87 21.1086 107.35 21.3669 106.953 21.8852C106.628 22.2972 106.435 22.7915 106.375 23.3671H110.446V23.368Z" fill="white"/>
</svg>
