<svg width="40" height="40" viewBox="0 0 40 40" fill="none" xmlns="http://www.w3.org/2000/svg">
<path d="M0 8C0 3.58172 3.58172 0 8 0H32C36.4183 0 40 3.58172 40 8V32C40 36.4183 36.4183 40 32 40H8C3.58172 40 0 36.4183 0 32V8Z" fill="#FFEAE3"/>
<path d="M22 22H30V30H22V22ZM14.5 10L19 18H10L14.5 10ZM26 18C27.0609 18 28.0783 17.5786 28.8284 16.8284C29.5786 16.0783 30 15.0609 30 14C30 12.9391 29.5786 11.9217 28.8284 11.1716C28.0783 10.4214 27.0609 10 26 10C24.9391 10 23.9217 10.4214 23.1716 11.1716C22.4214 11.9217 22 12.9391 22 14C22 15.0609 22.4214 16.0783 23.1716 16.8284C23.9217 17.5786 24.9391 18 26 18Z" stroke="#F67600" stroke-width="1.5" stroke-linejoin="round"/>
<path d="M18 22L10 30M10 22L18 30L10 22Z" stroke="#F67600" stroke-width="1.5" stroke-linecap="round" stroke-linejoin="round"/>
</svg>
