<svg width="24" height="24" viewBox="0 0 24 24" fill="none" xmlns="http://www.w3.org/2000/svg">
<path fill-rule="evenodd" clip-rule="evenodd" d="M6.81317 5.75251C6.52027 5.45961 6.0454 5.45961 5.75251 5.75251C5.45961 6.0454 5.45961 6.52027 5.75251 6.81317L10.879 11.9397L5.75253 17.0662C5.45964 17.3591 5.45964 17.834 5.75253 18.1269C6.04542 18.4198 6.5203 18.4198 6.81319 18.1269L11.9397 13.0004L17.0662 18.1269C17.3591 18.4198 17.834 18.4198 18.1269 18.1269C18.4198 17.834 18.4198 17.3591 18.1269 17.0662L13.0004 11.9397L18.1269 6.81317C18.4198 6.52027 18.4198 6.0454 18.1269 5.75251C17.834 5.45961 17.3591 5.45961 17.0662 5.75251L11.9397 10.879L6.81317 5.75251Z" fill="#434657"/>
</svg>
