<svg width="25" height="24" viewBox="0 0 25 24" fill="none" xmlns="http://www.w3.org/2000/svg">
<path fill-rule="evenodd" clip-rule="evenodd" d="M5.5 4.25C3.98122 4.25 2.75 5.48122 2.75 7V9.09091C2.75 9.50512 3.08579 9.84091 3.5 9.84091C4.4767 9.84091 5.20455 10.5688 5.20455 11.5455C5.20455 12.5222 4.4767 13.25 3.5 13.25C3.08579 13.25 2.75 13.5858 2.75 14V16.0909C2.75 17.6097 3.98122 18.8409 5.5 18.8409H19.5C21.0188 18.8409 22.25 17.6097 22.25 16.0909V14C22.25 13.5858 21.9142 13.25 21.5 13.25C20.5233 13.25 19.7955 12.5222 19.7955 11.5455C19.7955 10.5688 20.5233 9.84091 21.5 9.84091C21.9142 9.84091 22.25 9.50512 22.25 9.09091V7C22.25 5.48122 21.0188 4.25 19.5 4.25H5.5ZM4.25 7C4.25 6.30964 4.80964 5.75 5.5 5.75H19.5C20.1904 5.75 20.75 6.30964 20.75 7V8.42463C19.3216 8.75142 18.2955 9.99969 18.2955 11.5455C18.2955 13.0912 19.3216 14.3395 20.75 14.6663V16.0909C20.75 16.7813 20.1904 17.3409 19.5 17.3409H5.5C4.80964 17.3409 4.25 16.7813 4.25 16.0909V14.6663C5.67837 14.3395 6.70455 13.0912 6.70455 11.5455C6.70455 9.99969 5.67837 8.75142 4.25 8.42463V7ZM15.4849 9.62115C15.7778 9.32826 15.7778 8.85338 15.4849 8.56049C15.192 8.2676 14.7171 8.2676 14.4242 8.56049L9.51511 13.4696C9.22222 13.7625 9.22222 14.2373 9.51511 14.5302C9.808 14.8231 10.2829 14.8231 10.5758 14.5302L15.4849 9.62115ZM11.6818 8.68186C11.6818 9.35967 11.1324 9.90913 10.4546 9.90913C9.77676 9.90913 9.22729 9.35967 9.22729 8.68186C9.22729 8.00406 9.77676 7.45459 10.4546 7.45459C11.1324 7.45459 11.6818 8.00406 11.6818 8.68186ZM14.5454 15.6362C15.2233 15.6362 15.7727 15.0867 15.7727 14.4089C15.7727 13.7311 15.2233 13.1816 14.5454 13.1816C13.8676 13.1816 13.3182 13.7311 13.3182 14.4089C13.3182 15.0867 13.8676 15.6362 14.5454 15.6362Z" fill="#F67600"/>
</svg>
