<svg width="25" height="25" viewBox="0 0 25 25" fill="none" xmlns="http://www.w3.org/2000/svg">
<g clip-path="url(#clip0_2091_42797)">
<path d="M20.1004 2.39994H5.2275C4.8843 2.37488 4.53973 2.42413 4.21729 2.54434C3.89486 2.66454 3.60214 2.85287 3.35909 3.09648C3.11605 3.34008 2.92841 3.63324 2.80896 3.95596C2.68951 4.27868 2.64106 4.62336 2.66692 4.9665V19.8394C2.64307 20.1805 2.69258 20.5227 2.81214 20.8431C2.9317 21.1634 3.11852 21.4544 3.36002 21.6965C3.60152 21.9386 3.89209 22.1261 4.21217 22.2464C4.53224 22.3667 4.87438 22.417 5.21553 22.394H20.1123C20.4535 22.417 20.7956 22.3667 21.1157 22.2464C21.4358 22.1261 21.7263 21.9386 21.9678 21.6965C22.2093 21.4544 22.3962 21.1634 22.5157 20.8431C22.6353 20.5227 22.6848 20.1805 22.6609 19.8394V4.97248C22.6877 4.62886 22.6399 4.28351 22.5209 3.96006C22.4019 3.63661 22.2143 3.34269 21.9712 3.09841C21.7281 2.85414 21.435 2.66526 21.1121 2.54471C20.7892 2.42416 20.4441 2.37478 20.1004 2.39994ZM9.48715 3.42896C9.52361 3.39907 9.56568 3.37679 9.61089 3.36344C9.65611 3.35008 9.70353 3.34591 9.75038 3.35118H20.2499C20.4485 3.3448 20.6462 3.38021 20.8302 3.45513C21.0142 3.53005 21.1804 3.6428 21.318 3.78607C21.4557 3.92935 21.5617 4.09994 21.6291 4.28681C21.6966 4.47367 21.7241 4.67263 21.7097 4.87078V14.5567C21.7097 15.3285 21.7097 16.1002 21.7097 16.872C21.7141 16.9312 21.7005 16.9903 21.6706 17.0416C21.6407 17.0929 21.5959 17.1339 21.5422 17.1591C19.589 18.2965 17.3207 18.7728 15.0749 18.5172C14.166 18.4318 13.2738 18.2183 12.4246 17.883C12.0822 17.7473 11.7158 17.6826 11.3476 17.6928C10.9794 17.7031 10.6171 17.7882 10.2828 17.9429C9.7883 18.1909 9.26619 18.3797 8.72735 18.5052C9.06745 18.0502 9.27456 17.5096 9.32561 16.9438C9.35783 16.6936 9.33314 16.4394 9.25337 16.2001C9.17361 15.9608 9.04083 15.7426 8.86495 15.5618C8.01539 14.7237 7.36349 13.7067 6.95675 12.5848C6.55001 11.4629 6.39868 10.2644 6.51377 9.07658C6.61206 7.98555 6.92541 6.92478 7.43574 5.95546C7.94607 4.98614 8.64328 4.12746 9.48715 3.42896ZM21.7037 20.0727C21.6977 20.2621 21.6537 20.4484 21.5744 20.6205C21.4952 20.7926 21.3822 20.9471 21.2422 21.0748C21.1022 21.2025 20.938 21.3009 20.7594 21.3641C20.5807 21.4273 20.3912 21.454 20.2021 21.4427H5.24545C5.02809 21.4675 4.80793 21.443 4.60138 21.3709C4.39484 21.2988 4.20722 21.181 4.05253 21.0263C3.89784 20.8716 3.78005 20.684 3.70795 20.4774C3.63585 20.2709 3.61129 20.0507 3.63611 19.8334V4.9665C3.61048 4.74923 3.63422 4.52899 3.70555 4.32217C3.77688 4.11535 3.89397 3.9273 4.04809 3.77203C4.20221 3.61676 4.38939 3.49828 4.59567 3.42541C4.80195 3.35254 5.02201 3.32717 5.23946 3.35118H8.11712C8.11712 3.47084 8.03336 3.51272 7.97952 3.57254C7.09941 4.51241 6.43054 5.62967 6.01779 6.84934C5.60505 8.069 5.45798 9.36285 5.58646 10.644C5.77163 12.6706 6.64827 14.5717 8.06926 16.0284C8.20874 16.1634 8.30866 16.334 8.35822 16.5217C8.40777 16.7094 8.40509 16.9071 8.35044 17.0933C8.31513 17.4123 8.19494 17.716 8.00238 17.9727C7.80982 18.2295 7.55195 18.4299 7.25562 18.5531C7.15389 18.5862 7.06813 18.6561 7.01505 18.749C6.96197 18.8418 6.94536 18.9512 6.96845 19.0556C6.97919 19.1609 7.02628 19.2591 7.10163 19.3333C7.17698 19.4076 7.27586 19.4533 7.38125 19.4625C8.18518 19.6184 9.01718 19.5352 9.77431 19.2232L10.8332 18.7685C11.0213 18.6836 11.2252 18.6397 11.4315 18.6397C11.6378 18.6397 11.8417 18.6836 12.0298 18.7685C13.6667 19.4102 15.4284 19.6701 17.1808 19.5283C18.6782 19.4203 20.1388 19.0134 21.4764 18.3317L21.7516 18.2001C21.7097 18.8343 21.7276 19.4565 21.7037 20.0727Z" fill="#DBDBDB"/>
<path d="M9.17617 9.04072C9.28759 9.06841 9.40265 9.0785 9.51718 9.07063H10.8453L10.6898 9.33387L8.97276 12.0739C8.90828 12.1502 8.86862 12.2443 8.85907 12.3437C8.84952 12.4431 8.87054 12.5431 8.91931 12.6302C8.96809 12.7174 9.0423 12.7876 9.13203 12.8314C9.22176 12.8753 9.32274 12.8907 9.42146 12.8756C10.1573 12.8756 10.8932 12.8756 11.6291 12.8756C11.982 12.8756 12.1914 12.6901 12.1914 12.397C12.1914 12.1038 11.982 11.9244 11.5932 11.9244H10.2291C10.2442 11.8309 10.2857 11.7437 10.3488 11.6731L11.641 9.57915C11.8026 9.32788 11.9641 9.07661 12.1137 8.81936C12.1601 8.75177 12.1873 8.67289 12.1926 8.59107C12.1978 8.50926 12.1808 8.42754 12.1434 8.35459C12.106 8.28163 12.0496 8.22014 11.9801 8.17663C11.9106 8.13312 11.8307 8.10921 11.7487 8.10742C10.9291 8.10742 10.1035 8.10742 9.27788 8.10742C9.17044 8.10738 9.06721 8.14922 8.99013 8.22407C8.91305 8.29891 8.86819 8.40086 8.86507 8.50826C8.84194 8.61977 8.86093 8.73589 8.91838 8.83422C8.97584 8.93255 9.06767 9.00611 9.17617 9.04072Z" fill="#DBDBDB"/>
<path d="M14.4769 12.7439C14.5547 12.708 14.6265 12.6422 14.7222 12.7439C14.7882 12.8164 14.8769 12.8642 14.9737 12.8794C15.0705 12.8946 15.1696 12.8764 15.2547 12.8277C15.3416 12.7836 15.4132 12.7144 15.4601 12.629C15.5071 12.5436 15.5272 12.4461 15.5179 12.3491C15.5179 11.9722 15.5179 11.5953 15.5179 11.2184C15.5179 10.8175 15.5179 10.4107 15.5179 10.0218C15.527 9.92647 15.5035 9.83084 15.4514 9.75048C15.3993 9.67011 15.3215 9.60972 15.2307 9.57912C15.1541 9.53406 15.0649 9.51496 14.9765 9.52466C14.8881 9.53436 14.8052 9.57235 14.7401 9.63296C14.6325 9.73467 14.5547 9.70476 14.447 9.63296C14.2452 9.54431 14.0272 9.49854 13.8069 9.49854C13.5865 9.49854 13.3685 9.54431 13.1667 9.63296C12.7613 9.80433 12.4406 10.1297 12.2751 10.5376C12.1096 10.9454 12.1129 11.4023 12.2843 11.8077C12.4556 12.2131 12.781 12.5338 13.1889 12.6993C13.5967 12.8648 14.0536 12.8615 14.459 12.6901L14.4769 12.7439ZM13.8428 10.5004C13.9369 10.4972 14.0307 10.5131 14.1185 10.5473C14.2063 10.5815 14.2862 10.6331 14.3534 10.6992C14.4205 10.7652 14.4736 10.8443 14.5092 10.9315C14.5448 11.0187 14.5623 11.1122 14.5607 11.2064C14.5631 11.3003 14.5466 11.3938 14.5121 11.4812C14.4776 11.5686 14.4259 11.6482 14.36 11.7152C14.2941 11.7821 14.2155 11.8352 14.1286 11.8711C14.0418 11.9071 13.9487 11.9252 13.8547 11.9243C13.7604 11.9235 13.6672 11.9042 13.5804 11.8674C13.4936 11.8306 13.4149 11.777 13.3488 11.7098C13.2827 11.6426 13.2305 11.563 13.1951 11.4756C13.1598 11.3882 13.142 11.2947 13.1428 11.2004C13.1428 11.1085 13.1609 11.0175 13.1961 10.9326C13.2312 10.8476 13.2828 10.7705 13.3478 10.7055C13.4128 10.6405 13.49 10.5889 13.5749 10.5537C13.6598 10.5186 13.7508 10.5004 13.8428 10.5004Z" fill="#DBDBDB"/>
<path d="M19.0896 12.8696C19.418 12.8684 19.7387 12.77 20.0113 12.5868C20.2839 12.4036 20.4962 12.1438 20.6213 11.8401C20.7464 11.5364 20.7789 11.2025 20.7145 10.8805C20.6501 10.5584 20.4919 10.2626 20.2596 10.0303C20.0274 9.79811 19.7316 9.63983 19.4095 9.57546C19.0874 9.5111 18.7535 9.54353 18.4499 9.66867C18.1462 9.79381 17.8864 10.0061 17.7032 10.2786C17.52 10.5512 17.4216 10.872 17.4204 11.2004C17.422 11.6426 17.5984 12.0662 17.911 12.3789C18.2237 12.6916 18.6474 12.868 19.0896 12.8696ZM19.0896 10.4765C19.1815 10.4781 19.2722 10.4977 19.3565 10.5343C19.4409 10.571 19.5172 10.6238 19.581 10.6899C19.6449 10.7561 19.6952 10.8341 19.7289 10.9196C19.7626 11.0052 19.7792 11.0965 19.7776 11.1884C19.7776 11.3772 19.7026 11.5583 19.5691 11.6918C19.4355 11.8254 19.2545 11.9004 19.0656 11.9004C18.8768 11.9004 18.6957 11.8254 18.5622 11.6918C18.4287 11.5583 18.3537 11.3772 18.3537 11.1884C18.3559 11.0925 18.3775 10.9981 18.4174 10.9108C18.4573 10.8236 18.5145 10.7454 18.5856 10.681C18.6567 10.6166 18.7402 10.5674 18.831 10.5364C18.9217 10.5053 19.0179 10.4931 19.1135 10.5004L19.0896 10.4765Z" fill="#DBDBDB"/>
<path d="M16.4688 12.8755C16.768 12.8755 16.9415 12.678 16.9415 12.2772C16.9415 11.5952 16.9415 10.9131 16.9415 10.2311C16.9415 9.5491 16.9415 8.8611 16.9415 8.17908C16.9415 7.81413 16.762 7.58081 16.4748 7.58081C16.1877 7.58081 15.9902 7.79619 15.9902 8.14916V12.2533C15.9902 12.6661 16.1697 12.8755 16.4688 12.8755Z" fill="#DBDBDB"/>
</g>
<defs>
<clipPath id="clip0_2091_42797">
<rect width="19.994" height="20" fill="white" transform="translate(2.66699 2.3999)"/>
</clipPath>
</defs>
</svg>
