<svg width="25" height="25" viewBox="0 0 25 25" fill="none" xmlns="http://www.w3.org/2000/svg">
<path d="M19.632 17.0099L18.459 15.8369C18.1777 15.5557 17.7963 15.3978 17.3985 15.3978C17.0008 15.3978 16.6193 15.5557 16.338 15.8369L15.416 16.7589C15.3163 16.861 15.1882 16.9306 15.0484 16.9588C14.9085 16.987 14.7634 16.9724 14.632 16.9169C13.296 16.3319 11.976 15.4449 10.799 14.2679C9.69035 13.1695 8.79459 11.8754 8.15702 10.4509C8.09925 10.3152 8.08381 10.1651 8.11272 10.0204C8.14162 9.87571 8.21352 9.74311 8.31902 9.63994L9.14502 8.81394C9.81602 8.14294 9.81602 7.19394 9.23002 6.60794L8.05702 5.43494C7.68196 5.06 7.17335 4.84937 6.64302 4.84937C6.11269 4.84937 5.60407 5.06 5.22902 5.43494L4.57702 6.08594C3.83602 6.82694 3.52702 7.89594 3.72702 8.95594C4.22102 11.5689 5.73902 14.4299 8.18802 16.8789C10.637 19.3279 13.498 20.8459 16.111 21.3399C17.171 21.5399 18.24 21.2309 18.981 20.4899L19.632 19.8389C19.8178 19.6532 19.9652 19.4327 20.0658 19.19C20.1663 18.9473 20.2181 18.6872 20.2181 18.4244C20.2181 18.1617 20.1663 17.9016 20.0658 17.6589C19.9652 17.4162 19.8178 17.1957 19.632 17.0099V17.0099Z" stroke="#DBDBDB" stroke-width="1.5" stroke-linecap="round" stroke-linejoin="round"/>
<path d="M13.667 7.39091C14.1958 7.38222 14.7211 7.48 15.2114 7.67842C15.7017 7.87684 16.147 8.17186 16.521 8.54591" stroke="#DBDBDB" stroke-width="1.5" stroke-linecap="round" stroke-linejoin="round"/>
<path d="M19.349 5.71802C18.6036 4.97072 17.718 4.37807 16.7429 3.97409C15.7678 3.57012 14.7225 3.36279 13.667 3.36402" stroke="#DBDBDB" stroke-width="1.5" stroke-linecap="round" stroke-linejoin="round"/>
<path d="M17.676 11.3999C17.6847 10.871 17.5869 10.3458 17.3885 9.85554C17.1901 9.36524 16.8951 8.91986 16.521 8.5459" stroke="#DBDBDB" stroke-width="1.5" stroke-linecap="round" stroke-linejoin="round"/>
<path d="M19.3491 5.71802C20.0964 6.46338 20.6891 7.34905 21.093 8.32415C21.497 9.29924 21.7043 10.3446 21.7031 11.4" stroke="#DBDBDB" stroke-width="1.5" stroke-linecap="round" stroke-linejoin="round"/>
</svg>
