<svg width="25" height="25" viewBox="0 0 25 25" fill="none" xmlns="http://www.w3.org/2000/svg">
<path d="M15.2252 22.3999H11.0392V15.6557H10.1555C9.61592 15.6557 9.17871 15.2185 9.17871 14.679V12.9115C9.17871 12.372 9.61592 11.9348 10.1555 11.9348H11.0392V9.60922C11.0392 7.68364 12.602 6.12085 14.5275 6.12085H17.0392C17.5787 6.12085 18.0159 6.55806 18.0159 7.09759V9.33015C18.0159 9.86969 17.5787 10.3069 17.0392 10.3069H15.2252V11.9348H16.9741C17.1183 11.9341 17.2609 11.9654 17.3915 12.0267C17.5221 12.0879 17.6375 12.1774 17.7292 12.2887C17.8209 12.4 17.8867 12.5304 17.9219 12.6703C17.957 12.8102 17.9605 12.9562 17.9322 13.0976L17.5787 14.865C17.4857 15.3208 17.0857 15.6464 16.6206 15.6464H15.2252V22.3999ZM12.4345 21.0046H13.8299V14.2604H16.2857L16.4717 13.3302H13.8392V9.88829C13.8392 9.34876 14.2764 8.91155 14.8159 8.91155H16.6299V7.5162H14.5275C13.3741 7.5162 12.4345 8.45573 12.4345 9.60922V13.3302H10.5741V14.2604H12.4345V21.0046Z" fill="#DBDBDB"/>
<path d="M15.4577 22.3999H9.87629C4.82513 22.3999 2.66699 20.2418 2.66699 15.1906V9.6092C2.66699 4.55804 4.82513 2.3999 9.87629 2.3999H15.4577C20.5089 2.3999 22.667 4.55804 22.667 9.6092V15.1906C22.667 20.2418 20.5089 22.3999 15.4577 22.3999ZM9.87629 3.79525C5.58792 3.79525 4.06234 5.32083 4.06234 9.6092V15.1906C4.06234 19.479 5.58792 21.0046 9.87629 21.0046H15.4577C19.7461 21.0046 21.2716 19.479 21.2716 15.1906V9.6092C21.2716 5.32083 19.7461 3.79525 15.4577 3.79525H9.87629Z" fill="#DBDBDB"/>
</svg>
