<svg width="125" height="37" viewBox="0 0 125 37" fill="none" xmlns="http://www.w3.org/2000/svg">
<path d="M119.5 36.3999H4.91683C2.39714 36.3999 0.333496 34.3878 0.333496 31.9312V5.11866C0.333496 2.66196 2.39714 0.649907 4.91683 0.649907H119.5C122.02 0.649907 124.083 2.66196 124.083 5.11866V31.9312C124.083 34.3878 122.02 36.3999 119.5 36.3999Z" fill="black"/>
<path d="M119.5 1.36602C121.622 1.36602 123.349 3.04963 123.349 5.11866V31.9312C123.349 34.0002 121.622 35.6838 119.5 35.6838H4.91683C2.79475 35.6838 1.06797 34.0002 1.06797 31.9312V5.11866C1.06797 3.04963 2.79475 1.36602 4.91683 1.36602H119.5ZM119.5 0.649907H4.91683C2.39714 0.649907 0.333496 2.66196 0.333496 5.11866V31.9312C0.333496 34.3878 2.39714 36.3999 4.91683 36.3999H119.5C122.02 36.3999 124.083 34.3878 124.083 31.9312V5.11866C124.083 2.66196 122.02 0.649907 119.5 0.649907Z" fill="#A6A6A6"/>
<path d="M9.89874 7.38581C9.62947 7.66064 9.47363 8.08852 9.47363 8.64265V28.4079C9.47363 28.9621 9.62947 29.3899 9.89874 29.6648L9.96519 29.7251L21.325 18.6538V18.3923L9.96519 7.32102L9.89874 7.38581Z" fill="url(#paint0_linear_1055_27135)"/>
<path d="M25.1071 22.3472L21.3247 18.6549V18.3934L25.1117 14.7011L25.1965 14.7492L29.6813 17.2372C30.9612 17.9432 30.9612 19.1051 29.6813 19.8156L25.1965 22.2991L25.1071 22.3472Z" fill="url(#paint1_linear_1055_27135)"/>
<path d="M25.1965 22.2991L21.3247 18.5241L9.89844 29.6658C10.3235 30.1015 11.0168 30.154 11.8051 29.7183L25.1965 22.2991Z" fill="url(#paint2_linear_1055_27135)"/>
<path d="M25.1965 14.749L11.8051 7.32971C11.0168 6.89848 10.3235 6.95098 9.89844 7.38668L21.3247 18.5239L25.1965 14.749Z" fill="url(#paint3_linear_1055_27135)"/>
<path d="M43.7998 9.80442C43.7998 10.5507 43.5707 11.1484 43.1192 11.5942C42.6001 12.1226 41.9241 12.3885 41.0957 12.3885C40.3039 12.3885 39.6278 12.1181 39.0733 11.5852C38.5175 11.0445 38.2402 10.3809 38.2402 9.58657C38.2402 8.79225 38.5175 8.12864 39.0733 7.59239C39.6278 7.05503 40.3039 6.78467 41.0957 6.78467C41.4898 6.78467 41.8657 6.86399 42.2243 7.01146C42.5818 7.16004 42.8728 7.36114 43.0837 7.60915L42.6047 8.08061C42.2369 7.65719 41.7362 7.44828 41.0957 7.44828C40.5182 7.44828 40.0174 7.6449 39.5923 8.0415C39.1718 8.43922 38.961 8.95424 38.961 9.58657C38.961 10.2189 39.1718 10.7384 39.5923 11.1361C40.0174 11.5282 40.5182 11.7293 41.0957 11.7293C41.7087 11.7293 42.2243 11.5282 42.6311 11.1316C42.8992 10.8691 43.0516 10.5071 43.0917 10.0446H41.0957V9.39888H43.7586C43.7907 9.53853 43.7998 9.67371 43.7998 9.80442Z" fill="white" stroke="white" stroke-width="0.0480741" stroke-miterlimit="10"/>
<path d="M48.0244 7.56574H45.5231V9.26386H47.7781V9.9096H45.5231V11.6077H48.0244V12.2657H44.8149V6.90771H48.0244V7.56574Z" fill="white" stroke="white" stroke-width="0.0480741" stroke-miterlimit="10"/>
<path d="M51.0061 12.2657H50.2979V7.56574H48.7637V6.90771H52.5415V7.56574H51.0061V12.2657Z" fill="white" stroke="white" stroke-width="0.0480741" stroke-miterlimit="10"/>
<path d="M55.2754 12.2657V6.90771H55.9824V12.2657H55.2754Z" fill="white" stroke="white" stroke-width="0.0480741" stroke-miterlimit="10"/>
<path d="M59.1159 12.2657H58.4135V7.56574H56.8735V6.90771H60.6559V7.56574H59.1159V12.2657Z" fill="white" stroke="white" stroke-width="0.0480741" stroke-miterlimit="10"/>
<path d="M67.8083 11.5763C67.2663 12.1181 66.5948 12.3885 65.7939 12.3885C64.9884 12.3885 64.3169 12.1181 63.7749 11.5763C63.2341 11.0356 62.9648 10.372 62.9648 9.58657C62.9648 8.80119 63.2341 8.13758 63.7749 7.59686C64.3169 7.05503 64.9884 6.78467 65.7939 6.78467C66.5903 6.78467 67.2617 7.05503 67.8037 7.60133C68.3491 8.14652 68.6184 8.80566 68.6184 9.58657C68.6184 10.372 68.3491 11.0356 67.8083 11.5763ZM64.2986 11.1272C64.7065 11.5282 65.2027 11.7293 65.7939 11.7293C66.3806 11.7293 66.8813 11.5282 67.2846 11.1272C67.6914 10.7261 67.8977 10.2111 67.8977 9.58657C67.8977 8.96206 67.6914 8.44704 67.2846 8.04597C66.8813 7.6449 66.3806 7.44381 65.7939 7.44381C65.2027 7.44381 64.7065 7.6449 64.2986 8.04597C63.8918 8.44704 63.6856 8.96206 63.6856 9.58657C63.6856 10.2111 63.8918 10.7261 64.2986 11.1272Z" fill="white" stroke="white" stroke-width="0.0480741" stroke-miterlimit="10"/>
<path d="M69.6123 12.2657V6.90771H70.4717L73.1438 11.0748H73.1747L73.1438 10.0448V6.90771H73.8507V12.2657H73.1128L70.3147 7.89307H70.2838L70.3147 8.92759V12.2657H69.6123Z" fill="white" stroke="white" stroke-width="0.0480741" stroke-miterlimit="10"/>
<path d="M62.7907 20.0915C60.6377 20.0915 58.8788 21.689 58.8788 23.8933C58.8788 26.0796 60.6377 27.6939 62.7907 27.6939C64.9483 27.6939 66.7071 26.0796 66.7071 23.8933C66.7071 21.689 64.9483 20.0915 62.7907 20.0915ZM62.7907 26.1969C61.6093 26.1969 60.593 25.2462 60.593 23.8933C60.593 22.5225 61.6093 21.5885 62.7907 21.5885C63.972 21.5885 64.993 22.5225 64.993 23.8933C64.993 25.2462 63.972 26.1969 62.7907 26.1969ZM54.2554 20.0915C52.0978 20.0915 50.3435 21.689 50.3435 23.8933C50.3435 26.0796 52.0978 27.6939 54.2554 27.6939C56.4118 27.6939 58.1673 26.0796 58.1673 23.8933C58.1673 21.689 56.4118 20.0915 54.2554 20.0915ZM54.2554 26.1969C53.0729 26.1969 52.0531 25.2462 52.0531 23.8933C52.0531 22.5225 53.0729 21.5885 54.2554 21.5885C55.4367 21.5885 56.4531 22.5225 56.4531 23.8933C56.4531 25.2462 55.4367 26.1969 54.2554 26.1969ZM44.0987 21.2567V22.8721H48.0553C47.9395 23.7748 47.6302 24.4384 47.1558 24.901C46.5783 25.4596 45.6788 26.0796 44.0987 26.0796C41.6638 26.0796 39.7572 24.1636 39.7572 21.7896C39.7572 19.4156 41.6638 17.4996 44.0987 17.4996C45.4153 17.4996 46.3732 18.0012 47.0802 18.6514L48.2478 17.513C47.2589 16.5924 45.9435 15.8853 44.0987 15.8853C40.7598 15.8853 37.9536 18.5341 37.9536 21.7896C37.9536 25.0451 40.7598 27.6939 44.0987 27.6939C45.9034 27.6939 47.2589 27.1175 48.3245 26.036C49.4165 24.9713 49.7568 23.4743 49.7568 22.2655C49.7568 21.8901 49.7248 21.5449 49.6675 21.2567H44.0987ZM85.6306 22.5091C85.3086 21.6589 84.3152 20.0915 82.2916 20.0915C80.2864 20.0915 78.6169 21.6321 78.6169 23.8933C78.6169 26.0226 80.2692 27.6939 82.4841 27.6939C84.2751 27.6939 85.3086 26.6292 85.7337 26.0092L84.4045 25.1456C83.9611 25.778 83.3572 26.1969 82.4841 26.1969C81.6167 26.1969 80.9945 25.8092 80.5958 25.0451L85.8105 22.9414L85.6306 22.5091ZM80.3139 23.7748C80.2692 22.3091 81.4815 21.5583 82.3501 21.5583C83.0307 21.5583 83.6082 21.8901 83.8007 22.3649L80.3139 23.7748ZM76.0755 27.4627H77.7896V16.2908H76.0755V27.4627ZM73.2682 20.9383H73.2109C72.8259 20.4937 72.0914 20.0915 71.161 20.0915C69.2085 20.0915 67.4233 21.7628 67.4233 23.9055C67.4233 26.036 69.2085 27.6939 71.161 27.6939C72.0914 27.6939 72.8259 27.2884 73.2109 26.8303H73.2682V27.3755C73.2682 28.829 72.4718 29.6099 71.1874 29.6099C70.1401 29.6099 69.4904 28.8726 69.2223 28.2525L67.7315 28.8592C68.1612 29.8669 69.299 31.1069 71.1874 31.1069C73.1971 31.1069 74.893 29.954 74.893 27.1487V20.3227H73.2682V20.9383ZM71.3077 26.1969C70.1263 26.1969 69.1375 25.2328 69.1375 23.9055C69.1375 22.566 70.1263 21.5885 71.3077 21.5885C72.4718 21.5885 73.3896 22.566 73.3896 23.9055C73.3896 25.2328 72.4718 26.1969 71.3077 26.1969ZM93.656 16.2908H89.5562V27.4627H91.2658V23.2296H93.656C95.5546 23.2296 97.4166 21.8901 97.4166 19.7597C97.4166 17.6303 95.5501 16.2908 93.656 16.2908ZM93.7007 21.6756H91.2658V17.8448H93.7007C94.9771 17.8448 95.7059 18.8782 95.7059 19.7597C95.7059 20.6244 94.9771 21.6756 93.7007 21.6756ZM104.269 20.0702C103.033 20.0702 101.749 20.602 101.221 21.7807L102.738 22.4007C103.064 21.7807 103.665 21.5796 104.3 21.5796C105.187 21.5796 106.086 22.0991 106.1 23.0163V23.1336C105.79 22.9593 105.128 22.7012 104.313 22.7012C102.679 22.7012 101.015 23.5782 101.015 25.2149C101.015 26.7119 102.353 27.6761 103.857 27.6761C105.008 27.6761 105.643 27.17 106.041 26.5812H106.1V27.4448H107.751V23.1593C107.751 21.1785 106.234 20.0702 104.269 20.0702ZM104.062 26.1924C103.503 26.1924 102.724 25.9221 102.724 25.2462C102.724 24.3815 103.696 24.0497 104.537 24.0497C105.29 24.0497 105.643 24.2117 106.1 24.425C105.966 25.4596 105.052 26.1924 104.062 26.1924ZM113.767 20.3149L111.801 25.1579H111.743L109.711 20.3149H107.868L110.92 27.0828L109.179 30.8489H110.965L115.669 20.3149H113.767ZM98.3562 27.4627H100.07V16.2908H98.3562V27.4627Z" fill="white"/>
<defs>
<linearGradient id="paint0_linear_1055_27135" x1="20.3164" y1="28.6138" x2="5.3219" y2="13.2348" gradientUnits="userSpaceOnUse">
<stop stop-color="#00A0FF"/>
<stop offset="0.0066" stop-color="#00A1FF"/>
<stop offset="0.2601" stop-color="#00BEFF"/>
<stop offset="0.5122" stop-color="#00D2FF"/>
<stop offset="0.7604" stop-color="#00DFFF"/>
<stop offset="1" stop-color="#00E3FF"/>
</linearGradient>
<linearGradient id="paint1_linear_1055_27135" x1="31.3479" y1="18.5229" x2="9.16742" y2="18.5229" gradientUnits="userSpaceOnUse">
<stop stop-color="#FFE000"/>
<stop offset="0.4087" stop-color="#FFBD00"/>
<stop offset="0.7754" stop-color="#FFA500"/>
<stop offset="1" stop-color="#FF9C00"/>
</linearGradient>
<linearGradient id="paint2_linear_1055_27135" x1="23.0911" y1="16.472" x2="2.75739" y2="-4.38313" gradientUnits="userSpaceOnUse">
<stop stop-color="#FF3A44"/>
<stop offset="1" stop-color="#C31162"/>
</linearGradient>
<linearGradient id="paint3_linear_1055_27135" x1="7.02221" y1="36.2415" x2="16.1021" y2="26.9288" gradientUnits="userSpaceOnUse">
<stop stop-color="#32A071"/>
<stop offset="0.0685" stop-color="#2DA771"/>
<stop offset="0.4762" stop-color="#15CF74"/>
<stop offset="0.8009" stop-color="#06E775"/>
<stop offset="1" stop-color="#00F076"/>
</linearGradient>
</defs>
</svg>
