<svg width="16" height="16" viewBox="0 0 16 16" fill="none" xmlns="http://www.w3.org/2000/svg">
<path d="M5.3335 7.33344C5.3335 7.15663 5.40374 6.98706 5.52877 6.86203C5.65379 6.73701 5.82336 6.66677 6.00017 6.66677H10.0002C10.177 6.66677 10.3466 6.73701 10.4716 6.86203C10.5966 6.98706 10.6668 7.15663 10.6668 7.33344C10.6668 7.51025 10.5966 7.67982 10.4716 7.80484C10.3466 7.92987 10.177 8.0001 10.0002 8.0001H6.00017C5.82336 8.0001 5.65379 7.92987 5.52877 7.80484C5.40374 7.67982 5.3335 7.51025 5.3335 7.33344ZM6.00017 9.33344C5.82336 9.33344 5.65379 9.40368 5.52877 9.5287C5.40374 9.65372 5.3335 9.82329 5.3335 10.0001C5.3335 10.1769 5.40374 10.3465 5.52877 10.4715C5.65379 10.5965 5.82336 10.6668 6.00017 10.6668H8.66684C8.84365 10.6668 9.01322 10.5965 9.13824 10.4715C9.26327 10.3465 9.3335 10.1769 9.3335 10.0001C9.3335 9.82329 9.26327 9.65372 9.13824 9.5287C9.01322 9.40368 8.84365 9.33344 8.66684 9.33344H6.00017ZM1.3335 8.0001C1.33384 6.5385 1.81449 5.11752 2.70149 3.95583C3.58849 2.79415 4.83268 1.95616 6.24257 1.57082C7.65246 1.18549 9.14992 1.27416 10.5045 1.82321C11.859 2.37225 12.9956 3.35123 13.7393 4.60948C14.483 5.86773 14.7926 7.33552 14.6204 8.78694C14.4482 10.2384 13.8039 11.593 12.7864 12.6423C11.769 13.6917 10.4349 14.3776 8.98951 14.5945C7.54409 14.8114 6.06745 14.5473 4.78684 13.8428L2.19484 14.6321C2.07922 14.6673 1.95621 14.6704 1.83896 14.6412C1.72171 14.6119 1.61463 14.5512 1.52917 14.4658C1.44371 14.3803 1.38309 14.2732 1.35379 14.156C1.32449 14.0387 1.32762 13.9157 1.36284 13.8001L2.15217 11.2041C1.61344 10.2222 1.33182 9.12006 1.3335 8.0001ZM8.00017 2.66677C7.05342 2.66669 6.12372 2.91863 5.30654 3.39671C4.48937 3.87479 3.81419 4.56178 3.35034 5.38712C2.8865 6.21246 2.65071 7.14639 2.6672 8.093C2.68369 9.0396 2.95186 9.96476 3.44417 10.7734C3.49304 10.8538 3.52436 10.9435 3.53608 11.0368C3.5478 11.1301 3.53965 11.2248 3.51217 11.3148L3.0015 12.9934L4.6775 12.4828C4.76772 12.4553 4.86273 12.4473 4.95628 12.4592C5.04982 12.4712 5.13977 12.5028 5.22017 12.5521C5.92308 12.9813 6.71582 13.2418 7.53626 13.3133C8.35671 13.3848 9.18257 13.2653 9.94912 12.9643C10.7157 12.6632 11.4021 12.1887 11.9545 11.5779C12.507 10.9672 12.9105 10.2368 13.1335 9.44396C13.3565 8.65116 13.3928 7.81749 13.2396 7.0083C13.0865 6.19911 12.748 5.43638 12.2508 4.77989C11.7535 4.1234 11.111 3.59098 10.3735 3.22437C9.63606 2.85775 8.82373 2.6669 8.00017 2.66677Z" fill="#434657"/>
</svg>
