<svg width="16" height="16" viewBox="0 0 16 16" fill="none" xmlns="http://www.w3.org/2000/svg">
<path d="M3.71392 5.25806C3.52292 4.00006 4.40992 2.87006 5.76492 2.45606C6.00537 2.38254 6.26481 2.40347 6.49038 2.51458C6.71594 2.62569 6.89065 2.81862 6.97892 3.05406L7.41392 4.21406C7.48394 4.40067 7.49661 4.60395 7.45028 4.79781C7.40395 4.99167 7.30075 5.16727 7.15392 5.30206L5.85992 6.48706C5.79613 6.54559 5.74861 6.61965 5.72197 6.70202C5.69533 6.78439 5.69049 6.87226 5.70792 6.95706L5.71992 7.00906L5.75092 7.13906C5.91184 7.7707 6.15704 8.37782 6.47992 8.94406C6.83163 9.54576 7.2681 10.0937 7.77592 10.5711L7.81592 10.6071C7.88052 10.6644 7.95887 10.704 8.04334 10.7221C8.12782 10.7401 8.21552 10.736 8.29792 10.7101L9.97092 10.1831C10.161 10.1234 10.3647 10.1218 10.5557 10.1787C10.7467 10.2355 10.9164 10.3481 11.0429 10.5021L11.8349 11.4631C12.1649 11.8631 12.1249 12.4511 11.7459 12.8041C10.7089 13.7711 9.28292 13.9691 8.29092 13.1721C7.07494 12.1912 6.04987 10.995 5.26692 9.64306C4.47761 8.2922 3.95038 6.80449 3.71292 5.25806H3.71392ZM6.75692 7.02306L7.82892 6.03906C8.12275 5.76959 8.32935 5.41846 8.42218 5.03073C8.51502 4.64301 8.48985 4.23638 8.34992 3.86306L7.91592 2.70306C7.73826 2.22931 7.38665 1.84112 6.93273 1.6176C6.47882 1.39408 5.95675 1.35204 5.47292 1.50006C3.78992 2.01506 2.43892 3.52406 2.72492 5.40906C2.92492 6.72506 3.38592 8.39906 4.40292 10.1471C5.24763 11.6048 6.35338 12.8946 7.66492 13.9521C9.15292 15.1471 11.1389 14.7391 12.4289 13.5371C12.798 13.1934 13.0221 12.7218 13.0553 12.2185C13.0886 11.7153 12.9286 11.2183 12.6079 10.8291L11.8159 9.86706C11.5626 9.55954 11.2231 9.33471 10.8411 9.22139C10.4591 9.10808 10.052 9.11144 9.67192 9.23106L8.28292 9.66806C7.92429 9.29829 7.61015 8.88783 7.34692 8.44506C7.09264 7.99742 6.89448 7.52016 6.75692 7.02406V7.02306Z" fill="#434657"/>
</svg>
