<svg width="16" height="16" viewBox="0 0 16 16" fill="none" xmlns="http://www.w3.org/2000/svg">
<path d="M9.33333 6.2V8.13333H11.0667C11.2 8.13333 11.2667 8.26667 11.2667 8.4L11 9.66667C11 9.73333 10.8667 9.8 10.8 9.8H9.33333V14.6667H7.33333V9.86667H6.2C6.06667 9.86667 6 9.8 6 9.66667V8.4C6 8.26667 6.06667 8.2 6.2 8.2H7.33333V6C7.33333 4.86667 8.2 4 9.33333 4H11.1333C11.2667 4 11.3333 4.06667 11.3333 4.2V5.8C11.3333 5.93333 11.2667 6 11.1333 6H9.53333C9.4 6 9.33333 6.06667 9.33333 6.2V6.2Z" stroke="#17191C" stroke-miterlimit="10" stroke-linecap="round"/>
<path d="M10.0002 14.6666H6.00016C2.66683 14.6666 1.3335 13.3333 1.3335 9.99992V5.99992C1.3335 2.66659 2.66683 1.33325 6.00016 1.33325H10.0002C13.3335 1.33325 14.6668 2.66659 14.6668 5.99992V9.99992C14.6668 13.3333 13.3335 14.6666 10.0002 14.6666Z" stroke="#17191C" stroke-linecap="round" stroke-linejoin="round"/>
</svg>
