<svg width="24" height="24" viewBox="0 0 24 24" fill="none" xmlns="http://www.w3.org/2000/svg">
<rect width="24" height="24" rx="4" fill="#FEF1E6"/>
<path d="M17.3605 8.54581L13.5205 5.85914C12.4738 5.12581 10.8671 5.16581 9.86048 5.94581L6.52048 8.55248C5.85382 9.07248 5.32715 10.1391 5.32715 10.9791V15.5791C5.32715 17.2791 6.70715 18.6658 8.40715 18.6658H15.5938C17.2938 18.6658 18.6738 17.2858 18.6738 15.5858V11.0658C18.6738 10.1658 18.0938 9.05914 17.3605 8.54581ZM12.5005 15.9991C12.5005 16.2725 12.2738 16.4991 12.0005 16.4991C11.7271 16.4991 11.5005 16.2725 11.5005 15.9991V13.9991C11.5005 13.7258 11.7271 13.4991 12.0005 13.4991C12.2738 13.4991 12.5005 13.7258 12.5005 13.9991V15.9991Z" fill="#F67600"/>
</svg>
