<svg width="25" height="25" viewBox="0 0 25 25" fill="none" xmlns="http://www.w3.org/2000/svg">
<path d="M21.667 8.3999V16.3999C21.667 17.726 21.1402 18.9978 20.2025 19.9354C19.2648 20.8731 17.9931 21.3999 16.667 21.3999H8.66699C7.34091 21.3999 6.06914 20.8731 5.13146 19.9354C4.19378 18.9978 3.66699 17.726 3.66699 16.3999V8.3999C3.66699 7.07382 4.19378 5.80205 5.13146 4.86437C6.06914 3.92669 7.34091 3.3999 8.66699 3.3999H16.667C17.9931 3.3999 19.2648 3.92669 20.2025 4.86437C21.1402 5.80205 21.667 7.07382 21.667 8.3999Z" stroke="#DBDBDB" stroke-width="1.5" stroke-linecap="round" stroke-linejoin="round"/>
<path d="M10.667 12.3999C10.0736 12.3999 9.49363 12.5758 9.00028 12.9055C8.50694 13.2351 8.12242 13.7037 7.89535 14.2519C7.66829 14.8 7.60888 15.4032 7.72464 15.9852C7.84039 16.5671 8.12612 17.1017 8.54567 17.5212C8.96523 17.9408 9.49978 18.2265 10.0817 18.3423C10.6637 18.458 11.2669 18.3986 11.815 18.1715C12.3632 17.9445 12.8318 17.56 13.1614 17.0666C13.491 16.5733 13.667 15.9932 13.667 15.3999V6.3999C14 7.3999 15.267 9.3999 17.667 9.3999" stroke="#DBDBDB" stroke-width="1.5" stroke-linecap="round" stroke-linejoin="round"/>
</svg>
