<svg width="40" height="40" viewBox="0 0 40 40" fill="none" xmlns="http://www.w3.org/2000/svg">
<rect width="40" height="40" rx="4" fill="#F3EFFF"/>
<path fill-rule="evenodd" clip-rule="evenodd" d="M26.7061 15.8938H14.8732C14.3705 15.8938 13.963 15.4863 13.963 14.9836C13.963 14.4809 14.3705 14.0734 14.8732 14.0734H26.7061C26.7061 13.068 25.8911 12.2529 24.8857 12.2529H14.8732C13.3651 12.2529 12.1426 13.4755 12.1426 14.9836V26.8165C12.1426 27.8219 12.9576 28.6369 13.963 28.6369H26.7061C27.7115 28.6369 28.5266 27.8219 28.5266 26.8165V17.7142C28.5266 16.7088 27.7115 15.8938 26.7061 15.8938ZM26.7056 24.9965H20.3341C19.8313 24.9965 19.4238 24.589 19.4238 24.0863V20.4454C19.4238 19.9427 19.8313 19.5351 20.3341 19.5351H26.7056V24.9965ZM22.6095 23.1757H21.6993C21.4479 23.1757 21.2441 22.972 21.2441 22.7206V21.8104C21.2441 21.5591 21.4479 21.3553 21.6993 21.3553H22.6095C22.8608 21.3553 23.0646 21.5591 23.0646 21.8104V22.7206C23.0646 22.972 22.8608 23.1757 22.6095 23.1757Z" fill="#6B3BED"/>
</svg>
