<svg width="40" height="40" viewBox="0 0 40 40" fill="none" xmlns="http://www.w3.org/2000/svg">
<rect width="40" height="40" rx="4" fill="#CBC2F5"/>
<path fill-rule="evenodd" clip-rule="evenodd" d="M24.6886 24.7602H15.0886C14.6468 24.7602 14.2886 25.1184 14.2886 25.5602V33.2978C14.2886 33.5929 14.451 33.864 14.7111 34.0032C14.9712 34.1424 15.2868 34.1271 15.5323 33.9635L19.8886 31.0593L24.2448 33.9635C24.4907 34.1274 24.8064 34.1422 25.0661 34.0032C25.3262 33.864 25.4886 33.5929 25.4886 33.2978V25.5602C25.4886 25.1184 25.1304 24.7602 24.6886 24.7602Z" fill="url(#paint0_linear_1055_24970)"/>
<path d="M19.8888 27.6445C14.1542 27.6445 9.48877 22.9791 9.48877 17.2445C9.48877 11.4805 14.1542 6.7912 19.8888 6.7912C25.6233 6.7912 30.2888 11.4805 30.2888 17.2445C30.2888 22.9791 25.6233 27.6445 19.8888 27.6445Z" fill="#EAE6FF"/>
<path fill-rule="evenodd" clip-rule="evenodd" d="M22.3376 21.8358L19.8885 20.5483L17.4394 21.8359C17.1697 21.9776 16.8433 21.9539 16.5969 21.775C16.3506 21.596 16.2272 21.2927 16.2786 20.9925L16.7464 18.2654L14.765 16.3341C14.547 16.1215 14.4685 15.8036 14.5626 15.514C14.6568 15.2244 14.9071 15.0133 15.2084 14.9695L17.9466 14.5717L19.1711 12.0904C19.3059 11.8174 19.584 11.6445 19.8885 11.6445C20.193 11.6445 20.4711 11.8174 20.6059 12.0904L21.8304 14.5716L24.5686 14.9695C24.8699 15.0133 25.1203 15.2244 25.2144 15.514C25.3084 15.8036 25.23 16.1215 25.012 16.334L23.0306 18.2654L23.4984 20.9925C23.5498 21.2926 23.4264 21.5959 23.1801 21.7749C22.9361 21.9523 22.6095 21.9788 22.3376 21.8358Z" fill="url(#paint1_linear_1055_24970)"/>
<defs>
<linearGradient id="paint0_linear_1055_24970" x1="14.2886" y1="24.7602" x2="14.2886" y2="34.0979" gradientUnits="userSpaceOnUse">
<stop stop-color="#8A78D5"/>
<stop offset="1" stop-color="#5243AA"/>
</linearGradient>
<linearGradient id="paint1_linear_1055_24970" x1="14.5234" y1="11.6445" x2="14.5234" y2="21.9278" gradientUnits="userSpaceOnUse">
<stop stop-color="#8A78D5"/>
<stop offset="1" stop-color="#5243AA"/>
</linearGradient>
</defs>
</svg>
