<svg width="24" height="24" viewBox="0 0 24 24" fill="none" xmlns="http://www.w3.org/2000/svg">
<path fill-rule="evenodd" clip-rule="evenodd" d="M11.9709 2C10.1368 2 8.37774 2.72862 7.0808 4.02556C5.78385 5.32251 5.05523 7.08154 5.05523 8.9157V12.7647L3.87343 13.9456L3.87258 13.9465C3.3146 14.5058 3 15.2633 3 16.0546C3 17.6343 4.28143 18.9143 5.8597 18.9143H8.66976C8.69404 19.2721 8.77642 19.6242 8.91413 19.9564C9.08048 20.3578 9.32429 20.7224 9.63162 21.0295C9.93896 21.3366 10.3038 21.5801 10.7053 21.7462C11.1066 21.9121 11.5367 21.9974 11.971 21.9971H11.9706L11.9709 21.2471L11.9715 21.9971H11.971C12.4054 21.9972 12.8355 21.9118 13.2369 21.7457C13.6383 21.5795 14.0031 21.3359 14.3104 21.0288C14.6177 20.7216 14.8615 20.3569 15.0278 19.9555C15.1653 19.6235 15.2477 19.2718 15.2721 18.9143H18.0822C19.6619 18.9143 20.9419 17.6328 20.9419 16.0546C20.9419 15.2626 20.6257 14.5056 20.0699 13.9471L20.0684 13.9456L18.8866 12.7647V8.9157C18.8866 7.08154 18.158 5.32251 16.8611 4.02556C15.5641 2.72862 13.8051 2 11.9709 2ZM14.5318 17.4143C14.5311 17.4143 14.5304 17.4143 14.5297 17.4143C14.529 17.4143 14.5283 17.4143 14.5276 17.4143H9.41427C9.41357 17.4143 9.41287 17.4143 9.41217 17.4143C9.41147 17.4143 9.41078 17.4143 9.41008 17.4143H5.8597C5.10938 17.4143 4.5 16.8054 4.5 16.0546C4.5 15.6621 4.65596 15.2852 4.93429 15.0061L4.93455 15.0058L6.33537 13.606C6.47614 13.4654 6.55523 13.2745 6.55523 13.0755V8.9157C6.55523 7.47937 7.12582 6.10186 8.14146 5.08622C9.1571 4.07058 10.5346 3.5 11.9709 3.5C13.4073 3.5 14.7848 4.07058 15.8004 5.08622C16.8161 6.10186 17.3866 7.47937 17.3866 8.9157V13.0755C17.3866 13.2745 17.4657 13.4654 17.6065 13.606L19.0067 15.0052L19.0073 15.0058C19.2856 15.2858 19.4419 15.663 19.4419 16.0546C19.4419 16.8049 18.833 17.4143 18.0822 17.4143H14.5318ZM10.1761 18.9143H13.7657C13.7456 19.0744 13.7041 19.2316 13.642 19.3813C13.5511 19.6007 13.4179 19.8 13.25 19.9679C13.082 20.1358 12.8827 20.2689 12.6633 20.3597C12.4438 20.4505 12.2087 20.4972 11.9712 20.4971H11.9703C11.733 20.4973 11.4979 20.4507 11.2785 20.36C11.0591 20.2693 10.8598 20.1362 10.6919 19.9684C10.5239 19.8007 10.3907 19.6014 10.2998 19.3821C10.2377 19.2321 10.1961 19.0747 10.1761 18.9143Z" fill="#434657"/>
</svg>
