<svg width="25" height="25" viewBox="0 0 25 25" fill="none" xmlns="http://www.w3.org/2000/svg">
<path d="M21.5823 5.16112C21.5429 5.16801 21.504 5.17807 21.4659 5.19127C21.4651 5.19155 21.4643 5.19182 21.4635 5.1921L21.4565 5.19463L21.4191 5.20812L21.2725 5.26086L20.7151 5.4618C20.2343 5.63528 19.5463 5.88391 18.7175 6.18446C17.0599 6.78559 14.8396 7.59424 12.5884 8.42454C10.3365 9.25509 8.05648 10.1063 6.27831 10.7928C5.38865 11.1363 4.62896 11.4369 4.06279 11.6722C3.78734 11.7867 3.56264 11.8837 3.39322 11.9614L7.28503 13.2295C8.09373 12.7185 10.4221 11.2491 12.7013 9.82552C13.9631 9.03739 15.2117 8.26215 16.1795 7.6711C16.663 7.37582 17.0792 7.12478 17.3931 6.94055C17.5496 6.84867 17.6845 6.77118 17.7912 6.71236C17.8771 6.66503 17.9976 6.59968 18.0959 6.5638L18.1165 6.55625L18.1376 6.54993C18.266 6.51142 18.5076 6.46784 18.7631 6.58247C18.9063 6.64671 19.0676 6.77036 19.1629 6.97602C19.2575 7.18047 19.2471 7.37993 19.2086 7.52405L19.2053 7.53644L19.2052 7.53641C19.1487 7.73454 19.0203 7.90832 18.9546 7.99542C18.8654 8.11368 18.7519 8.24709 18.6251 8.38816C18.37 8.67193 18.026 9.02497 17.6299 9.41683C16.8357 10.2025 15.8013 11.1745 14.778 12.119C13.7535 13.0647 12.7349 13.9875 11.9702 14.6762C11.4404 15.1533 11.0486 15.5038 10.8514 15.6798L10.5199 19.1464C11.4578 18.2201 12.3374 17.4611 12.7882 17.082L13.2262 16.7136L13.6971 17.0388C15.2392 18.1035 16.9474 19.3141 17.7052 19.9667L17.7217 19.9809L17.7373 19.9961C17.7861 20.0433 17.8439 20.0802 17.9073 20.1045L21.5823 5.16112ZM21.5823 5.16112C21.5811 5.19769 21.5784 5.22707 21.5746 5.27044C21.5704 5.31749 21.5648 5.38101 21.5578 5.48809L21.5577 5.49036C21.5354 5.84965 21.3328 6.90802 21.013 8.38094C20.7002 9.82116 20.2925 11.5838 19.8873 13.2962C19.4823 15.008 19.0805 16.6664 18.7799 17.897C18.6296 18.5123 18.5046 19.0205 18.4172 19.3748L18.3159 19.785L18.2893 19.8926L18.2825 19.92L18.2808 19.9269L18.2803 19.9287L18.2802 19.9291C18.2802 19.9292 18.2802 19.9292 19.0078 20.1099L18.2802 19.9292L18.2796 19.9316C18.2661 19.9869 18.2361 20.0367 18.1935 20.0744C18.1584 20.1056 18.116 20.1274 18.0705 20.1379C18.0147 20.1359 17.9595 20.1246 17.9073 20.1046L21.5823 5.16112Z" stroke="#DBDBDB" stroke-width="1.5"/>
</svg>
