<svg width="16" height="16" viewBox="0 0 16 16" fill="none" xmlns="http://www.w3.org/2000/svg">
<path d="M1.6001 3.6001C1.6001 3.06966 1.81081 2.56096 2.18588 2.18588C2.56096 1.81081 3.06966 1.6001 3.6001 1.6001H12.4001C12.9305 1.6001 13.4392 1.81081 13.8143 2.18588C14.1894 2.56096 14.4001 3.06966 14.4001 3.6001V12.4001C14.4001 12.9305 14.1894 13.4392 13.8143 13.8143C13.4392 14.1894 12.9305 14.4001 12.4001 14.4001H3.6001C3.06966 14.4001 2.56096 14.1894 2.18588 13.8143C1.81081 13.4392 1.6001 12.9305 1.6001 12.4001V3.6001ZM3.6001 2.4001C3.28184 2.4001 2.97661 2.52653 2.75157 2.75157C2.52653 2.97661 2.4001 3.28184 2.4001 3.6001V12.4001C2.4001 12.7184 2.52653 13.0236 2.75157 13.2486C2.97661 13.4737 3.28184 13.6001 3.6001 13.6001H12.4001C12.7184 13.6001 13.0236 13.4737 13.2486 13.2486C13.4737 13.0236 13.6001 12.7184 13.6001 12.4001V3.6001C13.6001 3.28184 13.4737 2.97661 13.2486 2.75157C13.0236 2.52653 12.7184 2.4001 12.4001 2.4001H3.6001ZM8.8001 9.6001C8.8001 9.38792 8.88438 9.18444 9.03441 9.03441C9.18444 8.88438 9.38792 8.8001 9.6001 8.8001H11.2001C11.4123 8.8001 11.6158 8.88438 11.7658 9.03441C11.9158 9.18444 12.0001 9.38792 12.0001 9.6001V11.2001C12.0001 11.4123 11.9158 11.6158 11.7658 11.7658C11.6158 11.9158 11.4123 12.0001 11.2001 12.0001H9.6001C9.38792 12.0001 9.18444 11.9158 9.03441 11.7658C8.88438 11.6158 8.8001 11.4123 8.8001 11.2001V9.6001ZM8.8001 4.8001C8.8001 4.58792 8.88438 4.38444 9.03441 4.23441C9.18444 4.08438 9.38792 4.0001 9.6001 4.0001H11.2001C11.4123 4.0001 11.6158 4.08438 11.7658 4.23441C11.9158 4.38444 12.0001 4.58792 12.0001 4.8001V6.4001C12.0001 6.61227 11.9158 6.81575 11.7658 6.96578C11.6158 7.11581 11.4123 7.2001 11.2001 7.2001H9.6001C9.38792 7.2001 9.18444 7.11581 9.03441 6.96578C8.88438 6.81575 8.8001 6.61227 8.8001 6.4001V4.8001ZM4.0001 9.6001C4.0001 9.38792 4.08438 9.18444 4.23441 9.03441C4.38444 8.88438 4.58792 8.8001 4.8001 8.8001H6.4001C6.61227 8.8001 6.81575 8.88438 6.96578 9.03441C7.11581 9.18444 7.2001 9.38792 7.2001 9.6001V11.2001C7.2001 11.4123 7.11581 11.6158 6.96578 11.7658C6.81575 11.9158 6.61227 12.0001 6.4001 12.0001H4.8001C4.58792 12.0001 4.38444 11.9158 4.23441 11.7658C4.08438 11.6158 4.0001 11.4123 4.0001 11.2001V9.6001ZM4.0001 4.8001C4.0001 4.58792 4.08438 4.38444 4.23441 4.23441C4.38444 4.08438 4.58792 4.0001 4.8001 4.0001H6.4001C6.61227 4.0001 6.81575 4.08438 6.96578 4.23441C7.11581 4.38444 7.2001 4.58792 7.2001 4.8001V6.4001C7.2001 6.61227 7.11581 6.81575 6.96578 6.96578C6.81575 7.11581 6.61227 7.2001 6.4001 7.2001H4.8001C4.58792 7.2001 4.38444 7.11581 4.23441 6.96578C4.08438 6.81575 4.0001 6.61227 4.0001 6.4001V4.8001Z" fill="#434657"/>
</svg>
