<svg width="40" height="40" viewBox="0 0 40 40" fill="none" xmlns="http://www.w3.org/2000/svg">
<rect width="40" height="40" rx="4" fill="#FFD9D0"/>
<path fill-rule="evenodd" clip-rule="evenodd" d="M29.0401 14.5083H25.0725C25.3237 14.1766 25.4784 13.7683 25.4784 13.3211C25.4784 12.2301 24.5907 11.3423 23.4997 11.3423C21.7733 11.3423 20.8088 12.7472 20.3337 13.7694C19.8585 12.7472 18.894 11.3423 17.1677 11.3423C16.0767 11.3423 15.1889 12.2301 15.1889 13.3211C15.1889 13.7683 15.3437 14.1766 15.5948 14.5083H11.6272C11.4085 14.5083 11.2314 14.6855 11.2314 14.9041V17.6743C11.2314 17.8929 11.4085 18.0701 11.6272 18.0701H29.0401C29.2589 18.0701 29.4359 17.8929 29.4359 17.6743V14.9041C29.4359 14.6855 29.2589 14.5083 29.0401 14.5083ZM23.4997 12.1338C24.1543 12.1338 24.6869 12.6664 24.6869 13.3211C24.6869 13.9758 24.1543 14.5083 23.4997 14.5083H20.8817C21.197 13.6888 21.994 12.1338 23.4997 12.1338ZM15.9804 13.3211C15.9804 12.6664 16.513 12.1338 17.1677 12.1338C18.6734 12.1338 19.4703 13.6888 19.7856 14.5083H17.1677C16.513 14.5083 15.9804 13.9758 15.9804 13.3211ZM18.9831 18.8614H13.2107C12.9919 18.8614 12.8149 19.0386 12.8149 19.2572V25.0295L18.9831 18.8614ZM20.1702 29.5466H15.3532L26.0384 18.8614H27.4575C27.6763 18.8614 27.8533 19.0386 27.8533 19.2572V21.8636L20.1702 29.5466ZM14.2341 29.5466L24.9193 18.8614H20.1023L12.8149 26.1488V29.1509C12.8149 29.3694 12.9919 29.5466 13.2107 29.5466H14.2341ZM27.458 29.5466H21.2899L27.8537 22.9827V29.1508C27.8537 29.3694 27.6767 29.5466 27.458 29.5466Z" fill="#FF6410"/>
</svg>
