<svg width="24" height="24" viewBox="0 0 24 24" fill="none" xmlns="http://www.w3.org/2000/svg">
<path d="M11.718 7.98438V12.6354L15.374 14.8644" stroke="#434657" stroke-width="1.5" stroke-linecap="round" stroke-linejoin="round"/>
<path d="M3.05908 11C3.25214 9.27324 3.94091 7.63927 5.04223 6.29537C6.14355 4.95147 7.61035 3.9551 9.26552 3.42654C10.9207 2.89798 12.6935 2.85983 14.3699 3.3167C16.0462 3.77358 17.5545 4.70594 18.7126 6.00122C19.8708 7.2965 20.6292 8.89933 20.8963 10.6162C21.1635 12.333 20.928 14.0905 20.2182 15.6765C19.5084 17.2624 18.3547 18.609 16.8965 19.5536C15.4382 20.4983 13.7376 21.0006 12.0001 21" stroke="#434657" stroke-width="1.5" stroke-linecap="round" stroke-linejoin="round"/>
<path d="M2 16.4V19.2C2 19.5713 2.1475 19.9274 2.41005 20.1899C2.6726 20.4525 3.0287 20.6 3.4 20.6H7.6C7.9713 20.6 8.3274 20.4525 8.58995 20.1899C8.8525 19.9274 9 19.5713 9 19.2V16.4C9 16.0287 8.8525 15.6726 8.58995 15.4101C8.3274 15.1475 7.9713 15 7.6 15H3.4C3.0287 15 2.6726 15.1475 2.41005 15.4101C2.1475 15.6726 2 16.0287 2 16.4V16.4Z" stroke="#434657" stroke-width="1.5" stroke-linecap="round" stroke-linejoin="round"/>
<path d="M9 17.5996H2" stroke="#434657" stroke-width="1.5" stroke-linecap="round" stroke-linejoin="round"/>
</svg>
