<svg width="24" height="24" viewBox="0 0 24 24" fill="none" xmlns="http://www.w3.org/2000/svg">
<path d="M18 22C20.2091 22 22 20.2091 22 18C22 15.7909 20.2091 14 18 14C15.7909 14 14 15.7909 14 18C14 20.2091 15.7909 22 18 22Z" stroke="#434657" stroke-width="1.5" stroke-linecap="round" stroke-linejoin="round"/>
<path d="M19.5171 14.2999C20.158 12.4765 20.1604 10.4894 19.524 8.66448C18.8876 6.83952 17.65 5.28491 16.0143 4.25548C14.3785 3.22605 12.4415 2.78288 10.5208 2.99861C8.60014 3.21434 6.80973 4.07617 5.44307 5.44283C4.07641 6.80949 3.21458 8.5999 2.99885 10.5206C2.78312 12.4412 3.2263 14.3782 4.25573 16.014C5.28516 17.6498 6.83977 18.8873 8.66473 19.5238C10.4897 20.1602 12.4767 20.1578 14.3001 19.5169" stroke="#434657" stroke-width="1.5" stroke-linecap="round" stroke-linejoin="round"/>
<path d="M11.5001 7C11.9395 7 12.3691 7.13032 12.7346 7.37447C13.1 7.61863 13.3848 7.96566 13.5529 8.37168C13.7211 8.77769 13.7651 9.22447 13.6794 9.65549C13.5936 10.0865 13.382 10.4824 13.0713 10.7932C12.7605 11.1039 12.3646 11.3156 11.9336 11.4013C11.5025 11.487 11.0558 11.443 10.6498 11.2749C10.2437 11.1067 9.89671 10.8219 9.65255 10.4565C9.40839 10.0911 9.27808 9.66147 9.27808 9.222C9.27808 8.63269 9.51218 8.06751 9.92889 7.65081C10.3456 7.2341 10.9108 7 11.5001 7" stroke="#434657" stroke-width="1.5" stroke-linecap="round" stroke-linejoin="round"/>
<path d="M15.451 14.908C15.288 14.537 15.02 14.2218 14.6801 14.0011C14.3402 13.7805 13.9432 13.664 13.538 13.666H9.463C9.04011 13.6669 8.62716 13.7943 8.27731 14.0318C7.92746 14.2694 7.65674 14.6063 7.5 14.999" stroke="#434657" stroke-width="1.5" stroke-linecap="round" stroke-linejoin="round"/>
<path d="M18 22C20.2091 22 22 20.2091 22 18C22 15.7909 20.2091 14 18 14C15.7909 14 14 15.7909 14 18C14 20.2091 15.7909 22 18 22Z" stroke="#434657" stroke-width="1.5" stroke-linecap="round" stroke-linejoin="round"/>
<path d="M19.4731 17.2637L17.6311 19.1057L16.5271 17.9997" stroke="#434657" stroke-width="1.5" stroke-linecap="round" stroke-linejoin="round"/>
</svg>
