<svg width="155" height="125" viewBox="0 0 155 125" fill="none" xmlns="http://www.w3.org/2000/svg">
<g clip-path="url(#clip0_2207_70998)">
<path d="M88.9759 0H42.3801C38.3193 0 35.0273 3.29538 35.0273 7.36045V111.186C35.0273 115.251 38.3193 118.546 42.3801 118.546H88.9759C93.0367 118.546 96.3286 115.251 96.3286 111.186V7.36045C96.3286 3.29538 93.0367 0 88.9759 0Z" fill="#3945BA"/>
<path d="M88.738 1.03772H42.6139C39.0571 1.03772 36.1738 3.92407 36.1738 7.48457V110.414C36.1738 113.974 39.0571 116.86 42.6139 116.86H88.738C92.2947 116.86 95.178 113.974 95.178 110.414V7.48457C95.178 3.92407 92.2947 1.03772 88.738 1.03772Z" fill="white"/>
<path d="M92.5952 7.28112V110.093C92.5952 112.503 90.6425 114.457 88.2352 114.457H43.1168C40.7095 114.457 38.7568 112.503 38.7568 110.093V7.28112C38.7568 4.87131 40.7095 2.91656 43.1168 2.91656H50.6417C51.0584 2.91656 51.4407 3.151 51.6267 3.52677L52.4256 5.12297C52.7907 5.86074 53.5415 6.32271 54.3577 6.32271H76.9909C77.8071 6.32271 78.5579 5.86074 78.923 5.12297L79.7219 3.52677C79.9079 3.15444 80.2902 2.91656 80.7069 2.91656H88.2318C90.6391 2.91656 92.5918 4.87131 92.5918 7.28112H92.5952Z" fill="#DEE3FC"/>
<path d="M75.1762 4.45416H56.9477C56.5241 4.45416 56.1797 4.10941 56.1797 3.68536C56.1797 3.26132 56.5241 2.91656 56.9477 2.91656H75.1762C75.5998 2.91656 75.9442 3.26132 75.9442 3.68536C75.9442 4.10941 75.5998 4.45416 75.1762 4.45416Z" fill="#DEE3FC"/>
<path d="M85.436 90.7731H44.8704C43.2765 90.7731 41.9844 92.0665 41.9844 93.6621V108C41.9844 109.596 43.2765 110.889 44.8704 110.889H85.436C87.0299 110.889 88.322 109.596 88.322 108V93.6621C88.322 92.0665 87.0299 90.7731 85.436 90.7731Z" stroke="#698BD1" stroke-width="1.17925" stroke-linecap="round" stroke-linejoin="round"/>
<path d="M83.3801 47.4033H63.2539C62.1051 47.4033 61.1738 48.3356 61.1738 49.4856V59.4455C61.1738 60.5955 62.1051 61.5278 63.2539 61.5278H83.3801C84.5289 61.5278 85.4602 60.5955 85.4602 59.4455V49.4856C85.4602 48.3356 84.5289 47.4033 83.3801 47.4033Z" stroke="#698BD1" stroke-width="1.17925" stroke-linecap="round" stroke-linejoin="round"/>
<path d="M87.7094 64.9133H46.1485C44.7791 64.9133 43.6689 66.0246 43.6689 67.3955V84.9433C43.6689 86.3142 44.7791 87.4255 46.1485 87.4255H87.7094C89.0789 87.4255 90.1891 86.3142 90.1891 84.9433V67.3955C90.1891 66.0246 89.0789 64.9133 87.7094 64.9133Z" fill="#4B5A9B"/>
<path d="M88.322 65.5717V83.1299C88.322 84.4986 87.213 85.6052 85.8458 85.6052H44.4605C43.0933 85.6052 41.9844 84.4986 41.9844 83.1299V65.5717C41.9844 64.2031 43.0933 63.093 44.4605 63.093H85.8458C87.213 63.093 88.322 64.2031 88.322 65.5717Z" fill="#7F95F4"/>
<path d="M57.9882 68.2194H45.7968C44.8724 68.2194 44.123 68.9696 44.123 69.8949V82.0991C44.123 83.0245 44.8724 83.7746 45.7968 83.7746H57.9882C58.9125 83.7746 59.6619 83.0245 59.6619 82.0991V69.8949C59.6619 68.9696 58.9125 68.2194 57.9882 68.2194Z" fill="white"/>
<path d="M72.4383 70.1879H61.7003C61.4076 70.1879 61.1699 69.9501 61.1699 69.657C61.1699 69.364 61.4076 69.1261 61.7003 69.1261H72.4383C72.7311 69.1261 72.9687 69.364 72.9687 69.657C72.9687 69.9501 72.7311 70.1879 72.4383 70.1879Z" fill="#B2C1F9"/>
<path d="M67.5485 72.3013H61.7042C61.4115 72.3013 61.1738 72.0634 61.1738 71.7704C61.1738 71.4773 61.4115 71.2394 61.7042 71.2394H67.5485C67.8412 71.2394 68.0788 71.4773 68.0788 71.7704C68.0788 72.0634 67.8412 72.3013 67.5485 72.3013Z" fill="#B2C1F9"/>
<path d="M85.5117 72.3013H69.6974C69.4046 72.3013 69.167 72.0634 69.167 71.7704C69.167 71.4773 69.4046 71.2394 69.6974 71.2394H85.5117C85.8044 71.2394 86.0421 71.4773 86.0421 71.7704C86.0421 72.0634 85.8044 72.3013 85.5117 72.3013Z" fill="#B2C1F9"/>
<path d="M70.7439 74.4146H61.7003C61.4076 74.4146 61.1699 74.1767 61.1699 73.8836C61.1699 73.5906 61.4076 73.3527 61.7003 73.3527H70.7439C71.0367 73.3527 71.2743 73.5906 71.2743 73.8836C71.2743 74.1767 71.0367 74.4146 70.7439 74.4146Z" fill="#B2C1F9"/>
<path d="M78.4198 74.4146H72.7339C72.4412 74.4146 72.207 74.1767 72.207 73.8836C72.207 73.5906 72.4447 73.3527 72.7339 73.3527H78.4198C78.7125 73.3527 78.9467 73.5906 78.9467 73.8836C78.9467 74.1767 78.7091 74.4146 78.4198 74.4146Z" fill="#B2C1F9"/>
<path d="M85.5112 74.4146H80.2765C79.9837 74.4146 79.7461 74.1767 79.7461 73.8836C79.7461 73.5906 79.9837 73.3527 80.2765 73.3527H85.5112C85.8039 73.3527 86.0415 73.5906 86.0415 73.8836C86.0415 74.1767 85.8039 74.4146 85.5112 74.4146Z" fill="#B2C1F9"/>
<path d="M85.5114 76.5279H61.7003C61.4076 76.5279 61.1699 76.29 61.1699 75.997C61.1699 75.7039 61.4076 75.4661 61.7003 75.4661H85.5114C85.8041 75.4661 86.0417 75.7039 86.0417 75.997C86.0417 76.29 85.8041 76.5279 85.5114 76.5279Z" fill="#B2C1F9"/>
<path d="M74.8082 78.6412H61.7042C61.4115 78.6412 61.1738 78.4034 61.1738 78.1103C61.1738 77.8173 61.4115 77.5794 61.7042 77.5794H74.8082C75.1009 77.5794 75.3386 77.8173 75.3386 78.1103C75.3386 78.4034 75.1009 78.6412 74.8082 78.6412Z" fill="#B2C1F9"/>
<path d="M85.5115 78.6412H76.919C76.6263 78.6412 76.3887 78.4034 76.3887 78.1103C76.3887 77.8173 76.6263 77.5794 76.919 77.5794H85.5115C85.8043 77.5794 86.0419 77.8173 86.0419 78.1103C86.0419 78.4034 85.8043 78.6412 85.5115 78.6412Z" fill="#B2C1F9"/>
<path d="M69.4008 80.7546H61.7003C61.4076 80.7546 61.1699 80.5167 61.1699 80.2237C61.1699 79.9306 61.4076 79.6927 61.7003 79.6927H69.4008C69.6936 79.6927 69.9312 79.9306 69.9312 80.2237C69.9312 80.5167 69.6936 80.7546 69.4008 80.7546Z" fill="#B2C1F9"/>
<path d="M79.185 80.7546H71.4845C71.1917 80.7546 70.9541 80.5167 70.9541 80.2237C70.9541 79.9306 71.1917 79.6927 71.4845 79.6927H79.185C79.4777 79.6927 79.7154 79.9306 79.7154 80.2237C79.7154 80.5167 79.4777 80.7546 79.185 80.7546Z" fill="#B2C1F9"/>
<path d="M85.5108 80.7546H81.044C80.7513 80.7546 80.5137 80.5167 80.5137 80.2237C80.5137 79.9306 80.7513 79.6927 81.044 79.6927H85.5108C85.8035 79.6927 86.0411 79.9306 86.0411 80.2237C86.0411 80.5167 85.8035 80.7546 85.5108 80.7546Z" fill="#B2C1F9"/>
<path d="M72.4383 82.8644H61.7003C61.4076 82.8644 61.1699 82.6266 61.1699 82.3335C61.1699 82.0405 61.4076 81.8026 61.7003 81.8026H72.4383C72.7311 81.8026 72.9687 82.0405 72.9687 82.3335C72.9687 82.6266 72.7311 82.8644 72.4383 82.8644Z" fill="#B2C1F9"/>
<path d="M85.5116 70.1879H74.7735C74.4808 70.1879 74.2432 69.9501 74.2432 69.657C74.2432 69.364 74.4808 69.1261 74.7735 69.1261H85.5116C85.8043 69.1261 86.0419 69.364 86.0419 69.657C86.0419 69.9501 85.8043 70.1879 85.5116 70.1879Z" fill="#B2C1F9"/>
<path d="M88.322 65.5717V66.3095H41.9844V65.5717C41.9844 64.2031 43.0933 63.093 44.4605 63.093H85.8458C87.213 63.093 88.322 64.2031 88.322 65.5717Z" fill="#3052CE"/>
<path d="M79.5848 64.7581C79.5848 65.0753 79.3265 65.3338 79.0097 65.3338C78.6929 65.3338 78.4346 65.0753 78.4346 64.7581C78.4346 64.4409 78.6929 64.1824 79.0097 64.1824C79.3265 64.1824 79.5848 64.4409 79.5848 64.7581Z" fill="#DEE3FC"/>
<path d="M82.5223 64.7581C82.5223 65.0753 82.264 65.3338 81.9472 65.3338C81.6304 65.3338 81.3721 65.0753 81.3721 64.7581C81.3721 64.4409 81.6304 64.1824 81.9472 64.1824C82.264 64.1824 82.5223 64.4409 82.5223 64.7581Z" fill="#DEE3FC"/>
<path d="M85.4608 64.7581C85.4608 65.0753 85.2025 65.3338 84.8857 65.3338C84.5688 65.3338 84.3105 65.0753 84.3105 64.7581C84.3105 64.4409 84.5688 64.1824 84.8857 64.1824C85.2025 64.1824 85.4608 64.4409 85.4608 64.7581Z" fill="#DEE3FC"/>
<path d="M56.3278 47.4171H47.1567C45.7968 47.4171 44.6943 48.5207 44.6943 49.8821V59.0628C44.6943 60.4242 45.7968 61.5278 47.1567 61.5278H56.3278C57.6877 61.5278 58.7902 60.4242 58.7902 59.0628V49.8821C58.7902 48.5207 57.6877 47.4171 56.3278 47.4171Z" stroke="#495AD6" stroke-width="1.06132" stroke-miterlimit="10"/>
<path d="M49.5431 52.4298L47.5146 54.4638L49.5603 56.5117" stroke="#495AD6" stroke-width="1.96934" stroke-linecap="round" stroke-linejoin="round"/>
<path d="M53.9415 52.4298L55.9734 54.4638L53.9277 56.5117" stroke="#495AD6" stroke-width="1.96934" stroke-linecap="round" stroke-linejoin="round"/>
<path d="M52.694 52.4298L50.793 56.5117" stroke="#495AD6" stroke-width="1.96934" stroke-linecap="round" stroke-linejoin="round"/>
<path d="M88.322 12.973V41.6805C88.322 43.2388 87.0615 44.5005 85.5049 44.5005H44.8015C43.2483 44.5005 41.9844 43.2388 41.9844 41.6805V12.973C41.9844 11.4147 43.2483 10.153 44.8015 10.153H85.5049C87.0615 10.153 88.322 11.4147 88.322 12.973Z" fill="#B2C1F9"/>
<path d="M78.9373 25.946C82.6462 25.946 85.6529 22.9362 85.6529 19.2234C85.6529 15.5106 82.6462 12.5007 78.9373 12.5007C75.2284 12.5007 72.2217 15.5106 72.2217 19.2234C72.2217 22.9362 75.2284 25.946 78.9373 25.946Z" fill="#F0F4FF"/>
<path d="M69.2221 44.5005H44.8015C43.2483 44.5005 41.9844 43.2387 41.9844 41.6805V37.1608L52.6708 18.6304C53.2287 17.6616 54.6269 17.6616 55.1848 18.6304L63.2539 32.6204L69.2462 43.0112C69.5355 43.5076 69.4907 44.073 69.2221 44.5005Z" fill="white"/>
<path d="M79.7544 44.5005H56.4014L63.2547 32.6204L66.9466 26.2184C67.4494 25.3462 68.7064 25.3462 69.2092 26.2184L79.7544 44.5005Z" fill="#F0F4FF"/>
<path d="M126.075 97.8439H108.07V124.928H126.075V97.8439Z" fill="#3B47BC"/>
<path d="M132.967 97.8439H126.072V124.928H132.967V97.8439Z" fill="#495AD6"/>
<path d="M132.122 98.8851H127.06V99.7504H132.122V98.8851Z" fill="#B2C1F9"/>
<path d="M132.122 100.74H127.06V101.605H132.122V100.74Z" fill="#B2C1F9"/>
<path d="M132.122 102.598H127.06V103.463H132.122V102.598Z" fill="#B2C1F9"/>
<path d="M132.122 104.456H127.06V105.322H132.122V104.456Z" fill="#B2C1F9"/>
<path d="M132.122 106.311H127.06V107.176H132.122V106.311Z" fill="#B2C1F9"/>
<path d="M132.122 108.169H127.06V109.035H132.122V108.169Z" fill="#B2C1F9"/>
<path d="M132.122 110.027H127.06V110.893H132.122V110.027Z" fill="#B2C1F9"/>
<path d="M132.122 111.882H127.06V112.748H132.122V111.882Z" fill="#B2C1F9"/>
<path d="M132.122 113.74H127.06V114.606H132.122V113.74Z" fill="#B2C1F9"/>
<path d="M132.122 115.595H127.06V116.46H132.122V115.595Z" fill="#B2C1F9"/>
<path d="M132.122 117.453H127.06V118.319H132.122V117.453Z" fill="#B2C1F9"/>
<path d="M132.122 119.312H127.06V120.177H132.122V119.312Z" fill="#B2C1F9"/>
<path d="M132.122 121.166H127.06V122.032H132.122V121.166Z" fill="#B2C1F9"/>
<path d="M132.122 123.025H127.06V123.89H132.122V123.025Z" fill="#B2C1F9"/>
<path d="M105.146 124.928H114.297C114.297 124.928 114.806 123.297 113.701 121.277C113.701 121.277 112.964 121.87 110.76 121.47C110.76 121.47 109.84 122.252 109.203 122.559C108.563 122.869 104.902 123.59 105.15 124.931L105.146 124.928Z" fill="#281616"/>
<path d="M105.783 99.1023C106.376 102.633 109.1 114.575 110.274 121.628C112.416 121.811 113.446 121.566 113.99 121.439C113.883 118.977 113.673 113.092 113.697 110.514C113.739 106.152 113.942 100.402 112.024 97.2441L105.573 97.7509C105.611 98.0922 105.649 98.368 105.68 98.5679C105.711 98.7575 105.745 98.9334 105.783 99.0988V99.1023Z" fill="#002C54"/>
<path d="M88.5945 124.928H97.7449C97.7449 124.928 98.2546 123.297 97.1491 121.277C97.1491 121.277 96.4122 121.87 94.2081 121.47C94.2081 121.47 93.2885 122.252 92.6514 122.559C92.0109 122.869 88.35 123.59 88.598 124.931L88.5945 124.928Z" fill="#281616"/>
<path d="M93.9395 121.425C95.689 121.859 96.9529 121.814 97.5521 121.749C98.0377 118.912 98.8057 112.675 99.4979 109.748C100.572 105.201 101.623 98.9506 100.893 96.72L94.549 95.1238C94.5284 95.3238 94.0118 114.457 93.9395 121.425Z" fill="#052635"/>
<path d="M119.186 88.6149C119.059 87.36 118.911 86.443 118.911 86.443L111.823 88.1805L105.804 89.5527C103.572 90.0491 100.875 90.649 98.499 91.1868C95.83 91.7935 94.0598 93.8207 94.6453 96.4959L95.3134 99.7401C99.0432 99.6883 116.586 98.006 118.084 97.2475C119.779 96.3891 120.289 93.3622 119.186 88.6149Z" fill="#052635"/>
<path d="M129.77 88.615C129.643 87.3601 129.033 86.0121 129.033 86.0121L122.41 88.1771L116.39 89.5492C114.159 90.0457 111.462 90.6455 109.086 91.1834C106.417 91.7901 104.647 93.8173 105.232 96.4925L105.9 99.7366C109.63 99.6849 125.224 99.1402 128.671 97.2441C130.335 96.3271 130.875 93.3587 129.773 88.6115L129.77 88.615Z" fill="#002C54"/>
<path d="M109.93 78.4448C109.93 78.4448 113.078 77.021 113.946 78.4482C114.421 79.2308 114.09 80.6822 113.019 81.2924C111.945 81.9026 105.88 84.471 100.153 85.9018C100.153 85.9018 99.9082 85.1054 99.5156 84.2676C99.5156 84.2676 102.085 83.2024 104.637 81.4062C107.192 79.61 109.933 78.4448 109.933 78.4448H109.93Z" fill="#E5918F"/>
<path d="M110.718 68.6055L108.021 79.3928C108.021 79.3928 108.3 82.1198 111.052 80.7822C113.804 79.4445 115.626 70.8499 115.626 70.8499L110.718 68.6055Z" fill="#E5918F"/>
<path d="M115.282 74.6387C114.947 74.5594 114.631 74.4698 114.321 74.3767C114.007 74.2836 113.708 74.1871 113.422 74.0871C110.86 73.208 109.472 72.1496 109.472 72.1496C110.278 68.6435 111.249 66.2854 112.113 64.734C112.137 64.6961 112.158 64.6616 112.179 64.6202L112.247 64.5065C112.712 63.7342 113.381 63.0861 114.124 62.5517C114.2 62.4966 114.272 62.4483 114.352 62.3931L114.669 68.0264L114.724 68.6056L115.282 74.6387Z" fill="white"/>
<path d="M115.282 74.6387C114.948 74.5594 114.631 74.4698 114.321 74.3767C114.007 74.2836 113.708 74.1871 113.422 74.0871C113.959 70.2949 114.448 67.9092 114.448 67.9092L114.724 68.6056L115.282 74.6387Z" fill="#C7E5F2"/>
<path d="M131.209 64.8995C131.144 66.5681 130.851 69.2433 130.6 71.9324C130.52 72.7839 130.441 73.6424 130.376 74.4698C130.331 74.9834 129.556 77.7311 129.525 78.2241C129.387 80.5753 128.237 82.3335 129.325 85.9155C129.587 86.7739 129.653 87.2152 129.653 87.5669C129.653 87.8116 129.336 88.0702 129.208 88.1392C128.75 88.4046 127.855 88.5873 126.763 88.7218H126.76C124.614 88.9838 121.721 89.0321 119.975 89.0321C117.63 89.0321 114.11 88.6597 113.666 88.0668C113.26 87.5255 113.635 86.736 113.828 85.65C114.692 80.7442 114.386 78.1862 114.331 74.6421C114.331 74.5525 114.327 74.4663 114.327 74.3732C114.238 68.9089 113.879 64.2341 114.131 62.5482C114.207 62.4931 114.279 62.4448 114.358 62.3897C114.73 62.1345 115.095 61.9105 115.446 61.7105C115.477 61.6967 115.515 61.6726 115.553 61.6485C115.66 61.5864 115.774 61.5278 115.877 61.4726C115.915 61.4485 115.956 61.4313 116.001 61.4106C116.796 61.021 117.954 60.6073 118.618 60.3763C118.704 60.3487 118.78 60.3212 118.846 60.3039C119.472 60.266 120.151 60.2591 120.884 60.2763C121.522 60.297 122.496 60.3798 123.557 60.5177H123.56C124.759 60.6728 126.067 60.8969 127.107 61.183C127.107 61.183 127.118 61.1865 127.128 61.1899C127.324 61.252 128.595 61.7277 129.918 63.1447C130.359 63.6135 130.813 64.1893 131.219 64.8926L131.209 64.8995Z" fill="white"/>
<path d="M129.325 85.9121C129.587 86.7705 129.652 87.2118 129.652 87.5634C129.652 87.8082 129.335 88.0668 129.208 88.1357C128.75 88.4012 127.854 88.5839 126.763 88.7184C127.21 88.6632 127.985 87.953 127.985 87.3083C127.985 86.8567 127.403 83.816 127.562 81.8544C127.723 79.8962 128.04 76.7762 127.434 74.2767C126.825 71.7807 126.253 68.4952 126.253 68.4952L129.673 70.5637C129.673 70.5637 130.114 71.1809 130.599 71.9324C130.52 72.7839 130.441 73.6424 130.375 74.4698C130.33 74.9835 128.233 82.3336 129.325 85.9155V85.9121Z" fill="#C7E5F2"/>
<path d="M114.282 50.4578C114.282 50.4578 114.578 54.0363 115.763 54.2777C116.948 54.519 116.659 52.9986 116.659 52.9986L116.493 51.299L114.282 50.4578Z" fill="#002C54"/>
<path d="M119.749 63.4343C117.427 63.1585 118.295 60.9003 118.612 60.3798C118.698 60.3522 119.094 60.2315 119.125 60.2108C119.129 60.2074 119.132 60.2074 119.132 60.2074C119.208 60.1453 119.266 60.0523 119.311 59.9385C119.539 59.3421 119.435 58.1561 119.425 58.0803V57.8596C119.463 57.7183 119.501 57.5838 119.532 57.4563L120.751 56.4944L123.334 54.4604C123.334 54.4604 122.648 57.8596 123.199 60.004C123.241 60.166 123.327 60.3936 123.54 60.5177C123.54 60.5211 123.544 60.5177 123.544 60.5177C123.613 60.5625 123.699 60.5935 123.802 60.6108C124.436 60.9107 123.554 63.8824 119.742 63.4308L119.749 63.4343Z" fill="#E5918F"/>
<path d="M121.797 56.6254C121.797 56.6254 121.777 58.8939 119.314 59.9385C119.542 59.3455 119.438 58.1596 119.432 58.0837L120.461 57.2736L121.797 56.6289V56.6254Z" fill="#CC6362"/>
<path d="M114.848 50.9681C114.848 50.9681 115.385 58.3975 117.389 59.0284C117.389 59.0284 119.941 59.2697 121.773 56.8013C122.3 56.0911 122.968 55.929 123.185 55.0706C123.54 53.6744 124.039 51.1025 123.402 49.5511C122.497 47.3447 114.934 45.5899 114.848 50.9681Z" fill="#E5918F"/>
<path d="M123.433 48.3273C123.399 46.9793 122.035 46.4725 122.035 46.4725C120.678 45.8347 117.854 46.1105 114.944 46.7621C114.262 46.9138 113.405 46.4966 112.929 46.8276C112.354 47.2275 112.929 49.0547 112.929 49.0547C114.052 52.4574 118.181 51.3507 119.425 50.9301C119.721 51.8058 119.683 53.0228 120.416 53.6537C120.837 54.0122 121.563 54.0226 122.307 53.8984C122.397 54.0708 122.741 54.226 122.81 54.4638C123.044 55.2602 123.01 56.5048 123.003 57.4632L123.354 57.2908C123.399 57.0322 127.022 48.441 123.437 48.3273H123.433Z" fill="#002C54"/>
<path d="M116.108 54.8327C115.895 54.8327 115.681 54.7431 115.499 54.5776C115.285 54.3811 115.137 54.0984 115.082 53.7812C115.027 53.464 115.075 53.1469 115.213 52.8918C115.354 52.6297 115.574 52.4608 115.833 52.416C116.091 52.3746 116.356 52.4574 116.577 52.6608C116.79 52.8573 116.938 53.14 116.993 53.4571C117.048 53.7743 117 54.0915 116.862 54.3466C116.721 54.6086 116.501 54.7775 116.242 54.8224C116.198 54.8293 116.153 54.8327 116.112 54.8327H116.108ZM115.964 52.578C115.929 52.578 115.895 52.578 115.86 52.5884C115.654 52.6228 115.478 52.7608 115.364 52.9745C115.244 53.1951 115.206 53.4744 115.254 53.7536C115.302 54.0329 115.43 54.2811 115.616 54.45C115.795 54.6155 116.008 54.6879 116.211 54.65C116.418 54.6155 116.594 54.4776 116.707 54.2639C116.828 54.0432 116.866 53.764 116.818 53.4847C116.769 53.2055 116.642 52.9573 116.456 52.7883C116.304 52.6504 116.132 52.578 115.96 52.578H115.964Z" fill="white"/>
<path d="M118.529 54.3776C118.315 54.3776 118.102 54.288 117.919 54.1225C117.706 53.926 117.558 53.6433 117.502 53.3262C117.389 52.6642 117.726 52.0506 118.253 51.9609C118.78 51.8713 119.3 52.3367 119.41 53.0021C119.524 53.664 119.187 54.2777 118.66 54.3673C118.615 54.3742 118.57 54.3776 118.529 54.3776ZM118.384 52.123C118.35 52.123 118.315 52.123 118.281 52.1333C117.85 52.2057 117.575 52.7297 117.671 53.2986C117.719 53.5778 117.847 53.826 118.033 53.995C118.212 54.1605 118.425 54.2329 118.629 54.1949C119.059 54.1225 119.335 53.5985 119.238 53.0297C119.149 52.5057 118.777 52.123 118.381 52.123H118.384Z" fill="white"/>
<path d="M116.976 53.5193L116.831 53.4262C116.852 53.3917 116.996 53.2124 117.575 53.2607L117.561 53.4331C117.082 53.3917 116.976 53.5193 116.976 53.5193Z" fill="white"/>
<path d="M121.402 52.7412L119.331 53.0726L119.358 53.2428L121.429 52.9115L121.402 52.7412Z" fill="white"/>
<path d="M121.567 55.4636C122.993 56.0118 123.437 52.4987 122.083 52.3436C121.057 52.2264 121.016 53.6606 121.016 53.6606C121.016 53.6606 120.754 55.1533 121.567 55.4671V55.4636Z" fill="#E5918F"/>
<g opacity="0.5">
<path d="M122.038 52.8745C122.038 52.8745 121.945 52.971 121.863 53.1262C121.777 53.2813 121.704 53.4951 121.69 53.726C121.677 53.8398 121.68 53.957 121.687 54.0674C121.69 54.1777 121.704 54.2845 121.711 54.3742C121.721 54.4673 121.728 54.5466 121.735 54.6017C121.742 54.6569 121.742 54.6914 121.742 54.6914C121.742 54.6914 121.721 54.6672 121.69 54.619C121.663 54.5707 121.611 54.5052 121.573 54.4156C121.532 54.3259 121.491 54.219 121.47 54.0984C121.443 53.9777 121.436 53.8433 121.446 53.7054C121.46 53.5709 121.494 53.4365 121.549 53.3192C121.604 53.202 121.684 53.1089 121.756 53.04C121.911 52.9055 122.045 52.878 122.045 52.878L122.038 52.8745Z" fill="#CC6362"/>
<path d="M122.259 53.5399C122.259 53.5399 122.2 53.5468 122.121 53.5778C122.042 53.6054 121.942 53.664 121.87 53.7364C121.794 53.8122 121.746 53.9019 121.722 53.9743C121.694 54.0467 121.687 54.0949 121.687 54.0949L121.453 54.0122C121.453 54.0122 121.481 53.9536 121.539 53.8743C121.594 53.795 121.687 53.6985 121.798 53.6364C121.908 53.5743 122.028 53.5433 122.118 53.5399C122.207 53.533 122.266 53.5399 122.266 53.5399H122.259Z" fill="#CC6362"/>
</g>
<path d="M135.27 79.8651C134.643 80.596 132.267 81.1269 131.124 80.1202C130.766 79.7996 130.359 78.955 129.96 77.9069C128.947 75.2282 127.986 71.2187 127.986 71.2187L133.307 68.4987C133.307 68.4987 133.992 71.5704 134.581 74.4904C134.581 74.4904 134.588 74.5215 134.599 74.5732C134.791 75.5075 134.971 76.4279 135.108 77.2174C135.115 77.2381 135.115 77.2588 135.119 77.2795C135.26 78.2206 135.349 79.2032 135.274 79.8686L135.27 79.8651Z" fill="#E5918F"/>
<path d="M125.975 67.4886C126.488 69.626 128.103 73.6803 128.103 73.6803C129.233 73.8699 130.751 73.6596 132.008 73.208C133.458 72.6874 134.495 71.5911 134.495 71.5911C134.495 71.5911 133.424 68.578 132.463 66.4129C131.602 64.4685 131.082 63.7446 130.71 63.3584C130.149 62.7689 129.239 62.0932 128.599 61.7864L125.978 67.4886H125.975Z" fill="white"/>
<path d="M132.704 68.8848L129.584 67.5368L127.125 61.1934C127.125 61.1934 127.576 61.3313 128.168 61.5692C128.168 61.5692 128.206 61.583 128.248 61.6002C128.261 61.6071 128.279 61.6106 128.292 61.6209C128.823 61.8691 130.879 63.0827 132.305 67.492C132.315 67.53 132.329 67.5679 132.339 67.6023C132.491 68.1091 132.601 68.5194 132.663 68.7297C132.67 68.7504 132.673 68.7711 132.68 68.7917C132.687 68.8193 132.694 68.8504 132.704 68.8814V68.8848Z" fill="white"/>
<path d="M135.27 79.8651C135.225 80.2582 135.118 80.5374 134.925 80.6374C134.894 80.6581 134.457 80.9166 134.426 80.9373C133.775 81.3338 132.597 82.013 131.13 82.6438C127.573 84.1814 122.403 85.9672 119.617 86.7843C119.617 86.7843 119.342 85.9948 118.911 85.1743C118.911 85.1743 121.432 84.0022 123.908 82.1026C126.388 80.2065 129.959 77.9035 129.959 77.9035L130.861 76.8417C130.861 76.8417 134.064 73.8906 134.581 74.4836C134.581 74.4836 134.588 74.5146 134.598 74.5663C134.674 74.8731 134.929 76.0074 135.108 77.2106C135.115 77.2312 135.115 77.2519 135.118 77.2726C135.259 78.2138 135.349 79.1963 135.273 79.8617L135.27 79.8651Z" fill="#E5918F"/>
<path d="M119.279 84.9985C119.279 84.9985 118.653 85.3777 118.015 85.2433C117.661 85.1674 117.519 85.0261 117.258 84.9778C116.996 84.933 116.3 84.8468 115.956 84.6779C115.612 84.509 115.477 84.4883 115.491 84.8365C115.501 85.1812 116.183 85.4812 116.366 85.5777C116.548 85.6742 116.782 85.9811 116.807 86.019C116.831 86.0569 115.674 86.6637 115.364 86.5396C115.364 86.5396 115.271 86.8188 115.322 86.9739C115.374 87.1291 115.612 87.1842 115.632 87.2635C115.649 87.3428 115.577 87.5014 115.632 87.6255C115.684 87.7496 115.897 87.7496 115.983 87.953C116.07 88.1564 115.977 88.1564 116.039 88.3667C116.101 88.577 116.369 88.615 116.421 88.7218C116.473 88.8287 116.445 88.9563 116.559 89.0321C116.672 89.108 117.712 88.7735 118.091 88.6081C118.47 88.446 119.486 86.9808 120.609 86.4844L119.286 84.9985H119.279Z" fill="#E5918F"/>
<path d="M124.597 91.5281H116.504V90.7352H124.597C124.814 90.7352 124.993 90.911 124.993 91.1316C124.993 91.3488 124.817 91.5281 124.597 91.5281Z" fill="#375F84"/>
<path d="M120.216 91.5281H99.9555C99.7144 91.5281 99.5009 91.366 99.4355 91.1316L95.289 76.1866C95.1961 75.8557 95.4475 75.5281 95.7884 75.5281H115.381C115.839 75.5281 116.238 75.8315 116.359 76.2728L120.491 91.1626C120.543 91.3453 120.405 91.5246 120.216 91.5246V91.5281Z" fill="#375F84"/>
<path d="M119.486 91.5281H99.226C98.9849 91.5281 98.7714 91.366 98.706 91.1316L94.5595 76.1866C94.4666 75.8557 94.718 75.5281 95.0589 75.5281H114.651C115.109 75.5281 115.509 75.8315 115.629 76.2728L119.762 91.1626C119.814 91.3453 119.676 91.5246 119.486 91.5246V91.5281Z" fill="#467CDB"/>
<path d="M39.1807 81.8716L41.5294 79.4618C41.5294 79.4618 41.6121 78.3862 41.7395 78.1621C41.8669 77.9346 42.1975 77.0968 42.3628 77.0037C42.5281 76.9107 42.8553 77.0037 42.8553 77.0037C42.8553 77.0037 43.1825 76.8934 43.3271 76.8934C43.4718 76.8934 43.7473 77.0279 43.7473 77.0279C43.7473 77.0279 44.0985 77.0037 44.2432 77.0037C44.3878 77.0037 44.436 77.0451 44.436 77.0451C44.436 77.0451 45.0008 76.3935 45.2764 76.1729C45.5519 75.9522 45.9686 75.5489 46.0926 75.5523C46.2097 75.5523 46.2613 75.7592 46.1752 75.9798C46.0891 76.2005 45.7172 76.5521 45.7172 76.5521L44.6496 78.1759C44.6496 78.1759 44.8321 78.1035 44.9285 78.0414C45.025 77.9794 45.6793 77.3692 45.7172 77.345C45.7551 77.3209 46.0478 77.1244 46.22 77.3209C46.3922 77.5174 45.1007 79.0619 44.8941 79.2722C44.6875 79.4825 43.5028 80.0824 43.5028 80.0824C43.5028 80.0824 42.2492 82.337 42.1286 82.4818C42.0081 82.6266 39.1807 81.8716 39.1807 81.8716Z" fill="#E49191"/>
<path d="M41.3881 70.7534C41.3881 70.7534 40.0759 78.3551 38.843 78.531C38.843 78.531 33.9183 78.7309 32.8197 72.746C31.8691 67.5575 35.685 66.4509 37.4724 66.8473C39.2563 67.2438 41.7738 67.5024 41.3915 70.7499L41.3881 70.7534Z" fill="#E49191"/>
<path d="M37.0348 77.314C37.0348 77.314 36.346 78.2448 36.1015 80.4995C36.1015 80.4995 34.0489 80.7925 32.1582 79.8169C32.1582 79.8169 33.1776 76.6348 33.3016 73.1804" fill="#E49191"/>
<path d="M35.6471 65.5786C32.954 66.1751 33.1709 67.854 33.1709 67.854C31.9105 68.1677 31.6384 68.6883 31.6487 71.0154C31.659 73.3459 32.4994 76.1418 32.9643 76.3694C33.4292 76.5969 36.0603 76.6072 36.2808 76.528C36.5012 76.4487 37.4207 74.3112 37.2072 73.9354C36.9936 73.5596 37.2175 72.0807 37.8305 72.0255C38.4435 71.9703 38.323 72.9219 38.323 72.9219L38.8258 72.8115L39.215 71.8566C42.7725 72.0669 43.692 68.0091 43.692 68.0091C42.8379 67.4506 38.3368 64.9857 35.6436 65.5786H35.6471Z" fill="#002C54"/>
<path d="M5.76057 117.043L8.48124 117.436L7.57894 120.618L4.63097 119.874C4.63097 119.874 3.43249 118.246 5.24398 117.043C5.33008 116.985 5.61592 117.012 5.76057 117.043Z" fill="#E5918F"/>
<path d="M26.0801 108.869L22.068 96.7097C22.068 96.7097 20.8523 96.2753 20.2289 96.7097C20.2289 96.7097 16.048 98.961 16.4957 105.373C16.8332 110.21 17.8526 115.454 18.2659 117.557L7.56228 117.16C7.56228 117.16 6.24327 118.732 7.09736 120.777C7.09736 120.777 20.5492 124.397 22.4433 124.731C23.9828 125.003 25.6703 125.214 26.483 124.514C27.9157 123.283 26.0835 108.866 26.0835 108.866L26.0801 108.869Z" fill="black"/>
<path d="M18.4344 117.043L21.1551 117.436L20.2528 120.618L17.3048 119.874C17.3048 119.874 16.1063 118.246 17.9178 117.043C18.0039 116.985 18.2897 117.012 18.4344 117.043Z" fill="#E5918F"/>
<path d="M17.4489 118.712C17.3869 119.339 17.9345 119.901 17.8346 120.06C17.7347 120.215 15.906 123.29 15.906 123.29C15.906 123.29 17.287 123.893 17.0632 124.762H13.5642C13.5642 124.762 12.6516 123.938 12.6722 122.756C12.6722 122.756 12.9098 121.394 13.5332 120.191C14.1565 118.988 15.5754 116.267 15.5754 116.267C15.5754 116.267 16.0059 116.092 16.7429 116.288C17.6039 116.519 18.4339 117.047 18.4339 117.047C18.4339 117.047 17.597 117.167 17.4455 118.715L17.4489 118.712Z" fill="#467CDB"/>
<path d="M45.472 121.966C44.6076 118.739 36.4835 104.967 33.7318 101.247C28.0838 98.792 22.0673 96.7097 22.0673 96.7097C19.5774 97.3061 18.3514 102.326 19.7634 105.673C20.7311 107.969 26.875 113.747 30.6392 117.15L20.1973 117.136C20.1973 117.136 18.9678 118.977 20.0837 120.725C20.0837 120.725 37.4478 124.676 38.97 124.9C40.4922 125.124 43.9119 124.9 43.9119 124.9C43.9119 124.9 46.1987 124.679 45.472 121.963V121.966Z" fill="#002C54"/>
<path d="M4.77605 118.712C4.71406 119.339 5.26164 119.901 5.16176 120.06C5.06189 120.215 3.23318 123.29 3.23318 123.29C3.23318 123.29 4.61419 123.893 4.39033 124.762H0.891337C0.891337 124.762 -0.0212943 123.935 -0.000630898 122.752C-0.000630898 122.752 0.236998 121.39 0.860342 120.187C1.48369 118.984 2.90257 116.264 2.90257 116.264C2.90257 116.264 3.33306 116.088 4.07005 116.285C4.93102 116.516 5.761 117.043 5.761 117.043C5.761 117.043 4.92414 117.164 4.7726 118.712H4.77605Z" fill="#467CDB"/>
<path d="M58.5451 79.5308L52.9453 89.3907L48.9332 85.3881L45.6133 90.3353L46.5776 90.7972L46.2297 91.0868C46.2297 91.0868 53.9682 94.8584 54.898 94.0276C55.8244 93.1967 60.1465 80.6512 60.1465 80.6512L58.5451 79.5308Z" fill="#E49191"/>
<path d="M49.6493 86.0155C49.6493 86.0155 48.592 90.4801 46.4775 92.5968L41.0671 90.5352C41.0671 90.5352 38.5565 94.7619 36.101 98.0025C35.1574 99.254 34.844 101.016 33.7351 101.247C33.6662 101.223 33.6007 101.202 33.5319 101.185C30.5253 100.281 26.0896 101.24 22.4288 99.878C18.3856 98.3714 19.1708 97.5233 19.1708 97.5233C19.1708 97.5233 21.6229 93.1002 23.0142 88.415C23.6341 86.343 24.0646 84.4228 24.3504 82.9231C24.8636 80.2685 26.9885 78.1931 29.6678 77.8311C29.6988 77.8277 29.7264 77.8208 29.7574 77.8173C32.8224 77.4278 40.8467 78.3758 42.4068 79.0446C43.9669 79.7135 49.6493 86.0155 49.6493 86.0155Z" fill="#467CDB"/>
<path d="M41.0674 90.5352C41.0674 90.5352 38.5568 94.7618 36.1013 98.0025C35.1577 99.254 34.8443 101.016 33.7354 101.247C34.2209 101.074 35.0268 98.5162 35.3127 97.9405C35.6019 97.3682 36.06 96.7924 37.0518 94.7825C38.0402 92.7692 39.3833 89.8181 39.3833 89.8181L41.0674 90.5352Z" fill="#5996EF"/>
<path d="M30.6396 117.15C30.6396 117.15 30.7257 117.129 30.8738 117.112C31.0254 117.095 31.2389 117.064 31.4972 117.053C32.0138 117.026 32.706 117.047 33.3913 117.14C33.7323 117.188 34.0732 117.25 34.39 117.329C34.7069 117.405 34.9962 117.491 35.2407 117.581C35.4852 117.664 35.6815 117.757 35.8227 117.819C35.9605 117.881 36.0362 117.922 36.0362 117.922C36.0362 117.922 35.9501 117.912 35.802 117.888C35.654 117.857 35.4404 117.829 35.189 117.784C34.6828 117.698 34.0147 117.591 33.3431 117.502C33.009 117.45 32.6715 117.412 32.3547 117.371C32.0379 117.329 31.7417 117.295 31.4903 117.26C30.9806 117.191 30.6396 117.147 30.6396 117.147V117.15Z" fill="black"/>
<path d="M62.7297 75.9005C62.6401 75.8902 62.065 76.3521 61.7895 76.5797L62.1098 75.966C62.1098 75.966 62.5334 75.5592 62.6849 75.3351C62.8364 75.111 62.7572 74.887 62.6367 74.8732C62.554 74.8663 62.0478 75.2662 61.7551 75.5041L61.8205 75.3799C61.8205 75.3799 62.2441 74.9731 62.3956 74.7491C62.5472 74.525 62.4679 74.3009 62.3474 74.2905C62.2269 74.2802 61.2557 75.0938 61.2557 75.0938L60.7839 75.7281L61.142 75.0352C61.142 75.0352 61.3315 74.8042 61.4554 74.556C61.5794 74.3043 61.4899 74.2285 61.421 74.1457C61.3521 74.063 60.6978 74.5491 60.529 74.7456C60.3637 74.9421 59.8334 75.7316 59.792 75.8419L59.2445 76.9727C59.21 76.6452 59.1549 76.0832 59.117 75.7247C59.0619 75.211 58.5936 75.0869 58.5798 75.3386C58.5626 75.5902 58.3043 76.821 58.3628 77.4898C58.4214 78.1586 58.535 78.5965 58.5763 78.9723C58.6177 79.348 58.2285 80.0996 58.2285 80.0996C58.2285 80.0996 59.7886 81.0683 60.0434 80.7788C60.3017 80.4892 60.8493 79.8445 61.1145 79.4101C61.4796 78.8137 61.7241 78.0311 61.7241 78.0311L62.2097 76.9899C62.2097 76.9899 62.6333 76.5831 62.7848 76.359C62.9363 76.135 62.8571 75.9109 62.7366 75.9005H62.7297Z" fill="#E49191"/>
<path d="M152.186 44.5005H133.912C132.742 44.5005 131.791 45.4521 131.791 46.6242V50.9474C131.791 52.0299 132.6 52.9228 133.644 53.0538C133.795 53.0745 133.912 53.2021 133.912 53.3572V55.7222C133.912 55.8601 134.088 55.9153 134.167 55.8049L136.03 53.1986C136.089 53.1159 136.182 53.0711 136.282 53.0711H152.189C153.36 53.0711 154.311 52.1196 154.311 50.9474V46.6242C154.311 45.4521 153.36 44.5005 152.189 44.5005H152.186Z" stroke="#E8EBF9" stroke-width="1.06132" stroke-miterlimit="10"/>
<path d="M136.713 48.7789C136.713 49.1651 136.399 49.4788 136.014 49.4788C135.628 49.4788 135.314 49.1651 135.314 48.7789C135.314 48.3928 135.628 48.0791 136.014 48.0791C136.399 48.0791 136.713 48.3928 136.713 48.7789Z" stroke="#E8EBF9" stroke-width="1.06132" stroke-miterlimit="10"/>
<path d="M140.229 48.7789C140.229 49.1651 139.916 49.4788 139.53 49.4788C139.144 49.4788 138.831 49.1651 138.831 48.7789C138.831 48.3928 139.144 48.0791 139.53 48.0791C139.916 48.0791 140.229 48.3928 140.229 48.7789Z" stroke="#E8EBF9" stroke-width="1.06132" stroke-miterlimit="10"/>
<path d="M143.745 48.7789C143.745 49.1651 143.432 49.4788 143.046 49.4788C142.66 49.4788 142.347 49.1651 142.347 48.7789C142.347 48.3928 142.66 48.0791 143.046 48.0791C143.432 48.0791 143.745 48.3928 143.745 48.7789Z" stroke="#E8EBF9" stroke-width="1.06132" stroke-miterlimit="10"/>
<path d="M147.262 48.7789C147.262 49.1651 146.948 49.4788 146.562 49.4788C146.177 49.4788 145.863 49.1651 145.863 48.7789C145.863 48.3928 146.177 48.0791 146.562 48.0791C146.948 48.0791 147.262 48.3928 147.262 48.7789Z" stroke="#E8EBF9" stroke-width="1.06132" stroke-miterlimit="10"/>
<path d="M150.777 48.7789C150.777 49.1651 150.464 49.4788 150.078 49.4788C149.692 49.4788 149.379 49.1651 149.379 48.7789C149.379 48.3928 149.692 48.0791 150.078 48.0791C150.464 48.0791 150.777 48.3928 150.777 48.7789Z" stroke="#E8EBF9" stroke-width="1.06132" stroke-miterlimit="10"/>
<path d="M7.78355 63.4481H26.0568C27.2278 63.4481 28.1783 64.3996 28.1783 65.5717V69.8949C28.1783 70.9774 27.369 71.8703 26.3255 72.0013C26.1739 72.022 26.0568 72.1496 26.0568 72.3047V74.6697C26.0568 74.8076 25.8812 74.8628 25.802 74.7525L23.9389 72.1461C23.8803 72.0634 23.7873 72.0186 23.6874 72.0186H7.78355C6.61262 72.0186 5.66211 71.0671 5.66211 69.8949V65.5717C5.66211 64.3996 6.61262 63.4481 7.78355 63.4481V63.4481Z" stroke="#E8EBF9" stroke-width="1.06132" stroke-miterlimit="10"/>
<path d="M23.2539 67.7265C23.2539 68.1126 23.5673 68.4263 23.953 68.4263C24.3387 68.4263 24.6521 68.1126 24.6521 67.7265C24.6521 67.3403 24.3387 67.0266 23.953 67.0266C23.5673 67.0266 23.2539 67.3403 23.2539 67.7265Z" stroke="#E8EBF9" stroke-width="1.06132" stroke-miterlimit="10"/>
<path d="M19.7383 67.7265C19.7383 68.1126 20.0517 68.4263 20.4374 68.4263C20.8231 68.4263 21.1365 68.1126 21.1365 67.7265C21.1365 67.3403 20.8231 67.0266 20.4374 67.0266C20.0517 67.0266 19.7383 67.3403 19.7383 67.7265Z" stroke="#E8EBF9" stroke-width="1.06132" stroke-miterlimit="10"/>
<path d="M16.2217 67.7265C16.2217 68.1126 16.5351 68.4263 16.9208 68.4263C17.3065 68.4263 17.6199 68.1126 17.6199 67.7265C17.6199 67.3403 17.3065 67.0266 16.9208 67.0266C16.5351 67.0266 16.2217 67.3403 16.2217 67.7265Z" stroke="#E8EBF9" stroke-width="1.06132" stroke-miterlimit="10"/>
<path d="M12.7061 67.7265C12.7061 68.1126 13.0194 68.4263 13.4052 68.4263C13.7909 68.4263 14.1043 68.1126 14.1043 67.7265C14.1043 67.3403 13.7909 67.0266 13.4052 67.0266C13.0194 67.0266 12.7061 67.3403 12.7061 67.7265Z" stroke="#E8EBF9" stroke-width="1.06132" stroke-miterlimit="10"/>
<path d="M9.18945 67.7265C9.18945 68.1126 9.50285 68.4263 9.88856 68.4263C10.2743 68.4263 10.5877 68.1126 10.5877 67.7265C10.5877 67.3403 10.2743 67.0266 9.88856 67.0266C9.50285 67.0266 9.18945 67.3403 9.18945 67.7265Z" stroke="#E8EBF9" stroke-width="1.06132" stroke-miterlimit="10"/>
<path d="M118.146 34.5338H84.8366C83.001 34.5338 81.5098 33.0444 81.5098 31.2035C81.5098 29.3659 82.9975 27.8732 84.8366 27.8732H118.146C119.981 27.8732 121.473 29.3625 121.473 31.2035C121.473 33.041 119.985 34.5338 118.146 34.5338Z" fill="white" stroke="#495AD6" stroke-width="1.06132" stroke-miterlimit="10"/>
<path d="M117.659 30.9725C117.659 31.9516 116.867 32.7445 115.889 32.7445C114.911 32.7445 114.119 31.9516 114.119 30.9725C114.119 29.9934 114.911 29.2004 115.889 29.2004C116.867 29.2004 117.659 29.9934 117.659 30.9725Z" stroke="#495AD6" stroke-miterlimit="10"/>
<path d="M117.14 32.2239L118.118 33.203" stroke="#495AD6" stroke-miterlimit="10" stroke-linecap="round"/>
</g>
<defs>
<clipPath id="clip0_2207_70998">
<rect width="154.459" height="125" fill="white"/>
</clipPath>
</defs>
</svg>
