<svg width="40" height="40" viewBox="0 0 40 40" fill="none" xmlns="http://www.w3.org/2000/svg">
<rect width="40" height="40" rx="8" fill="#FEF1E6"/>
<g clip-path="url(#clip0_4892_69282)">
<path d="M6.03645 32.1667C6.02707 32.0484 6.00902 31.9302 6.00902 31.8119C6.00757 29.4593 6.02779 27.1068 6.00035 24.7549C5.98375 23.3853 6.55118 22.3548 7.64274 21.5759C8.59207 20.8979 9.6699 20.4969 10.768 20.1421C11.3267 19.9618 11.8956 19.8096 12.4508 19.6178C12.6659 19.5435 12.7922 19.5839 12.9525 19.7361C13.8701 20.6066 14.9183 21.229 16.2041 21.371C17.9143 21.5593 19.3343 20.9347 20.5558 19.7902C20.7616 19.5976 20.9341 19.5046 21.2092 19.6315C21.9802 19.9878 22.7014 19.9214 23.5309 19.6373C27.6047 18.2403 32.0236 20.7378 33.0018 24.9143C33.9851 29.1088 31.2006 33.2586 26.9658 33.907C25.6952 34.1017 24.4499 33.9935 23.245 33.537C23.019 33.4512 22.8082 33.4469 22.5794 33.4872C17.0516 34.4652 11.6263 34.0224 6.29201 32.3146C6.2487 32.3009 6.20899 32.2735 6.16784 32.2525C6.21549 32.0852 6.07255 32.2086 6.03717 32.1667H6.03645ZM31.5132 26.6524C31.519 23.4762 28.9785 20.9239 25.8122 20.9232C22.6653 20.9232 20.1061 23.4726 20.0996 26.6135C20.0938 29.7413 22.6407 32.3117 25.7551 32.3218C28.9468 32.3319 31.5074 29.8105 31.5125 26.6524H31.5132Z" fill="#F67600"/>
<path d="M16.6981 6.00284C17.8937 5.974 18.9455 6.18242 19.8919 6.76732C21.3416 7.66378 22.0209 9.02685 22.192 10.6791C22.2151 10.9056 22.2202 11.1342 22.2216 11.3621C22.2238 11.7068 22.2526 12.0191 22.4346 12.3502C22.8453 13.0966 22.475 14.7265 21.8217 15.2891C21.6643 15.4246 21.6145 15.6064 21.5372 15.778C21.0737 16.8173 20.4782 17.7686 19.6595 18.5676C17.7962 20.3858 15.5654 20.3339 13.7707 18.4364C13.2235 17.8573 12.7687 17.2118 12.3882 16.5129C12.1053 15.9937 11.8685 15.4621 11.4909 14.9818C10.9776 14.3284 10.7892 13.455 11.057 12.6906C11.3263 11.9203 11.2866 11.1501 11.41 10.3842C11.8432 7.70488 13.6776 6.0966 16.3928 6.00284C16.5249 5.99852 16.657 6.00284 16.6974 6.00284H16.6981Z" fill="#F67600"/>
<path d="M28.6153 23.8859C28.6254 23.9054 28.6305 23.9378 28.6449 23.9429C29.761 24.3186 30.1927 25.1422 30.1978 26.2652C30.2014 27.021 30.1992 27.7754 30.0563 28.5211C30.0043 28.793 29.9328 29.0598 29.8123 29.3086C29.569 29.8128 29.2124 29.9087 28.7691 29.5654C28.2637 29.1738 27.8638 28.6754 27.448 28.1951C27.2285 27.9412 27.0206 27.6744 26.7773 27.4443C26.1868 26.8854 25.4266 26.8861 24.8433 27.4551C24.2419 28.0415 23.7582 28.7353 23.1467 29.3151C22.4111 30.0125 21.9454 29.9072 21.6726 28.9322C21.3614 27.8201 21.3318 26.6791 21.5 25.5454C21.6422 24.5869 22.5049 23.9039 23.4846 23.8852C23.8809 23.878 24.2765 23.8837 24.6729 23.8801C24.9725 23.8772 25.2692 23.9371 25.4952 23.6111C25.6395 23.4034 26.064 23.4654 26.2257 23.6955C26.3427 23.8621 26.4705 23.8837 26.6452 23.883C27.3043 23.8801 27.9634 23.8873 28.6225 23.8902L28.616 23.8859H28.6153ZM23.5099 24.9583C23.2673 24.9129 23.1619 25.0211 23.2009 25.254C23.2543 25.5663 23.12 25.6608 22.8276 25.6161C22.5555 25.5742 22.5129 25.743 22.5078 25.9651C22.5028 26.1966 22.5916 26.3091 22.8255 26.2702C23.1265 26.2197 23.2471 26.3344 23.1987 26.6373C23.1576 26.8955 23.294 26.9633 23.5322 26.9676C23.7885 26.9727 23.8903 26.8702 23.8513 26.6265C23.8073 26.3452 23.9069 26.2233 24.2 26.2731C24.4585 26.3171 24.522 26.1801 24.5271 25.9428C24.5328 25.6904 24.4448 25.5829 24.195 25.6204C23.9423 25.6579 23.8051 25.5894 23.8542 25.2973C23.8975 25.0377 23.7827 24.9078 23.5099 24.9591V24.9583ZM28.3821 26.6113C28.346 26.4325 28.2522 26.3027 28.0501 26.3077C27.8501 26.3135 27.744 26.431 27.7468 26.6322C27.749 26.8378 27.8761 26.9445 28.0659 26.9445C28.2652 26.9445 28.3561 26.8053 28.3829 26.6113H28.3821ZM27.3808 25.6254C27.1953 25.6514 27.0538 25.7452 27.0574 25.9421C27.0603 26.1274 27.1657 26.2623 27.3729 26.2608C27.5721 26.2601 27.6898 26.1512 27.6927 25.9507C27.6956 25.7502 27.5765 25.6478 27.3808 25.6247V25.6254ZM28.0414 25.6002C28.2421 25.5822 28.3648 25.4769 28.372 25.2843C28.3793 25.0918 28.2731 24.9655 28.0703 24.9612C27.8703 24.9569 27.7562 25.0694 27.7468 25.2656C27.7375 25.4661 27.8587 25.5663 28.0414 25.6002ZM29.0506 25.9868C29.0557 25.7531 28.9351 25.6428 28.7474 25.6334C28.5547 25.624 28.424 25.743 28.4168 25.9363C28.4096 26.1281 28.5193 26.2551 28.7214 26.2608C28.9193 26.2666 29.0297 26.1563 29.0514 25.9868H29.0506Z" fill="#9147FF"/>
<path d="M28.6225 23.8902C28.3619 23.7222 28.068 23.8174 27.7908 23.7835C27.7085 23.7734 27.5735 23.839 27.5685 23.6876C27.5649 23.5837 27.6522 23.5203 27.7554 23.5001C28.0652 23.4409 28.3763 23.4842 28.686 23.5015C28.8275 23.5094 28.8838 23.6241 28.8831 23.7575C28.8816 23.9775 28.7004 23.8333 28.616 23.8859L28.6225 23.8902Z" fill="#9147FF"/>
<path d="M24.0596 23.676C24.0437 23.7986 23.9607 23.7827 23.8935 23.7841C23.56 23.7913 23.2236 23.7632 22.898 23.8728C22.8403 23.8923 22.7709 23.8966 22.7478 23.8245C22.7175 23.7279 22.7435 23.632 22.8135 23.5606C22.937 23.4351 23.8777 23.4423 23.9946 23.5678C24.0257 23.6009 24.0423 23.6478 24.0589 23.676H24.0596Z" fill="#9147FF"/>
</g>
<defs>
<clipPath id="clip0_4892_69282">
<rect width="27.2" height="28" fill="white" transform="translate(6 6)"/>
</clipPath>
</defs>
</svg>
