<svg width="24" height="24" viewBox="0 0 24 24" fill="none" xmlns="http://www.w3.org/2000/svg">
<path d="M21 7V17C21 18.0609 20.5786 19.0783 19.8284 19.8284C19.0783 20.5786 18.0609 21 17 21H7C5.93913 21 4.92172 20.5786 4.17157 19.8284C3.42143 19.0783 3 18.0609 3 17V7C3 5.93913 3.42143 4.92172 4.17157 4.17157C4.92172 3.42143 5.93913 3 7 3H17C18.0609 3 19.0783 3.42143 19.8284 4.17157C20.5786 4.92172 21 5.93913 21 7Z" stroke="#434657" stroke-width="1.5" stroke-linecap="round" stroke-linejoin="round"/>
<path d="M10.333 16.167V12.834C10.3331 12.7245 10.3117 12.6161 10.2699 12.5149C10.2281 12.4137 10.1667 12.3218 10.0894 12.2443C10.012 12.1669 9.92014 12.1054 9.81901 12.0635C9.71788 12.0216 9.60948 12 9.5 12H7.833C7.61207 12 7.4002 12.0878 7.24398 12.244C7.08776 12.4002 7 12.6121 7 12.833V16.06" stroke="#434657" stroke-width="1.5" stroke-linecap="round" stroke-linejoin="round"/>
<path d="M13.667 16.167V8.66701C13.667 8.44609 13.5792 8.23421 13.423 8.07799C13.2668 7.92178 13.0549 7.83401 12.834 7.83401H11.167C10.9461 7.83401 10.7342 7.92178 10.578 8.07799C10.4217 8.23421 10.334 8.44609 10.334 8.66701V16.167" stroke="#434657" stroke-width="1.5" stroke-linecap="round" stroke-linejoin="round"/>
<path d="M17 16.061V10.75C17 10.5291 16.9122 10.3172 16.756 10.161C16.5998 10.0048 16.3879 9.91699 16.167 9.91699H14.5C14.2791 9.91699 14.0672 10.0048 13.911 10.161C13.7548 10.3172 13.667 10.5291 13.667 10.75V16.167" stroke="#434657" stroke-width="1.5" stroke-linecap="round" stroke-linejoin="round"/>
<path d="M17 16.17H7" stroke="#434657" stroke-width="1.5" stroke-linecap="round" stroke-linejoin="round"/>
</svg>
