<svg width="48" height="48" viewBox="0 0 48 48" fill="none" xmlns="http://www.w3.org/2000/svg">
<rect width="48" height="48" rx="24" fill="#F67600"/>
<path fill-rule="evenodd" clip-rule="evenodd" d="M16.25 16.4865C16.2507 16.0723 16.5871 15.7371 17.0013 15.7378L31.0013 15.7624C31.4155 15.7632 31.7507 16.0995 31.75 16.5137C31.7492 16.928 31.4129 17.2632 30.9987 17.2624L16.9987 17.2378C16.5845 17.2371 16.2493 16.9007 16.25 16.4865ZM17.4779 26.6947C17.7753 26.983 18.2501 26.9757 18.5384 26.6784L23.25 21.8195V32C23.25 32.4142 23.5858 32.75 24 32.75C24.4142 32.75 24.75 32.4142 24.75 32V21.8195L29.4616 26.6784C29.7499 26.9757 30.2247 26.983 30.5221 26.6947C30.8195 26.4063 30.8268 25.9315 30.5384 25.6341L24.5384 19.4466C24.3972 19.301 24.2029 19.2188 24 19.2188C23.7971 19.2188 23.6028 19.301 23.4616 19.4466L17.4616 25.6341C17.1732 25.9315 17.1805 26.4063 17.4779 26.6947Z" fill="white"/>
</svg>
