<svg width="14" height="14" viewBox="0 0 14 14" fill="none" xmlns="http://www.w3.org/2000/svg">
<path fill-rule="evenodd" clip-rule="evenodd" d="M1.81317 0.752507C1.52027 0.459614 1.0454 0.459614 0.752507 0.752507C0.459614 1.0454 0.459614 1.52027 0.752507 1.81317L5.87904 6.9397L0.752531 12.0662C0.459638 12.3591 0.459637 12.834 0.752531 13.1269C1.04542 13.4198 1.5203 13.4198 1.81319 13.1269L6.9397 8.00036L12.0662 13.1269C12.3591 13.4198 12.834 13.4198 13.1269 13.1269C13.4198 12.834 13.4198 12.3591 13.1269 12.0662L8.00036 6.9397L13.1269 1.81317C13.4198 1.52027 13.4198 1.0454 13.1269 0.752507C12.834 0.459614 12.3591 0.459614 12.0662 0.752507L6.9397 5.87904L1.81317 0.752507Z" fill="#434657"/>
</svg>
