<svg width="35" height="34" viewBox="0 0 35 34" fill="none" xmlns="http://www.w3.org/2000/svg">
<path fill-rule="evenodd" clip-rule="evenodd" d="M33.82 17.3865C33.82 16.181 33.7118 15.0219 33.5109 13.9092H17.5V20.4851H26.6491C26.255 22.6101 25.0573 24.4106 23.2568 25.616V29.8815H28.7509C31.9654 26.9219 33.82 22.5637 33.82 17.3865Z" fill="#4285F4"/>
<path fill-rule="evenodd" clip-rule="evenodd" d="M17.5 34C22.09 34 25.9382 32.4777 28.7509 29.8814L23.2568 25.6159C21.7345 26.6359 19.7873 27.2386 17.5 27.2386C13.0722 27.2386 9.32451 24.2482 7.98769 20.23H2.30814V24.6345C5.10541 30.1905 10.8545 34 17.5 34Z" fill="#34A853"/>
<path fill-rule="evenodd" clip-rule="evenodd" d="M7.98769 20.2303C7.64769 19.2103 7.45451 18.1207 7.45451 17.0003C7.45451 15.8798 7.64769 14.7903 7.98769 13.7703V9.36572H2.30814C1.15677 11.6607 0.49995 14.2571 0.49995 17.0003C0.49995 19.7435 1.15677 22.3398 2.30814 24.6348L7.98769 20.2303Z" fill="#FBBC05"/>
<path fill-rule="evenodd" clip-rule="evenodd" d="M17.5 6.76137C19.9959 6.76137 22.2368 7.6191 23.9986 9.30365L28.8745 4.42773C25.9304 1.68455 22.0823 0 17.5 0C10.8545 0 5.10541 3.80955 2.30814 9.36547L7.98769 13.77C9.32451 9.75183 13.0722 6.76137 17.5 6.76137Z" fill="#EA4335"/>
</svg>
