<svg width="49" height="48" viewBox="0 0 49 48" fill="none" xmlns="http://www.w3.org/2000/svg">
<path fill-rule="evenodd" clip-rule="evenodd" d="M40.82 24.3865C40.82 23.181 40.7118 22.0219 40.5109 20.9092H24.5V27.4851H33.6491C33.255 29.6101 32.0573 31.4106 30.2568 32.616V36.8815H35.7509C38.9654 33.9219 40.82 29.5637 40.82 24.3865Z" fill="#4285F4"/>
<path fill-rule="evenodd" clip-rule="evenodd" d="M24.5 41C29.09 41 32.9382 39.4777 35.7509 36.8814L30.2568 32.6159C28.7345 33.6359 26.7873 34.2386 24.5 34.2386C20.0722 34.2386 16.3245 31.2482 14.9877 27.23H9.30814V31.6345C12.1054 37.1905 17.8545 41 24.5 41Z" fill="#34A853"/>
<path fill-rule="evenodd" clip-rule="evenodd" d="M14.9877 27.2303C14.6477 26.2103 14.4545 25.1207 14.4545 24.0003C14.4545 22.8798 14.6477 21.7903 14.9877 20.7703V16.3657H9.30814C8.15677 18.6607 7.49995 21.2571 7.49995 24.0003C7.49995 26.7435 8.15677 29.3398 9.30814 31.6348L14.9877 27.2303Z" fill="#FBBC05"/>
<path fill-rule="evenodd" clip-rule="evenodd" d="M24.5 13.7614C26.9959 13.7614 29.2368 14.6191 30.9986 16.3037L35.8745 11.4277C32.9304 8.68455 29.0823 7 24.5 7C17.8545 7 12.1054 10.8096 9.30814 16.3655L14.9877 20.77C16.3245 16.7518 20.0722 13.7614 24.5 13.7614Z" fill="#EA4335"/>
</svg>
