<svg width="30" height="29" viewBox="0 0 30 29" fill="none" xmlns="http://www.w3.org/2000/svg">
<g filter="url(#filter0_d_2185_44512)">
<rect x="3" y="2" width="24" height="24" rx="6.5536" fill="#CBC2F5"/>
<path fill-rule="evenodd" clip-rule="evenodd" d="M16.8538 15.9929H13.0138C12.8371 15.9929 12.6938 16.1362 12.6938 16.3129V19.408C12.6938 19.526 12.7588 19.6344 12.8629 19.6901C12.9669 19.7458 13.0931 19.7397 13.1913 19.6742L14.9338 18.5126L16.6764 19.6742C16.7747 19.7398 16.901 19.7457 17.0048 19.6901C17.1089 19.6344 17.1738 19.526 17.1738 19.408V16.3129C17.1738 16.1362 17.0306 15.9929 16.8538 15.9929Z" fill="url(#paint0_linear_2185_44512)"/>
<path d="M14.9339 17.147C12.6401 17.147 10.7739 15.2808 10.7739 12.987C10.7739 10.6814 12.6401 8.80566 14.9339 8.80566C17.2277 8.80566 19.0939 10.6814 19.0939 12.987C19.0939 15.2808 17.2277 17.147 14.9339 17.147Z" fill="#EAE6FF"/>
<path fill-rule="evenodd" clip-rule="evenodd" d="M15.9132 14.8234L14.9336 14.3084L13.954 14.8234C13.8461 14.8801 13.7155 14.8706 13.617 14.799C13.5185 14.7274 13.4691 14.6061 13.4897 14.486L13.6768 13.3952L12.8842 12.6227C12.797 12.5377 12.7656 12.4105 12.8033 12.2946C12.8409 12.1788 12.941 12.0944 13.0616 12.0769L14.1569 11.9177L14.6467 10.9252C14.7006 10.816 14.8118 10.7468 14.9336 10.7468C15.0554 10.7468 15.1667 10.816 15.2206 10.9252L15.7104 11.9177L16.8057 12.0768C16.9262 12.0943 17.0263 12.1788 17.064 12.2946C17.1016 12.4105 17.0702 12.5376 16.983 12.6226L16.1905 13.3952L16.3776 14.486C16.3982 14.6061 16.3488 14.7274 16.2503 14.799C16.1527 14.87 16.022 14.8806 15.9132 14.8234Z" fill="url(#paint1_linear_2185_44512)"/>
</g>
<defs>
<filter id="filter0_d_2185_44512" x="0.6" y="0.2" width="28.8" height="28.8" filterUnits="userSpaceOnUse" color-interpolation-filters="sRGB">
<feFlood flood-opacity="0" result="BackgroundImageFix"/>
<feColorMatrix in="SourceAlpha" type="matrix" values="0 0 0 0 0 0 0 0 0 0 0 0 0 0 0 0 0 0 127 0" result="hardAlpha"/>
<feOffset dy="0.6"/>
<feGaussianBlur stdDeviation="1.2"/>
<feColorMatrix type="matrix" values="0 0 0 0 0 0 0 0 0 0 0 0 0 0 0 0 0 0 0.2 0"/>
<feBlend mode="normal" in2="BackgroundImageFix" result="effect1_dropShadow_2185_44512"/>
<feBlend mode="normal" in="SourceGraphic" in2="effect1_dropShadow_2185_44512" result="shape"/>
</filter>
<linearGradient id="paint0_linear_2185_44512" x1="12.6938" y1="15.9929" x2="12.6938" y2="19.728" gradientUnits="userSpaceOnUse">
<stop stop-color="#8A78D5"/>
<stop offset="1" stop-color="#5243AA"/>
</linearGradient>
<linearGradient id="paint1_linear_2185_44512" x1="12.7876" y1="10.7468" x2="12.7876" y2="14.8601" gradientUnits="userSpaceOnUse">
<stop stop-color="#8A78D5"/>
<stop offset="1" stop-color="#5243AA"/>
</linearGradient>
</defs>
</svg>
