<svg width="30" height="29" viewBox="0 0 30 29" fill="none" xmlns="http://www.w3.org/2000/svg">
<g filter="url(#filter0_d_2185_44544)">
<rect x="3" y="2" width="24" height="24" rx="6" fill="#FFF4DB"/>
<path fill-rule="evenodd" clip-rule="evenodd" d="M14.8 9.35156C12.0854 9.35156 9.88477 11.5522 9.88477 14.2668C9.88477 16.9814 12.0854 19.182 14.8 19.182C17.5146 19.182 19.7152 16.9814 19.7152 14.2668C19.7152 11.5522 17.5146 9.35156 14.8 9.35156ZM18.5791 13.721H17.1755C17.1451 12.7365 16.9263 11.7669 16.5311 10.8647C17.6369 11.4279 18.4004 12.4929 18.5791 13.721ZM14.8002 18.0898H15.046C15.543 17.7676 16.1164 16.5715 16.2147 14.813H13.3857C13.4622 16.5824 14.0575 17.7785 14.5545 18.0898H14.8002ZM13.4074 13.7206C13.5057 11.962 14.0792 10.766 14.5761 10.4438H14.8001H15.0458C15.5428 10.755 16.1381 11.9511 16.2145 13.7206H13.4074ZM12.4245 13.721C12.4549 12.7365 12.6736 11.7669 13.0689 10.8647C11.9631 11.4279 11.1995 12.4929 11.0209 13.721H12.4245ZM11.0209 14.813H12.4245C12.4549 15.7975 12.6736 16.767 13.0689 17.6692C11.9631 17.106 11.1995 16.041 11.0209 14.813ZM17.1755 14.813C17.1451 15.7975 16.9263 16.767 16.5311 17.6692C17.6369 17.106 18.4004 16.041 18.5791 14.813H17.1755Z" fill="#FFC75D"/>
</g>
<defs>
<filter id="filter0_d_2185_44544" x="0.6" y="0.2" width="28.8" height="28.8" filterUnits="userSpaceOnUse" color-interpolation-filters="sRGB">
<feFlood flood-opacity="0" result="BackgroundImageFix"/>
<feColorMatrix in="SourceAlpha" type="matrix" values="0 0 0 0 0 0 0 0 0 0 0 0 0 0 0 0 0 0 127 0" result="hardAlpha"/>
<feOffset dy="0.6"/>
<feGaussianBlur stdDeviation="1.2"/>
<feColorMatrix type="matrix" values="0 0 0 0 0 0 0 0 0 0 0 0 0 0 0 0 0 0 0.2 0"/>
<feBlend mode="normal" in2="BackgroundImageFix" result="effect1_dropShadow_2185_44544"/>
<feBlend mode="normal" in="SourceGraphic" in2="effect1_dropShadow_2185_44544" result="shape"/>
</filter>
</defs>
</svg>
