<svg width="24" height="24" viewBox="0 0 24 24" fill="none" xmlns="http://www.w3.org/2000/svg">
<rect width="24" height="24" rx="6" fill="#F3EFFF"/>
<path fill-rule="evenodd" clip-rule="evenodd" d="M16.0233 9.53634H8.92356C8.62194 9.53634 8.37742 9.29183 8.37742 8.99021C8.37742 8.68859 8.62194 8.44407 8.92356 8.44407H16.0233C16.0233 7.84083 15.5343 7.35181 14.931 7.35181H8.92356C8.01869 7.35181 7.28516 8.08534 7.28516 8.99021V16.0899C7.28516 16.6932 7.77418 17.1822 8.37742 17.1822H16.0233C16.6265 17.1822 17.1156 16.6932 17.1156 16.0899V10.6286C17.1156 10.0254 16.6265 9.53634 16.0233 9.53634ZM16.0236 14.9979H12.2006C11.899 14.9979 11.6545 14.7534 11.6545 14.4518V12.2673C11.6545 11.9657 11.899 11.7211 12.2006 11.7211H16.0236V14.9979ZM13.5659 13.9056H13.0197C12.8689 13.9056 12.7467 13.7833 12.7467 13.6325V13.0864C12.7467 12.9356 12.8689 12.8133 13.0197 12.8133H13.5659C13.7167 12.8133 13.8389 12.9356 13.8389 13.0864V13.6325C13.8389 13.7833 13.7167 13.9056 13.5659 13.9056Z" fill="#6B3BED"/>
</svg>
