<svg width="24" height="24" viewBox="0 0 24 24" fill="none" xmlns="http://www.w3.org/2000/svg">
<path d="M20.3473 9.45702C20.0863 9.04294 19.8072 8.65586 19.5192 8.29579C19.4406 8.19617 19.3419 8.11429 19.2294 8.05552C19.117 7.99675 18.9934 7.96241 18.8667 7.95476C18.7401 7.94711 18.6132 7.96632 18.4945 8.01113C18.3758 8.05594 18.2679 8.12534 18.1779 8.21478L15.4774 10.9153C15.6754 11.5094 15.7114 12.1936 15.5314 12.9047C15.3706 13.534 15.0433 14.1085 14.584 14.5678C14.1247 15.0271 13.5502 15.3543 12.9209 15.5152C12.2098 15.6952 11.5256 15.6592 10.9315 15.4612L8.71708 17.6756C8.26699 18.1257 8.41102 18.9179 9.01414 19.1519C9.97733 19.521 10.9765 19.71 12.0027 19.71C13.605 19.71 15.1623 19.2419 16.5846 18.3688C18.0339 17.4686 19.3391 16.1453 20.3924 14.462C21.2475 13.1027 21.2025 10.8163 20.3473 9.45702Z" fill="#82869E"/>
<path d="M13.8201 10.18L10.1834 13.8167C9.7243 13.3486 9.42725 12.7005 9.42725 11.9983C9.42725 10.5851 10.5795 9.42383 12.0017 9.42383C12.7039 9.42383 13.352 9.72089 13.8201 10.18Z" fill="#82869E"/>
<path d="M17.6278 6.37161L14.5763 9.4232C14.2396 9.0835 13.8384 8.81454 13.3963 8.63213C12.9541 8.44971 12.48 8.35753 12.0018 8.361C9.98536 8.361 8.36505 9.99031 8.36505 11.9977C8.36505 13.0059 8.77012 13.9151 9.42725 14.5722L6.38466 17.6238H6.37566C5.37646 16.8136 4.45828 15.7784 3.67513 14.5542C2.77496 13.1409 2.77496 10.8455 3.67513 9.43221C4.71933 7.79389 5.99758 6.50664 7.41986 5.62446C8.84214 4.7603 10.3994 4.2832 12.0018 4.2832C14.0091 4.2832 15.9535 5.02135 17.6278 6.37161Z" fill="#82869E"/>
<path d="M14.5745 11.9968C14.5745 13.4101 13.4222 14.5713 12 14.5713C11.9459 14.5713 11.9009 14.5713 11.8469 14.5533L14.5565 11.8438C14.5745 11.8978 14.5745 11.9428 14.5745 11.9968Z" fill="#82869E"/>
<path d="M20.7955 3.20254C20.5255 2.93249 20.0844 2.93249 19.8143 3.20254L3.20608 19.8198C2.93603 20.0898 2.93603 20.5309 3.20608 20.801C3.27016 20.8648 3.34631 20.9153 3.43008 20.9495C3.51386 20.9836 3.60359 21.0008 3.69406 21C3.78453 20.9991 3.87393 20.9803 3.95706 20.9446C4.04018 20.9089 4.11538 20.857 4.17827 20.792L20.7955 4.17473C21.0746 3.90468 21.0746 3.47259 20.7955 3.20254Z" fill="#82869E"/>
</svg>
