<svg width="24" height="24" viewBox="0 0 24 24" fill="none" xmlns="http://www.w3.org/2000/svg">
<path d="M20.9802 9.34267C18.8225 5.95213 15.6655 4 12.3403 4C10.6778 4 9.06188 4.4857 7.58611 5.39171C6.11033 6.30706 4.784 7.64273 3.70053 9.34267C2.76649 10.8091 2.76649 13.1909 3.70053 14.6573C5.85814 18.0572 9.01518 20 12.3403 20C14.0029 20 15.6188 19.5143 17.0946 18.6083C18.5703 17.6929 19.8967 16.3573 20.9802 14.6573C21.9142 13.2002 21.9142 10.8091 20.9802 9.34267V9.34267ZM12.3403 15.7782C10.2481 15.7782 8.56684 14.0876 8.56684 12.0047C8.56684 9.92177 10.2481 8.23117 12.3403 8.23117C14.4326 8.23117 16.1138 9.92177 16.1138 12.0047C16.1138 14.0876 14.4326 15.7782 12.3403 15.7782Z" fill="#82869E"/>
<path d="M12.3384 9.33398C11.6312 9.33398 10.9529 9.61494 10.4528 10.115C9.9527 10.6151 9.67175 11.2934 9.67175 12.0007C9.67175 12.7079 9.9527 13.3862 10.4528 13.8863C10.9529 14.3864 11.6312 14.6673 12.3384 14.6673C13.8049 14.6673 15.0098 13.4718 15.0098 12.0053C15.0098 10.5389 13.8049 9.33398 12.3384 9.33398V9.33398Z" fill="#82869E"/>
</svg>
