<svg width="25" height="24" viewBox="0 0 25 24" fill="none" xmlns="http://www.w3.org/2000/svg">
<path fill-rule="evenodd" clip-rule="evenodd" d="M18.4674 4.43359C18.4674 4.01938 18.1316 3.68359 17.7174 3.68359C17.3032 3.68359 16.9674 4.01938 16.9674 4.43359V4.99902H8.03261V4.43359C8.03261 4.01938 7.69682 3.68359 7.28261 3.68359C6.86839 3.68359 6.53261 4.01938 6.53261 4.43359V4.99902H5.25C3.73122 4.99902 2.5 6.23024 2.5 7.74902V18.249C2.5 19.7678 3.73122 20.999 5.25 20.999H19.75C21.2688 20.999 22.5 19.7678 22.5 18.249V7.74902C22.5 6.23024 21.2688 4.99902 19.75 4.99902H18.4674V4.43359ZM6.53261 6.49902H5.25C4.55964 6.49902 4 7.05867 4 7.74902V9.24902H21V7.74902C21 7.05867 20.4404 6.49902 19.75 6.49902H18.4674V7.04229C18.4674 7.4565 18.1316 7.79229 17.7174 7.79229C17.3032 7.79229 16.9674 7.4565 16.9674 7.04229V6.49902H8.03261V7.04229C8.03261 7.4565 7.69682 7.79229 7.28261 7.79229C6.86839 7.79229 6.53261 7.4565 6.53261 7.04229V6.49902ZM4 10.749H21V18.249C21 18.9394 20.4404 19.499 19.75 19.499H5.25C4.55964 19.499 4 18.9394 4 18.249V10.749Z" fill="#82869E"/>
</svg>
