<svg width="24" height="24" viewBox="0 0 24 24" fill="none" xmlns="http://www.w3.org/2000/svg">
<path fill-rule="evenodd" clip-rule="evenodd" d="M12.2936 18.5165C12.106 18.4367 11.894 18.4367 11.7064 18.5165L6.97042 20.5315C6.4493 20.7532 5.87987 20.3395 5.9297 19.7754L6.38257 14.6486C6.40051 14.4455 6.33499 14.2438 6.2011 14.0901L2.82125 10.2086C2.44935 9.78146 2.66685 9.11206 3.21877 8.98513L8.23461 7.83156C8.43331 7.78586 8.60485 7.66123 8.70971 7.48638L11.3568 3.0725C11.6481 2.58682 12.3519 2.58682 12.6432 3.0725L15.2903 7.48638C15.3952 7.66123 15.5667 7.78586 15.7654 7.83156L20.7812 8.98513C21.3332 9.11206 21.5507 9.78146 21.1788 10.2086L17.7989 14.0901C17.665 14.2438 17.5995 14.4455 17.6174 14.6486L18.0703 19.7754C18.1201 20.3395 17.5507 20.7532 17.0296 20.5315L12.2936 18.5165Z" fill="#FFE040"/>
</svg>
