<svg width="24" height="24" viewBox="0 0 24 24" fill="none" xmlns="http://www.w3.org/2000/svg">
<path fill-rule="evenodd" clip-rule="evenodd" d="M6.81304 5.75238C6.52015 5.45949 6.04528 5.45949 5.75238 5.75238C5.45949 6.04528 5.45949 6.52015 5.75238 6.81304L10.8789 11.9396L5.75241 17.0661C5.45952 17.359 5.45952 17.8339 5.75241 18.1268C6.0453 18.4196 6.52018 18.4196 6.81307 18.1268L11.9396 13.0002L17.0661 18.1268C17.359 18.4196 17.8339 18.4196 18.1268 18.1268C18.4196 17.8339 18.4196 17.359 18.1268 17.0661L13.0002 11.9396L18.1268 6.81304C18.4197 6.52015 18.4197 6.04528 18.1268 5.75238C17.8339 5.45949 17.359 5.45949 17.0661 5.75238L11.9396 10.8789L6.81304 5.75238Z" fill="#434657"/>
</svg>
