<svg width="37" height="35" viewBox="0 0 37 35" fill="none" xmlns="http://www.w3.org/2000/svg">
<path d="M35.59 20C35.1771 19.4828 34.5767 19.1495 33.9194 19.0727C33.262 18.9959 32.6009 19.1818 32.08 19.59L25 25.12C24.6495 25.3967 24.2165 25.548 23.77 25.55H18.7C18.3685 25.55 18.0505 25.4184 17.8161 25.1839C17.5817 24.9495 17.45 24.6316 17.45 24.3C17.45 23.9685 17.5817 23.6506 17.8161 23.4162C18.0505 23.1817 18.3685 23.05 18.7 23.05H23C23.663 23.05 24.2989 22.7867 24.7677 22.3178C25.2366 21.849 25.5 21.2131 25.5 20.55C25.5 19.887 25.2366 19.2511 24.7677 18.7823C24.2989 18.3134 23.663 18.05 23 18.05H12.55C11.2082 18.051 9.9055 18.5017 8.84998 19.33L5.37998 22.06C5.27543 22.1411 5.20726 22.2603 5.19039 22.3915C5.17353 22.5227 5.20933 22.6552 5.28998 22.76L12 31.3C12.0455 31.3601 12.1045 31.4086 12.1723 31.4416C12.24 31.4746 12.3146 31.4912 12.39 31.4901L20.54 31.5601H22.8C24.1681 31.5692 25.4983 31.1105 26.57 30.26L35.14 23.49C35.6576 23.0835 35.9948 22.4899 36.079 21.8371C36.1631 21.1843 35.9875 20.5246 35.59 20Z" fill="#F473B9"/>
<path d="M3.32999 24.32C3.28996 24.2679 3.23985 24.2243 3.18263 24.192C3.12542 24.1596 3.06227 24.1391 2.99696 24.1316C2.93164 24.1241 2.8655 24.1299 2.80245 24.1485C2.73941 24.1672 2.68076 24.1983 2.62999 24.24L1.05999 25.48C1.00785 25.5201 0.964291 25.5702 0.931917 25.6274C0.899542 25.6846 0.879011 25.7478 0.871547 25.8131C0.864082 25.8784 0.869837 25.9445 0.888468 26.0076C0.907099 26.0706 0.938225 26.1293 0.979993 26.18L7.55999 34.51C7.64249 34.6131 7.76238 34.6793 7.89351 34.6943C8.02464 34.7093 8.15638 34.6718 8.25999 34.59L9.82999 33.35C9.93454 33.269 10.0027 33.1498 10.0196 33.0186C10.0364 32.8874 10.0006 32.7549 9.91999 32.6501L3.32999 24.32ZM29 0.300049L21.5 7.80005L18 4.30005L15 7.30005L21.5 13.8L32 3.30005L29 0.300049Z" fill="#F473B9"/>
</svg>
