<svg width="37" height="41" viewBox="0 0 37 41" fill="none" xmlns="http://www.w3.org/2000/svg">
<path d="M34.66 8.66997C28.35 7.88997 22.28 3.16997 19.74 0.999969C19.3942 0.704852 18.9546 0.542725 18.5 0.542725C18.0454 0.542725 17.6058 0.704852 17.26 0.999969C14.72 3.20997 8.65 7.92997 2.34 8.70997C1.85578 8.76743 1.41096 9.00512 1.09409 9.37574C0.777212 9.74635 0.611521 10.2227 0.63 10.71C1.41 29.84 14 38.26 17.57 40.26C17.8546 40.4176 18.1747 40.5002 18.5 40.5002C18.8253 40.5002 19.1454 40.4176 19.43 40.26C22.98 38.26 35.59 29.84 36.37 10.66C36.3859 10.1744 36.2191 9.70053 35.9024 9.33205C35.5858 8.96357 35.1424 8.72731 34.66 8.66997ZM18.5 30C16.6182 30.0019 14.7782 29.4456 13.2128 28.4014C11.6473 27.3572 10.4269 25.872 9.70582 24.1339C8.9848 22.3958 8.79562 20.4828 9.16225 18.6371C9.52888 16.7914 10.4348 15.096 11.7654 13.7654C13.096 12.4348 14.7915 11.5288 16.6371 11.1622C18.4828 10.7956 20.3958 10.9848 22.1339 11.7058C23.8721 12.4268 25.3572 13.6473 26.4014 15.2127C27.4457 16.7782 28.002 18.6182 28 20.5C27.9974 23.0187 26.9956 25.4335 25.2146 27.2146C23.4336 28.9956 21.0187 29.9973 18.5 30Z" fill="#F473B9"/>
<path d="M22.7 15.6899L17.03 21.3599L14.27 18.5999L12.31 20.5599L15.07 23.3199L17.06 25.3099L19.02 23.3499L24.69 17.6799L22.7 15.6899Z" fill="#F473B9"/>
</svg>
