<svg width="24" height="24" viewBox="0 0 24 24" fill="none" xmlns="http://www.w3.org/2000/svg">
<path fill-rule="evenodd" clip-rule="evenodd" d="M12 20.5C16.6944 20.5 20.5 16.6944 20.5 12C20.5 7.30558 16.6944 3.5 12 3.5C7.30558 3.5 3.5 7.30558 3.5 12C3.5 16.6944 7.30558 20.5 12 20.5ZM22 12C22 17.5228 17.5228 22 12 22C6.47715 22 2 17.5228 2 12C2 6.47715 6.47715 2 12 2C17.5228 2 22 6.47715 22 12ZM12 17.2954C11.5858 17.2954 11.25 16.9596 11.25 16.5454V11.0909C11.25 10.6767 11.5858 10.3409 12 10.3409C12.4142 10.3409 12.75 10.6767 12.75 11.0909V16.5454C12.75 16.9596 12.4142 17.2954 12 17.2954ZM11 7.45459C11 6.90231 11.4477 6.45459 12 6.45459C12.5523 6.45459 13 6.90231 13 7.45459C13 8.00687 12.5523 8.45459 12 8.45459C11.4477 8.45459 11 8.00687 11 7.45459Z" fill="#82869E"/>
</svg>
