<svg width="17" height="16" viewBox="0 0 17 16" fill="none" xmlns="http://www.w3.org/2000/svg">
<path d="M12.8933 11.0734L12.1113 10.2914C11.9238 10.1039 11.6695 9.99857 11.4043 9.99857C11.1392 9.99857 10.8849 10.1039 10.6973 10.2914L10.0827 10.906C10.0162 10.9741 9.9308 11.0205 9.83757 11.0393C9.74434 11.0581 9.64762 11.0483 9.56 11.0114C8.66933 10.6214 7.78933 10.03 7.00466 9.24536C6.26555 8.51309 5.66838 7.65034 5.24333 6.70069C5.20482 6.61017 5.19453 6.51014 5.2138 6.41367C5.23307 6.31721 5.281 6.2288 5.35133 6.16002L5.902 5.60936C6.34933 5.16202 6.34933 4.52936 5.95866 4.13869L5.17666 3.35669C4.92663 3.10673 4.58755 2.96631 4.234 2.96631C3.88044 2.96631 3.54137 3.10673 3.29133 3.35669L2.85666 3.79069C2.36266 4.28469 2.15666 4.99736 2.29 5.70402C2.61933 7.44602 3.63133 9.35336 5.264 10.986C6.89666 12.6187 8.804 13.6307 10.546 13.96C11.2527 14.0934 11.9653 13.8874 12.4593 13.3934L12.8933 12.9594C13.0172 12.8355 13.1155 12.6885 13.1825 12.5267C13.2495 12.3649 13.284 12.1915 13.284 12.0164C13.284 11.8412 13.2495 11.6678 13.1825 11.506C13.1155 11.3442 13.0172 11.1972 12.8933 11.0734V11.0734Z" stroke="#0E3EDA" stroke-linecap="round" stroke-linejoin="round"/>
<path d="M8.91666 4.66051C9.26923 4.65472 9.61936 4.7199 9.94623 4.85218C10.2731 4.98446 10.57 5.18114 10.8193 5.43051" stroke="#0E3EDA" stroke-linecap="round" stroke-linejoin="round"/>
<path d="M12.7047 3.54541C12.2077 3.04721 11.6173 2.65211 10.9672 2.38279C10.3172 2.11348 9.6203 1.97526 8.91666 1.97608" stroke="#0E3EDA" stroke-linecap="round" stroke-linejoin="round"/>
<path d="M11.5893 7.33333C11.5951 6.98076 11.5299 6.63062 11.3977 6.30376C11.2654 5.97689 11.0687 5.67997 10.8193 5.43066" stroke="#0E3EDA" stroke-linecap="round" stroke-linejoin="round"/>
<path d="M12.7047 3.54541C13.2028 4.04232 13.598 4.63276 13.8673 5.28283C14.1366 5.93289 14.2748 6.62977 14.274 7.33341" stroke="#0E3EDA" stroke-linecap="round" stroke-linejoin="round"/>
</svg>
