<svg width="14" height="14" viewBox="0 0 14 14" fill="none" xmlns="http://www.w3.org/2000/svg">
<path d="M13.25 4.33333V9.66667C13.25 10.5507 12.8988 11.3986 12.2737 12.0237C11.6486 12.6488 10.8007 13 9.91667 13H4.58333C3.69928 13 2.85143 12.6488 2.22631 12.0237C1.60119 11.3986 1.25 10.5507 1.25 9.66667V4.33333C1.25 3.44928 1.60119 2.60143 2.22631 1.97631C2.85143 1.35119 3.69928 1 4.58333 1H9.91667C10.8007 1 11.6486 1.35119 12.2737 1.97631C12.8988 2.60143 13.25 3.44928 13.25 4.33333Z" stroke="#0E3EDA" stroke-linecap="round" stroke-linejoin="round"/>
<path d="M5.91666 7C5.52109 7 5.13442 7.1173 4.80552 7.33706C4.47662 7.55682 4.22027 7.86918 4.0689 8.23463C3.91752 8.60009 3.87792 9.00222 3.95509 9.39018C4.03226 9.77814 4.22274 10.1345 4.50244 10.4142C4.78215 10.6939 5.13851 10.8844 5.52648 10.9616C5.91444 11.0387 6.31657 10.9991 6.68202 10.8478C7.04748 10.6964 7.35983 10.44 7.5796 10.1111C7.79936 9.78224 7.91666 9.39556 7.91666 9V3C8.13866 3.66667 8.98332 5 10.5833 5" stroke="#0E3EDA" stroke-linecap="round" stroke-linejoin="round"/>
</svg>
