<svg width="14" height="14" viewBox="0 0 14 14" fill="none" xmlns="http://www.w3.org/2000/svg">
<g clip-path="url(#clip0_785_8324)">
<path d="M12.2056 0.333361H2.29039C2.06159 0.316653 1.83188 0.349487 1.61692 0.429622C1.40196 0.509757 1.20681 0.635309 1.04479 0.797715C0.882758 0.960121 0.757662 1.15556 0.678028 1.37071C0.598395 1.58585 0.566098 1.81564 0.583339 2.0444V11.9596C0.567433 12.187 0.600444 12.4152 0.680149 12.6288C0.759854 12.8424 0.884402 13.0364 1.0454 13.1977C1.2064 13.3591 1.40012 13.4841 1.6135 13.5643C1.82688 13.6445 2.05497 13.6781 2.28241 13.6627H12.2136C12.441 13.6781 12.6691 13.6445 12.8825 13.5643C13.0959 13.4841 13.2896 13.3591 13.4506 13.1977C13.6116 13.0364 13.7362 12.8424 13.8159 12.6288C13.8956 12.4152 13.9286 12.187 13.9127 11.9596V2.04839C13.9305 1.81931 13.8987 1.58907 13.8193 1.37344C13.74 1.15781 13.615 0.961862 13.4529 0.799008C13.2908 0.636155 13.0954 0.510238 12.8801 0.42987C12.6649 0.349503 12.4348 0.316582 12.2056 0.333361V0.333361ZM5.13015 1.01937C5.15446 0.999448 5.18251 0.984595 5.21265 0.975689C5.24279 0.966784 5.27441 0.964007 5.30564 0.967522H12.3053C12.4377 0.963264 12.5695 0.986873 12.6922 1.03682C12.8149 1.08676 12.9257 1.16193 13.0174 1.25745C13.1092 1.35296 13.1798 1.46669 13.2248 1.59127C13.2698 1.71584 13.2881 1.84848 13.2785 1.98058V8.43786C13.2785 8.95237 13.2785 9.46687 13.2785 9.98138C13.2815 10.0208 13.2724 10.0603 13.2524 10.0945C13.2325 10.1287 13.2027 10.156 13.1668 10.1728C11.8647 10.9311 10.3525 11.2486 8.85535 11.0782C8.24941 11.0212 7.65456 10.8789 7.08847 10.6554C6.8602 10.5649 6.61591 10.5218 6.37044 10.5286C6.12498 10.5355 5.88347 10.5922 5.66061 10.6953C5.33092 10.8607 4.98285 10.9865 4.62362 11.0702C4.85036 10.7668 4.98843 10.4065 5.02247 10.0292C5.04394 9.86246 5.02748 9.69298 4.9743 9.53345C4.92113 9.37392 4.83261 9.22845 4.71536 9.10791C4.14898 8.54921 3.71438 7.87119 3.44322 7.12325C3.17206 6.37532 3.07117 5.57631 3.1479 4.78445C3.21343 4.0571 3.42233 3.34992 3.76255 2.7037C4.10277 2.05749 4.56758 1.48504 5.13015 1.01937V1.01937ZM13.2745 12.1152C13.2705 12.2415 13.2412 12.3656 13.1883 12.4804C13.1355 12.5951 13.0602 12.6981 12.9669 12.7833C12.8735 12.8684 12.7641 12.934 12.645 12.9761C12.5259 13.0182 12.3995 13.0361 12.2734 13.0285H2.30235C2.15745 13.0451 2.01068 13.0287 1.87298 12.9807C1.73528 12.9326 1.61021 12.8541 1.50708 12.7509C1.40395 12.6478 1.32542 12.5227 1.27736 12.385C1.22929 12.2473 1.21292 12.1006 1.22947 11.9557V2.0444C1.21238 1.89955 1.2282 1.75272 1.27576 1.61484C1.32331 1.47697 1.40137 1.3516 1.50412 1.24809C1.60686 1.14457 1.73165 1.06558 1.86917 1.01701C2.00669 0.968427 2.1534 0.951512 2.29837 0.967522H4.2168C4.2168 1.04729 4.16096 1.07521 4.12507 1.11509C3.53833 1.74167 3.09241 2.48652 2.81725 3.29962C2.54209 4.11273 2.44404 4.9753 2.52969 5.82942C2.65314 7.18045 3.23757 8.44789 4.18489 9.41901C4.27788 9.50902 4.34449 9.62274 4.37753 9.74787C4.41057 9.87299 4.40878 10.0048 4.37235 10.129C4.34881 10.3416 4.26868 10.5441 4.14031 10.7152C4.01194 10.8864 3.84002 11.02 3.64247 11.1021C3.57465 11.1242 3.51748 11.1708 3.48209 11.2327C3.4467 11.2946 3.43563 11.3675 3.45102 11.4372C3.45818 11.5073 3.48958 11.5728 3.53981 11.6223C3.59004 11.6718 3.65596 11.7022 3.72622 11.7084C4.26218 11.8123 4.81684 11.7569 5.3216 11.5488L6.02755 11.2457C6.1529 11.1891 6.28886 11.1598 6.42639 11.1598C6.56393 11.1598 6.69989 11.1891 6.82524 11.2457C7.91649 11.6735 9.09097 11.8468 10.2593 11.7522C11.2575 11.6802 12.2312 11.409 13.123 10.9546L13.3064 10.8668C13.2785 11.2896 13.2905 11.7044 13.2745 12.1152Z" fill="#0E3EDA"/>
<path d="M4.92276 4.76038C4.99703 4.77884 5.07374 4.78557 5.1501 4.78032H6.03553L5.93183 4.95581L4.78715 6.78252C4.74416 6.83336 4.71772 6.89611 4.71136 6.96239C4.70499 7.02866 4.719 7.0953 4.75152 7.1534C4.78403 7.21149 4.83351 7.25828 4.89333 7.28751C4.95315 7.31674 5.02047 7.32702 5.08628 7.31697C5.57686 7.31697 6.06744 7.31697 6.55801 7.31697C6.79333 7.31697 6.93293 7.19332 6.93293 6.99789C6.93293 6.80246 6.79333 6.6828 6.53408 6.6828H5.62472C5.6348 6.6205 5.66247 6.56238 5.70449 6.51529L6.56599 5.11934C6.67368 4.95182 6.78137 4.78431 6.88108 4.61281C6.91201 4.56775 6.93019 4.51516 6.93369 4.46062C6.93718 4.40607 6.92587 4.3516 6.90093 4.30296C6.876 4.25432 6.83838 4.21333 6.79206 4.18432C6.74573 4.15531 6.69243 4.13937 6.63778 4.13818C6.09137 4.13818 5.54096 4.13818 4.99056 4.13818C4.91893 4.13815 4.85012 4.16605 4.79873 4.21595C4.74734 4.26585 4.71743 4.33381 4.71536 4.40541C4.69994 4.47975 4.7126 4.55716 4.7509 4.62272C4.7892 4.68827 4.85042 4.73731 4.92276 4.76038Z" fill="#0E3EDA"/>
<path d="M8.45653 7.22952C8.50838 7.20559 8.55624 7.16172 8.62006 7.22952C8.66405 7.27782 8.72319 7.30967 8.78773 7.31982C8.85226 7.32997 8.91833 7.31782 8.97503 7.28536C9.03297 7.25599 9.08071 7.20982 9.11201 7.1529C9.14332 7.09598 9.15674 7.03095 9.15052 6.96629C9.15052 6.71501 9.15052 6.46374 9.15052 6.21247C9.15052 5.94525 9.15052 5.67403 9.15052 5.41478C9.15656 5.35121 9.14094 5.28746 9.10619 5.23388C9.07143 5.1803 9.01959 5.14004 8.95907 5.11964C8.90797 5.0896 8.84852 5.07687 8.78959 5.08333C8.73066 5.0898 8.6754 5.11513 8.63202 5.15554C8.56023 5.22334 8.50838 5.2034 8.43659 5.15554C8.30208 5.09644 8.15675 5.06592 8.00983 5.06592C7.8629 5.06592 7.71758 5.09644 7.58306 5.15554C7.3128 5.26978 7.09898 5.48671 6.98866 5.75859C6.87833 6.03048 6.88053 6.33507 6.99477 6.60533C7.10901 6.8756 7.32594 7.08942 7.59783 7.19974C7.86972 7.31007 8.1743 7.30787 8.44457 7.19363L8.45653 7.22952ZM8.03376 5.73386C8.09652 5.73168 8.15907 5.74231 8.21759 5.76509C8.27612 5.78787 8.32939 5.82232 8.37417 5.86635C8.41895 5.91039 8.4543 5.96307 8.47806 6.02121C8.50181 6.07934 8.51349 6.1417 8.51237 6.20449C8.51398 6.26711 8.50296 6.32941 8.47998 6.38768C8.457 6.44595 8.42253 6.499 8.37861 6.54366C8.33469 6.58833 8.28223 6.62369 8.22435 6.64765C8.16648 6.6716 8.10437 6.68366 8.04173 6.68311C7.97888 6.68259 7.91675 6.66969 7.85888 6.64515C7.80101 6.62062 7.74854 6.58492 7.70447 6.54011C7.66039 6.4953 7.62558 6.44224 7.60201 6.38397C7.57844 6.3257 7.56658 6.26336 7.56711 6.20051C7.56711 6.13923 7.57918 6.07854 7.60263 6.02193C7.62608 5.96531 7.66046 5.91387 7.70379 5.87054C7.74712 5.82721 7.79856 5.79283 7.85518 5.76938C7.9118 5.74593 7.97248 5.73386 8.03376 5.73386Z" fill="#0E3EDA"/>
<path d="M11.5316 7.31278C11.7506 7.31199 11.9644 7.24639 12.1461 7.12425C12.3278 7.00211 12.4693 6.82891 12.5527 6.62647C12.6362 6.42403 12.6578 6.20142 12.6149 5.98671C12.572 5.772 12.4665 5.5748 12.3116 5.41997C12.1568 5.26514 11.9596 5.15963 11.7449 5.11672C11.5302 5.07381 11.3076 5.09543 11.1051 5.17885C10.9027 5.26228 10.7295 5.40378 10.6073 5.5855C10.4852 5.76723 10.4196 5.98105 10.4188 6.2C10.4199 6.49481 10.5375 6.77723 10.7459 6.98569C10.9544 7.19415 11.2368 7.31173 11.5316 7.31278ZM11.5316 5.7174C11.5929 5.71844 11.6534 5.73154 11.7096 5.75596C11.7658 5.78038 11.8167 5.81563 11.8592 5.8597C11.9018 5.90378 11.9353 5.95581 11.9578 6.01283C11.9803 6.06985 11.9913 6.13074 11.9903 6.19203C11.9903 6.31791 11.9403 6.43863 11.8513 6.52764C11.7622 6.61665 11.6415 6.66665 11.5156 6.66665C11.3898 6.66665 11.269 6.61665 11.18 6.52764C11.091 6.43863 11.041 6.31791 11.041 6.19203C11.0425 6.1281 11.0569 6.06513 11.0835 6.00697C11.1101 5.94881 11.1482 5.89667 11.1956 5.85375C11.243 5.81083 11.2987 5.77801 11.3592 5.75731C11.4197 5.73662 11.4838 5.72846 11.5475 5.73336L11.5316 5.7174Z" fill="#0E3EDA"/>
<path d="M9.78465 7.31736C9.98407 7.31736 10.0997 7.18574 10.0997 6.91852C10.0997 6.46384 10.0997 6.00916 10.0997 5.55447C10.0997 5.09979 10.0997 4.64112 10.0997 4.18644C10.0997 3.94315 9.98008 3.7876 9.78864 3.7876C9.59719 3.7876 9.46558 3.93118 9.46558 4.1665V6.90256C9.46558 7.17777 9.58523 7.31736 9.78465 7.31736Z" fill="#0E3EDA"/>
</g>
<defs>
<clipPath id="clip0_785_8324">
<rect width="13.3293" height="13.3333" fill="white" transform="translate(0.583344 0.333496)"/>
</clipPath>
</defs>
</svg>
