<svg width="23" height="23" viewBox="0 0 23 23" fill="none" xmlns="http://www.w3.org/2000/svg">
<g clip-path="url(#clip0)">
<path d="M11.5 23C17.8513 23 23 17.8513 23 11.5C23 5.14873 17.8513 0 11.5 0C5.14873 0 0 5.14873 0 11.5C0 17.8513 5.14873 23 11.5 23Z" fill="#F25922"/>
<path d="M8.56152 16.6877L14.4748 22.6009C19.3722 21.2949 23 16.8328 23 11.5C23 11.3911 23 11.2823 23 11.1735L18.3565 6.8927L8.56152 16.6877Z" fill="#CF3A04"/>
<path d="M11.7902 14.0757C12.2981 14.5836 12.2981 15.4543 11.7902 15.9622L10.7381 17.0142C10.2303 17.5221 9.35959 17.5221 8.8517 17.0142L4.24444 12.3707C3.73655 11.8628 3.73655 10.9921 4.24444 10.4842L5.29649 9.43218C5.80438 8.9243 6.67504 8.9243 7.18293 9.43218L11.7902 14.0757Z" fill="white"/>
<path d="M15.8169 6.05841C16.3248 5.55052 17.1955 5.55052 17.7034 6.05841L18.7554 7.11046C19.2633 7.61834 19.2633 8.489 18.7554 8.99689L10.7744 16.9417C10.2665 17.4496 9.39581 17.4496 8.88792 16.9417L7.83587 15.8896C7.32798 15.3817 7.32798 14.5111 7.83587 14.0032L15.8169 6.05841Z" fill="white"/>
</g>
<defs>
<clipPath id="clip0">
<rect width="23" height="23" fill="white"/>
</clipPath>
</defs>
</svg>
