<svg width="12" height="12" viewBox="0 0 12 12" fill="none" xmlns="http://www.w3.org/2000/svg">
<path d="M11.8862 5.2433C11.9606 5.31771 11.9978 5.40327 11.9978 5.5C11.9978 5.59673 11.9606 5.68229 11.8862 5.7567L6.68527 10.9576C6.61086 11.032 6.5253 11.0692 6.42857 11.0692C6.33185 11.0692 6.24628 11.032 6.17188 10.9576L0.970982 5.7567C0.896577 5.68229 0.859375 5.59673 0.859375 5.5C0.859375 5.40327 0.896577 5.31771 0.970982 5.2433L1.52902 4.68527C1.60342 4.61086 1.68899 4.57366 1.78571 4.57366C1.88244 4.57366 1.96801 4.61086 2.04241 4.68527L6.42857 9.07143L10.8147 4.68527C10.8891 4.61086 10.9747 4.57366 11.0714 4.57366C11.1682 4.57366 11.2537 4.61086 11.3281 4.68527L11.8862 5.2433ZM11.8862 0.957588C11.9606 1.03199 11.9978 1.11756 11.9978 1.21429C11.9978 1.31101 11.9606 1.39658 11.8862 1.47098L6.68527 6.67188C6.61086 6.74628 6.5253 6.78348 6.42857 6.78348C6.33185 6.78348 6.24628 6.74628 6.17188 6.67188L0.970982 1.47098C0.896577 1.39658 0.859375 1.31101 0.859375 1.21429C0.859375 1.11756 0.896577 1.03199 0.970982 0.957588L1.52902 0.399553C1.60342 0.325148 1.68899 0.287946 1.78571 0.287946C1.88244 0.287946 1.96801 0.325148 2.04241 0.399553L6.42857 4.78571L10.8147 0.399553C10.8891 0.325148 10.9747 0.287946 11.0714 0.287946C11.1682 0.287946 11.2537 0.325148 11.3281 0.399553L11.8862 0.957588Z" fill="#F25922"/>
</svg>
