<svg width="126" height="126" viewBox="0 0 126 126" fill="none" xmlns="http://www.w3.org/2000/svg">
<circle cx="63" cy="63" r="63" fill="white"/>
<rect x="27.3336" y="97.5522" width="74.6663" height="4.97776" rx="2.48888" fill="#F25922"/>
<path d="M29.7748 65.3793L64.7895 31.6055C67.4265 29.062 71.6615 29.173 74.2486 31.8536L96.1088 54.5039C98.6959 57.1845 98.6555 61.4195 96.0185 63.9631L61.0038 97.7369C58.3668 100.28 54.1318 100.169 51.5447 97.4887L29.6845 74.8385C27.0974 72.1579 27.1378 67.9229 29.7748 65.3793ZM54.7279 94.4183C55.5903 95.3119 57.002 95.3489 57.881 94.501L92.8956 60.7273C93.7746 59.8795 93.7881 58.4678 92.9257 57.5742L83.557 47.8669L45.3592 84.7111L54.7279 94.4183ZM42.2364 81.4753L80.4341 44.6312L77.3113 41.3955L39.1135 78.2396L42.2364 81.4753ZM35.9905 75.0038L74.1883 38.1597L71.0654 34.9239C70.203 34.0304 68.7914 33.9934 67.9124 34.8412L32.8977 68.615C32.0187 69.4629 32.0052 70.8746 32.8676 71.7682L35.9904 75.0039L35.9905 75.0038Z" fill="#F25922"/>
<path d="M53.106 83.3608L59.4899 77.2027C60.3713 76.3525 61.7869 76.3896 62.6517 77.2857C63.5164 78.1818 63.5029 79.5974 62.6214 80.4477L56.2375 86.6058C55.3561 87.456 53.9405 87.4189 53.0758 86.5228C52.211 85.6267 52.2245 84.2111 53.106 83.3608Z" fill="#F25922"/>
</svg>
