<svg width="42" height="42" viewBox="0 0 42 42" fill="none" xmlns="http://www.w3.org/2000/svg">
<path d="M1.31247 13.1248H40.6874C41.412 13.1248 41.9999 12.5368 41.9999 11.8123C41.9999 11.0878 41.4118 10.4999 40.6874 10.4999H1.31247C0.587937 10.4999 0 11.0879 0 11.8123C0 12.5368 0.588046 13.1248 1.31247 13.1248Z" fill="white"/>
<path d="M40.6874 19.6875H1.31247C0.587937 19.6875 0 20.2755 0 21C0 21.7244 0.588046 22.3124 1.31247 22.3124H40.6874C41.412 22.3124 41.9999 21.7244 41.9999 21C41.9999 20.2755 41.412 19.6875 40.6874 19.6875Z" fill="white"/>
<path d="M40.6874 28.875H14.4375C13.7129 28.875 13.125 29.463 13.125 30.1875C13.125 30.912 13.713 31.4999 14.4375 31.4999H40.6874C41.412 31.4999 41.9999 30.9119 41.9999 30.1875C42 29.4629 41.412 28.875 40.6874 28.875Z" fill="white"/>
</svg>
