<svg width="17" height="17" viewBox="0 0 17 17" fill="none" xmlns="http://www.w3.org/2000/svg">
<path d="M4.36645 15.6719H2.01543C1.73194 15.6719 1.56091 15.5137 1.48422 15.4193C1.3518 15.2564 1.3005 15.0445 1.34357 14.8376C2.03316 11.5253 4.95637 9.10626 8.331 9.02776C8.38721 9.02985 8.44356 9.03125 8.50023 9.03125C8.55741 9.03125 8.61425 9.02982 8.67096 9.0277C9.49616 9.04652 10.3022 9.20168 11.0694 9.48979C11.4127 9.61878 11.7956 9.44489 11.9245 9.10154C12.0535 8.75822 11.8796 8.37536 11.5363 8.24643C11.4264 8.20512 11.3157 8.16647 11.2044 8.12982C12.3035 7.30538 13.0159 5.99214 13.0159 4.51562C13.0159 2.02572 10.9902 0 8.50023 0C6.0103 0 3.98461 2.02572 3.98461 4.51562C3.98461 5.99346 4.69821 7.30774 5.79893 8.13204C4.79052 8.46401 3.84423 8.98025 3.01607 9.66145C1.49763 10.9104 0.44187 12.6526 0.0433331 14.567C-0.081577 15.1668 0.0680362 15.7829 0.453823 16.2573C0.837651 16.7293 1.40685 17 2.01543 17H4.36645C4.73321 17 5.03051 16.7027 5.03051 16.3359C5.03051 15.9692 4.73321 15.6719 4.36645 15.6719ZM5.31273 4.51562C5.31273 2.75802 6.74263 1.32812 8.50023 1.32812C10.2578 1.32812 11.6877 2.75802 11.6877 4.51562C11.6877 6.22117 10.3412 7.61806 8.65543 7.69931C8.60373 7.69838 8.55203 7.69758 8.50023 7.69758C8.4483 7.69758 8.39641 7.69834 8.34454 7.69927C6.65899 7.61779 5.31273 6.221 5.31273 4.51562Z" fill="white"/>
<path d="M16.4916 11.442C16.2074 10.8062 15.5671 10.3942 14.8588 10.3926H12.7879C12.7864 10.3926 12.785 10.3926 12.7835 10.3926C12.0364 10.3926 11.3846 10.8329 11.1224 11.5151C11.0875 11.6059 11.0448 11.7202 11.0003 11.8535H6.65246C6.47293 11.8535 6.30107 11.9262 6.176 12.055L5.03527 13.23C4.78402 13.4888 4.78528 13.9008 5.03809 14.158L6.2002 15.3404C6.32504 15.4675 6.49571 15.539 6.67381 15.539H8.83201C9.19878 15.539 9.49608 15.2417 9.49608 14.875C9.49608 14.5082 9.19878 14.2109 8.83201 14.2109H6.95225L6.43999 13.6897L6.93329 13.1816H11.4984C11.8044 13.1816 12.0707 12.9726 12.1434 12.6755C12.1972 12.4561 12.2646 12.2452 12.362 11.9916C12.4263 11.8244 12.5878 11.7207 12.7851 11.7207C12.7855 11.7207 12.7859 11.7207 12.7864 11.7207H14.8573C15.0451 11.7211 15.2067 11.8221 15.2791 11.9841C15.4574 12.3829 15.6703 13.0004 15.6719 13.677C15.6735 14.3586 15.4608 14.9902 15.2821 15.4C15.21 15.5653 15.047 15.6719 14.8651 15.6719C14.8647 15.6719 14.8643 15.6719 14.864 15.6719H12.768C12.5843 15.6714 12.4122 15.5532 12.3398 15.3778C12.2622 15.1895 12.1949 14.9745 12.1341 14.7204C12.0487 14.3638 11.6902 14.1438 11.3337 14.2292C10.977 14.3145 10.7571 14.6729 10.8424 15.0296C10.9195 15.3516 11.0077 15.6311 11.1121 15.8841C11.3909 16.5603 12.0397 16.9983 12.7665 17H14.8624C14.8639 17 14.8652 17 14.8666 17C15.5755 16.9999 16.2162 16.5806 16.4995 15.9308C16.729 15.4045 17.0021 14.5857 17 13.6738C16.9979 12.7644 16.7224 11.9582 16.4916 11.442Z" fill="white"/>
<path d="M14.3105 14.3438C14.6773 14.3438 14.9746 14.0464 14.9746 13.6797C14.9746 13.3129 14.6773 13.0156 14.3105 13.0156C13.9438 13.0156 13.6465 13.3129 13.6465 13.6797C13.6465 14.0464 13.9438 14.3438 14.3105 14.3438Z" fill="white"/>
</svg>
