<svg width="17" height="16" viewBox="0 0 17 16" fill="none" xmlns="http://www.w3.org/2000/svg">
<g clip-path="url(#clip0)">
<path d="M12.4695 8.02841C12.162 7.88225 11.8483 7.75634 11.5291 7.65088C12.5629 6.87488 13.2329 5.63922 13.2329 4.25C13.2329 1.90656 11.3264 0 8.9829 0C6.63943 0 4.7329 1.90656 4.7329 4.25C4.7329 5.64075 5.4044 6.87762 6.44018 7.65347C5.49118 7.96591 4.60071 8.45206 3.82134 9.09313C2.39221 10.2687 1.39855 11.9083 1.02346 13.7101C0.905898 14.2747 1.04674 14.8545 1.4098 15.301C1.77109 15.7452 2.3068 16 2.87955 16H10.5766C10.9218 16 11.2016 15.7202 11.2016 15.375C11.2016 15.0298 10.9218 14.75 10.5766 14.75H2.87955C2.61274 14.75 2.45177 14.6011 2.37959 14.5123C2.25493 14.359 2.20668 14.1595 2.24721 13.9648C2.8958 10.8494 5.6438 8.57356 8.81721 8.49681C8.87218 8.49894 8.9274 8.5 8.9829 8.5C9.03893 8.5 9.09471 8.49891 9.15021 8.49675C10.1227 8.51956 11.058 8.7415 11.9328 9.15738C12.2446 9.3055 12.6174 9.17297 12.7656 8.86119C12.9138 8.54944 12.7812 8.17659 12.4695 8.02841ZM9.13533 7.24616C9.08461 7.24525 9.0338 7.24478 8.9829 7.24478C8.93246 7.24478 8.88202 7.24528 8.83165 7.24622C7.24743 7.16719 5.9829 5.8535 5.9829 4.25C5.9829 2.59578 7.32868 1.25 8.9829 1.25C10.6371 1.25 11.9829 2.59578 11.9829 4.25C11.9829 5.85309 10.719 7.16653 9.13533 7.24616Z" fill="white"/>
<path d="M16.3575 12.4062H14.6388V10.6875C14.6388 10.3423 14.359 10.0625 14.0138 10.0625C13.6686 10.0625 13.3888 10.3423 13.3888 10.6875V12.4062H11.67C11.3249 12.4062 11.045 12.6861 11.045 13.0312C11.045 13.3764 11.3249 13.6562 11.67 13.6562H13.3888V15.375C13.3888 15.7202 13.6686 16 14.0138 16C14.359 16 14.6388 15.7202 14.6388 15.375V13.6562H16.3575C16.7027 13.6562 16.9825 13.3764 16.9825 13.0312C16.9825 12.6861 16.7027 12.4062 16.3575 12.4062Z" fill="white"/>
</g>
<defs>
<clipPath id="clip0">
<rect width="16" height="16" fill="white" transform="translate(0.982544)"/>
</clipPath>
</defs>
</svg>
