<svg width="24" height="24" viewBox="0 0 24 24" fill="none" xmlns="http://www.w3.org/2000/svg">
<path fill-rule="evenodd" clip-rule="evenodd" d="M6.81304 5.75251C6.52015 5.45961 6.04528 5.45961 5.75238 5.75251C5.45949 6.0454 5.45949 6.52027 5.75238 6.81317L10.8789 11.9397L5.75241 17.0662C5.45952 17.3591 5.45952 17.834 5.75241 18.1269C6.0453 18.4198 6.52018 18.4198 6.81307 18.1269L11.9396 13.0004L17.0661 18.1269C17.359 18.4198 17.8339 18.4198 18.1268 18.1269C18.4196 17.834 18.4196 17.3591 18.1268 17.0662L13.0002 11.9397L18.1268 6.81317C18.4197 6.52027 18.4197 6.0454 18.1268 5.75251C17.8339 5.45961 17.359 5.45961 17.0661 5.75251L11.9396 10.879L6.81304 5.75251Z" fill="#434657"/>
</svg>
