<svg width="16" height="16" viewBox="0 0 16 16" fill="none" xmlns="http://www.w3.org/2000/svg">
<path d="M11.3335 8.93341V10.9334C11.3335 13.6001 10.2668 14.6667 7.60016 14.6667H5.06683C2.40016 14.6667 1.3335 13.6001 1.3335 10.9334V8.40008C1.3335 5.73341 2.40016 4.66675 5.06683 4.66675H7.06683" stroke="#82869E" stroke-width="1.5" stroke-linecap="round" stroke-linejoin="round"/>
<path d="M11.3336 8.93341H9.20023C7.60023 8.93341 7.06689 8.40008 7.06689 6.80008V4.66675L11.3336 8.93341Z" stroke="#82869E" stroke-width="1.5" stroke-linecap="round" stroke-linejoin="round"/>
<path d="M7.7334 1.33337H10.4001" stroke="#82869E" stroke-width="1.5" stroke-linecap="round" stroke-linejoin="round"/>
<path d="M4.66699 3.33337C4.66699 2.22671 5.56033 1.33337 6.66699 1.33337H8.41366" stroke="#82869E" stroke-width="1.5" stroke-linecap="round" stroke-linejoin="round"/>
<path d="M14.6668 5.33337V9.46004C14.6668 10.4934 13.8268 11.3334 12.7935 11.3334" stroke="#82869E" stroke-width="1.5" stroke-linecap="round" stroke-linejoin="round"/>
<path d="M14.667 5.33337H12.667C11.167 5.33337 10.667 4.83337 10.667 3.33337V1.33337L14.667 5.33337Z" stroke="#82869E" stroke-width="1.5" stroke-linecap="round" stroke-linejoin="round"/>
</svg>
