<svg width="20" height="20" viewBox="0 0 20 20" fill="none" xmlns="http://www.w3.org/2000/svg">
<path d="M11.5658 6.97916L6.99417 11.5508C6.67321 11.8834 6.49569 12.3288 6.49981 12.791C6.50393 13.2532 6.68937 13.6953 7.01621 14.0221C7.34304 14.349 7.78515 14.5344 8.24735 14.5385C8.70955 14.5426 9.15489 14.3651 9.4875 14.0442L15.5142 8.0175C16.1204 7.41126 16.461 6.58902 16.461 5.73166C16.461 4.87431 16.1204 4.05207 15.5142 3.44583C14.9079 2.83959 14.0857 2.49901 13.2283 2.49901C12.371 2.49901 11.5487 2.83959 10.9425 3.44583L4.91584 9.4725C4.47912 9.9091 4.13269 10.4275 3.89634 10.998C3.65998 11.5685 3.53833 12.18 3.53833 12.7975C3.53833 13.415 3.65998 14.0265 3.89634 14.597C4.13269 15.1675 4.47912 15.6859 4.91584 16.1225C5.35244 16.5592 5.8708 16.9056 6.44131 17.142C7.01182 17.3784 7.6233 17.5 8.24084 17.5C8.85837 17.5 9.46985 17.3784 10.0404 17.142C10.6109 16.9056 11.1292 16.5592 11.5658 16.1225L15.2233 12.465" stroke="#A7ABC3" stroke-width="1.5" stroke-linecap="round" stroke-linejoin="round"/>
</svg>
