<svg width="24" height="24" viewBox="0 0 24 24" fill="none" xmlns="http://www.w3.org/2000/svg">
<path d="M12.47 3.02245C13.1247 3.67753 13.4923 4.56586 13.492 5.49201C13.4917 6.41816 13.1236 7.30626 12.4685 7.96095C12.1441 8.28512 11.7591 8.54222 11.3353 8.71758C10.9116 8.89295 10.4575 8.98313 9.99891 8.98299C9.07276 8.98271 8.18466 8.61453 7.52997 7.95945C6.87515 7.30436 6.50738 6.41598 6.50757 5.48974C6.50776 4.5635 6.87588 3.67527 7.53097 3.02045C8.18605 2.36563 9.07443 1.99786 10.0007 1.99805C10.9269 1.99823 11.8151 2.36636 12.47 3.02145" stroke="#434657" stroke-width="1.5" stroke-linecap="round" stroke-linejoin="round"/>
<path d="M14.363 12.7952C13.064 12.2762 11.54 11.9902 10 11.9902C5.952 11.9902 2 13.9572 2 16.9822V17.9822C2 18.2475 2.10536 18.5018 2.29289 18.6893C2.48043 18.8769 2.73478 18.9822 3 18.9822H12.413" stroke="#434657" stroke-width="1.5" stroke-linecap="round" stroke-linejoin="round"/>
<path d="M17 22C15.6739 22 14.4021 21.4732 13.4645 20.5355C12.5268 19.5979 12 18.3261 12 17C12 14.296 14.3 11.997 17.004 12C18.3301 12.0005 19.6016 12.5278 20.5389 13.4659C21.4763 14.4039 22.0025 15.6759 22.002 17.002C22.0015 18.3281 21.4742 19.5996 20.5361 20.537C19.5981 21.4743 18.3261 22.0005 17 22Z" stroke="#434657" stroke-width="1.5" stroke-linecap="round" stroke-linejoin="round"/>
<path d="M18.512 16.9605H16.488V14.9375" stroke="#434657" stroke-width="1.5" stroke-linecap="round" stroke-linejoin="round"/>
</svg>
