<svg width="20" height="20" viewBox="0 0 20 20" fill="none" xmlns="http://www.w3.org/2000/svg">
<path d="M13.333 10.9334V12.9334C13.333 15.6001 12.2663 16.6667 9.59967 16.6667H7.06634C4.39967 16.6667 3.33301 15.6001 3.33301 12.9334V10.4001C3.33301 7.73341 4.39967 6.66675 7.06634 6.66675H9.06634" stroke="#82869E" stroke-width="1.5" stroke-linecap="round" stroke-linejoin="round"/>
<path d="M13.3331 10.9334H11.1997C9.59974 10.9334 9.06641 10.4001 9.06641 8.80008V6.66675L13.3331 10.9334Z" stroke="#82869E" stroke-width="1.5" stroke-linecap="round" stroke-linejoin="round"/>
<path d="M9.7334 3.33337H12.4001" stroke="#82869E" stroke-width="1.5" stroke-linecap="round" stroke-linejoin="round"/>
<path d="M6.66602 5.33337C6.66602 4.22671 7.55935 3.33337 8.66602 3.33337H10.4127" stroke="#82869E" stroke-width="1.5" stroke-linecap="round" stroke-linejoin="round"/>
<path d="M16.6663 7.33337V11.46C16.6663 12.4934 15.8263 13.3334 14.793 13.3334" stroke="#82869E" stroke-width="1.5" stroke-linecap="round" stroke-linejoin="round"/>
<path d="M16.666 7.33337H14.666C13.166 7.33337 12.666 6.83337 12.666 5.33337V3.33337L16.666 7.33337Z" stroke="#82869E" stroke-width="1.5" stroke-linecap="round" stroke-linejoin="round"/>
</svg>
