<svg width="24" height="24" viewBox="0 0 24 24" fill="none" xmlns="http://www.w3.org/2000/svg">
<path fill-rule="evenodd" clip-rule="evenodd" d="M6.81317 5.75238C6.52027 5.45949 6.0454 5.45949 5.75251 5.75238C5.45961 6.04528 5.45961 6.52015 5.75251 6.81304L10.879 11.9396L5.75253 17.0661C5.45964 17.359 5.45964 17.8339 5.75253 18.1268C6.04542 18.4196 6.5203 18.4196 6.81319 18.1268L11.9397 13.0002L17.0662 18.1268C17.3591 18.4196 17.834 18.4196 18.1269 18.1268C18.4198 17.8339 18.4198 17.359 18.1269 17.0661L13.0004 11.9396L18.1269 6.81304C18.4198 6.52015 18.4198 6.04528 18.1269 5.75238C17.834 5.45949 17.3591 5.45949 17.0662 5.75238L11.9397 10.8789L6.81317 5.75238Z" fill="white"/>
</svg>
