<svg width="24" height="24" viewBox="0 0 24 24" fill="none" xmlns="http://www.w3.org/2000/svg">
<path fill-rule="evenodd" clip-rule="evenodd" d="M14.7837 3.06812C14.5744 2.96187 14.3231 2.98062 14.1325 3.11937L7.42187 8H2.625C2.27937 8 2 8.27937 2 8.625V14.875C2 15.2206 2.27937 15.5 2.625 15.5H7.42187L14.1325 20.3806C14.2412 20.46 14.3706 20.5 14.5 20.5C14.5969 20.5 14.6944 20.4775 14.7837 20.4319C14.9931 20.3256 15.125 20.11 15.125 19.875V3.625C15.125 3.39 14.9931 3.17437 14.7837 3.06812ZM17.6694 8.625C17.4253 8.38096 17.0297 8.38096 16.7856 8.625C16.5416 8.86904 16.5416 9.26471 16.7856 9.50875C18.0219 10.745 18.0219 12.755 16.7856 13.9912C16.5416 14.2353 16.5416 14.631 16.7856 14.875C17.0297 15.119 17.4253 15.119 17.6694 14.875C19.3925 13.1519 19.3925 10.3481 17.6694 8.625ZM18.9325 6.47813C19.1765 6.23408 19.5722 6.23408 19.8163 6.47813C21.2244 7.88625 22 9.75812 22 11.75C22 13.7419 21.2244 15.6137 19.8163 17.0219C19.5722 17.2659 19.1765 17.2659 18.9325 17.0219C18.6885 16.7778 18.6885 16.3822 18.9325 16.1381C20.105 14.9662 20.75 13.4075 20.75 11.75C20.75 10.0925 20.105 8.53375 18.9325 7.36188C18.6885 7.11783 18.6885 6.72217 18.9325 6.47813Z" fill="#F67600"/>
</svg>
