<svg width="30" height="29" viewBox="0 0 30 29" fill="none" xmlns="http://www.w3.org/2000/svg">
<g filter="url(#filter0_d_2185_44526)">
<rect x="3" y="2" width="24" height="24" rx="6" fill="#FFD9D0"/>
<path fill-rule="evenodd" clip-rule="evenodd" d="M20.424 10.7055H18.0434C18.1941 10.5065 18.2869 10.2615 18.2869 9.99315C18.2869 9.33855 17.7543 8.80591 17.0997 8.80591C16.0639 8.80591 15.4852 9.64881 15.2001 10.2622C14.915 9.64881 14.3363 8.80591 13.3005 8.80591C12.6459 8.80591 12.1133 9.33855 12.1133 9.99315C12.1133 10.2615 12.2061 10.5065 12.3568 10.7055H9.97622C9.84497 10.7055 9.73877 10.8118 9.73877 10.943V12.6051C9.73877 12.7362 9.84497 12.8425 9.97622 12.8425H20.424C20.5552 12.8425 20.6614 12.7362 20.6614 12.6051V10.943C20.6614 10.8118 20.5552 10.7055 20.424 10.7055ZM17.0997 9.28081C17.4925 9.28081 17.812 9.60034 17.812 9.99315C17.812 10.386 17.4925 10.7055 17.0997 10.7055H15.5289C15.7181 10.2138 16.1963 9.28081 17.0997 9.28081ZM12.5882 9.99315C12.5882 9.60034 12.9077 9.28081 13.3005 9.28081C14.2039 9.28081 14.6821 10.2138 14.8713 10.7055H13.3005C12.9077 10.7055 12.5882 10.386 12.5882 9.99315ZM14.3894 13.3171H10.926C10.7947 13.3171 10.6885 13.4234 10.6885 13.5546V17.018L14.3894 13.3171ZM15.1016 19.7285H12.2114L18.6225 13.3174H19.474C19.6052 13.3174 19.7114 13.4237 19.7114 13.5549V15.1187L15.1016 19.7285ZM11.54 19.7283L17.9511 13.3171H15.0609L10.6885 17.6895V19.4908C10.6885 19.6219 10.7947 19.7283 10.926 19.7283H11.54ZM19.4742 19.7287H15.7733L19.7116 15.7904V19.4912C19.7116 19.6224 19.6054 19.7287 19.4742 19.7287Z" fill="#FF6410"/>
</g>
<defs>
<filter id="filter0_d_2185_44526" x="0.6" y="0.2" width="28.8" height="28.8" filterUnits="userSpaceOnUse" color-interpolation-filters="sRGB">
<feFlood flood-opacity="0" result="BackgroundImageFix"/>
<feColorMatrix in="SourceAlpha" type="matrix" values="0 0 0 0 0 0 0 0 0 0 0 0 0 0 0 0 0 0 127 0" result="hardAlpha"/>
<feOffset dy="0.6"/>
<feGaussianBlur stdDeviation="1.2"/>
<feColorMatrix type="matrix" values="0 0 0 0 0 0 0 0 0 0 0 0 0 0 0 0 0 0 0.2 0"/>
<feBlend mode="normal" in2="BackgroundImageFix" result="effect1_dropShadow_2185_44526"/>
<feBlend mode="normal" in="SourceGraphic" in2="effect1_dropShadow_2185_44526" result="shape"/>
</filter>
</defs>
</svg>
