<svg width="30" height="29" viewBox="0 0 30 29" fill="none" xmlns="http://www.w3.org/2000/svg">
<g filter="url(#filter0_d_2185_44519)">
<rect x="3" y="2" width="24" height="24" rx="6" fill="#E8FFF1"/>
<path fill-rule="evenodd" clip-rule="evenodd" d="M20.6135 12.4583L20.1709 10.677C19.9923 9.9653 19.3526 9.46627 18.6189 9.46631H17.0989C16.9972 9.46735 16.9047 9.52494 16.8589 9.61564L16.7415 9.85031C16.6957 9.94101 16.6031 9.9986 16.5015 9.99964H13.6322C13.5306 9.9986 13.438 9.94101 13.3922 9.85031L13.2749 9.61564C13.229 9.52494 13.1365 9.46735 13.0349 9.46631H11.5149C10.7811 9.46627 10.1414 9.9653 9.96286 10.677L9.5202 12.4583C9.30755 13.3041 9.20008 14.1729 9.2002 15.045V16.933C9.2002 17.5221 9.67776 17.9996 10.2669 17.9996H10.6029C11.3938 18.0103 12.0737 17.4413 12.2029 16.661L12.3469 15.781C12.3891 15.5201 12.616 15.3296 12.8802 15.333H17.3069C17.5711 15.3296 17.7979 15.5201 17.8402 15.781L17.9842 16.661C18.1133 17.4413 18.7933 18.0103 19.5842 17.9996H19.8669C20.456 17.9996 20.9335 17.5221 20.9335 16.933V15.045C20.9336 14.1729 20.8262 13.3041 20.6135 12.4583ZM12.1337 13.7332C11.3973 13.7332 10.8004 13.1362 10.8004 12.3998C10.8004 11.6635 11.3973 11.0665 12.1337 11.0665C12.8701 11.0665 13.4671 11.6635 13.4671 12.3998C13.4671 12.7535 13.3266 13.0926 13.0765 13.3426C12.8265 13.5927 12.4873 13.7332 12.1337 13.7332ZM19.6001 13.1358C19.7474 13.1358 19.8668 13.0164 19.8668 12.8692V12.4638C19.8668 12.3166 19.7474 12.1972 19.6001 12.1972C19.123 12.1972 18.7361 11.8103 18.7361 11.3332C18.7361 11.1859 18.6167 11.0665 18.4695 11.0665H18.0641C17.9169 11.0665 17.7975 11.1859 17.7975 11.3332C17.7975 11.8103 17.4106 12.1972 16.9335 12.1972C16.7862 12.1972 16.6668 12.3166 16.6668 12.4638V12.8692C16.6668 13.0164 16.7862 13.1358 16.9335 13.1358C17.4106 13.1358 17.7975 13.5227 17.7975 13.9998C17.7975 14.1471 17.9169 14.2665 18.0641 14.2665H18.4695C18.6167 14.2665 18.7361 14.1471 18.7361 13.9998C18.7361 13.5227 19.123 13.1358 19.6001 13.1358Z" fill="#26C165"/>
</g>
<defs>
<filter id="filter0_d_2185_44519" x="0.6" y="0.2" width="28.8" height="28.8" filterUnits="userSpaceOnUse" color-interpolation-filters="sRGB">
<feFlood flood-opacity="0" result="BackgroundImageFix"/>
<feColorMatrix in="SourceAlpha" type="matrix" values="0 0 0 0 0 0 0 0 0 0 0 0 0 0 0 0 0 0 127 0" result="hardAlpha"/>
<feOffset dy="0.6"/>
<feGaussianBlur stdDeviation="1.2"/>
<feColorMatrix type="matrix" values="0 0 0 0 0 0 0 0 0 0 0 0 0 0 0 0 0 0 0.2 0"/>
<feBlend mode="normal" in2="BackgroundImageFix" result="effect1_dropShadow_2185_44519"/>
<feBlend mode="normal" in="SourceGraphic" in2="effect1_dropShadow_2185_44519" result="shape"/>
</filter>
</defs>
</svg>
