<svg width="30" height="29" viewBox="0 0 30 29" fill="none" xmlns="http://www.w3.org/2000/svg">
<g filter="url(#filter0_d_2185_44487)">
<rect x="3" y="2" width="24" height="24" rx="6" fill="#FFF1F0"/>
<path fill-rule="evenodd" clip-rule="evenodd" d="M12.933 8.3999H17.1997C18.0833 8.3999 18.7997 9.11625 18.7997 9.9999V18.5332C18.7997 19.4169 18.0833 20.1332 17.1997 20.1332H12.933C12.0494 20.1332 11.333 19.4169 11.333 18.5332V9.9999C11.333 9.11625 12.0494 8.3999 12.933 8.3999ZM12.9327 19.0666H17.1994C17.4939 19.0666 17.7327 18.8278 17.7327 18.5333V9.99993C17.7327 9.70538 17.4939 9.4666 17.1994 9.4666C16.9048 9.4666 16.666 9.70538 16.666 9.99993C16.666 10.2945 16.4273 10.5333 16.1327 10.5333H13.9994C13.7048 10.5333 13.466 10.2945 13.466 9.99993C13.466 9.70538 13.2273 9.4666 12.9327 9.4666C12.6381 9.4666 12.3994 9.70538 12.3994 9.99993V18.5333C12.3994 18.8278 12.6381 19.0666 12.9327 19.0666Z" fill="#FF4133"/>
</g>
<defs>
<filter id="filter0_d_2185_44487" x="0.6" y="0.2" width="28.8" height="28.8" filterUnits="userSpaceOnUse" color-interpolation-filters="sRGB">
<feFlood flood-opacity="0" result="BackgroundImageFix"/>
<feColorMatrix in="SourceAlpha" type="matrix" values="0 0 0 0 0 0 0 0 0 0 0 0 0 0 0 0 0 0 127 0" result="hardAlpha"/>
<feOffset dy="0.6"/>
<feGaussianBlur stdDeviation="1.2"/>
<feColorMatrix type="matrix" values="0 0 0 0 0 0 0 0 0 0 0 0 0 0 0 0 0 0 0.2 0"/>
<feBlend mode="normal" in2="BackgroundImageFix" result="effect1_dropShadow_2185_44487"/>
<feBlend mode="normal" in="SourceGraphic" in2="effect1_dropShadow_2185_44487" result="shape"/>
</filter>
</defs>
</svg>
