<svg width="24" height="24" viewBox="0 0 24 24" fill="none" xmlns="http://www.w3.org/2000/svg">
<path d="M5.33325 4.91643C5.35218 4.34561 5.59684 3.80561 6.01354 3.41501C6.43023 3.02441 6.98489 2.81512 7.55575 2.8331C10.8424 2.8331 11.9999 6.99977 11.9999 6.99977H7.55575C6.98489 7.01774 6.43023 6.80846 6.01354 6.41785C5.59684 6.02725 5.35218 5.48726 5.33325 4.91643V4.91643Z" stroke="#434657" stroke-width="1.5" stroke-miterlimit="10" stroke-linecap="square"/>
<path d="M16.4442 6.99977H12C12 6.99977 13.1575 2.8331 16.4442 2.8331C17.015 2.81512 17.5697 3.02441 17.9864 3.41501C18.4031 3.80561 18.6477 4.34561 18.6667 4.91643C18.6477 5.48726 18.4031 6.02725 17.9864 6.41785C17.5697 6.80846 17.015 7.01774 16.4442 6.99977Z" stroke="#434657" stroke-width="1.5" stroke-miterlimit="10" stroke-linecap="square"/>
<path d="M19.5 12.834V19.5006C19.5 19.9427 19.3244 20.3666 19.0118 20.6792C18.6993 20.9917 18.2754 21.1673 17.8333 21.1673H6.16667C5.72464 21.1673 5.30072 20.9917 4.98816 20.6792C4.67559 20.3666 4.5 19.9427 4.5 19.5006V12.834" stroke="#434657" stroke-width="1.5" stroke-miterlimit="10" stroke-linecap="round" stroke-linejoin="round"/>
<path d="M21.1666 7H2.83325V10.3333H21.1666V7Z" stroke="#434657" stroke-width="1.5" stroke-miterlimit="10" stroke-linecap="round" stroke-linejoin="round"/>
<path d="M12 7V21.1667" stroke="#434657" stroke-width="1.5" stroke-miterlimit="10" stroke-linecap="square"/>
</svg>
