<svg width="24" height="24" viewBox="0 0 24 24" fill="none" xmlns="http://www.w3.org/2000/svg">
<path d="M3 10V8C3 6.67392 3.52678 5.40215 4.46447 4.46447C5.40215 3.52678 6.67392 3 8 3H16C17.3261 3 18.5979 3.52678 19.5355 4.46447C20.4732 5.40215 21 6.67392 21 8V16C21 17.3261 20.4732 18.5979 19.5355 19.5355C18.5979 20.4732 17.3261 21 16 21H13" stroke="#434657" stroke-width="1.5" stroke-linecap="round" stroke-linejoin="round"/>
<path d="M18.0576 9.66694L14.3346 5.94402C13.8176 5.42697 12.9793 5.42697 12.4622 5.94402L10.9434 7.46289C10.4263 7.97994 10.4263 8.81825 10.9434 9.33531L14.6663 13.0582C15.1833 13.5753 16.0216 13.5753 16.5387 13.0582L18.0576 11.5394C18.5746 11.0223 18.5746 10.184 18.0576 9.66694Z" stroke="#434657" stroke-width="1.5" stroke-linecap="round" stroke-linejoin="round"/>
<path d="M16.2 7.80078L12.8 11.2008" stroke="#434657" stroke-width="1.5" stroke-linecap="round" stroke-linejoin="round"/>
<path d="M6.5 21C5.60999 21 4.73996 20.7361 3.99994 20.2416C3.25991 19.7471 2.68314 19.0443 2.34254 18.2221C2.00195 17.3998 1.91283 16.495 2.08647 15.6221C2.2601 14.7492 2.68868 13.9474 3.31802 13.318C3.94736 12.6887 4.74918 12.2601 5.6221 12.0865C6.49501 11.9128 7.39981 12.0019 8.22208 12.3425C9.04434 12.6831 9.74715 13.2599 10.2416 13.9999C10.7361 14.74 11 15.61 11 16.5C11 17.6935 10.5259 18.8381 9.68198 19.682C8.83807 20.5259 7.69348 21 6.5 21" stroke="#434657" stroke-width="1.5" stroke-linecap="round" stroke-linejoin="round"/>
<path d="M6.39307 14.9844V16.7424L7.77507 17.5854" stroke="#434657" stroke-width="1.5" stroke-linecap="round" stroke-linejoin="round"/>
</svg>
