<svg width="36" height="36" viewBox="0 0 36 36" fill="none" xmlns="http://www.w3.org/2000/svg">
<g clip-path="url(#clip0_5284_69014)">
<path d="M36 18C36 21.4017 35.0562 24.5828 33.4152 27.2965C32.0176 29.613 30.1107 31.5866 27.8507 33.0679C27.7138 33.1573 27.5746 33.2456 27.4354 33.3316C27.1389 33.5149 26.8356 33.6892 26.5267 33.8555C26.4814 33.8804 26.4361 33.9042 26.3909 33.928C25.7073 34.2901 24.9978 34.6081 24.2644 34.8797H24.2633C22.6427 35.4817 20.9113 35.8574 19.1074 35.966C18.8018 35.9853 18.4928 35.9955 18.1816 35.9989C18.1601 35.9989 18.1375 35.9989 18.116 35.9989C18.0775 35.9989 18.039 35.9989 18.0006 35.9989H17.9836C17.9168 35.9989 17.8512 35.9989 17.7855 35.9989C17.4857 35.9955 17.1891 35.9842 16.8938 35.966C15.0831 35.8563 13.3448 35.4794 11.7175 34.8729C11.086 34.6375 10.4715 34.3682 9.87734 34.066C9.7404 33.9981 9.60573 33.928 9.47219 33.8555C9.16551 33.6903 8.86335 33.516 8.56798 33.3338C8.41973 33.2422 8.27374 33.1494 8.12776 33.0543C5.87797 31.5753 3.97787 29.6051 2.58363 27.2965C0.943825 24.5828 0 21.4017 0 18C0 8.0596 8.05872 0 18.0006 0C27.9424 0 36 8.0596 36 18Z" fill="#FF9D83"/>
<path d="M20.7632 29.9107V26.0178H15.2032V29.9107C15.2032 29.9107 10.3788 30.541 8.12793 33.0544C8.27392 33.1495 8.4199 33.2423 8.56815 33.3339C8.86352 33.5161 9.16568 33.6904 9.47237 33.8556C10.1921 34.2438 10.9424 34.5844 11.7176 34.873C13.345 35.4795 15.0833 35.8564 16.894 35.9661C17.1893 35.9843 17.4858 35.9956 17.7857 35.999C17.8514 35.999 17.917 35.999 17.9838 35.999H18.0007C18.0607 35.999 18.1218 35.999 18.1818 35.999C18.493 35.9956 18.802 35.9854 19.1075 35.9661C20.9114 35.8575 22.6429 35.4818 24.2635 34.8798H24.2646C25.0466 34.5901 25.8014 34.2472 26.5268 33.8556C26.8358 33.6893 27.1391 33.515 27.4356 33.3317C27.5748 33.2457 27.714 33.1574 27.8509 33.068C25.6057 30.5433 20.7632 29.9107 20.7632 29.9107Z" fill="#FDDCAB"/>
<path d="M7.81217 17.5203C8.01248 19.8164 9.46443 19.9544 9.46443 19.9544L9.48593 15.3577C9.48593 15.3577 7.6096 15.223 7.81217 17.5203Z" fill="#FDDCAB"/>
<path d="M18.0016 6.17212C13.261 6.17212 9.41895 10.0152 9.41895 14.7545V19.753C9.41895 24.4935 13.2621 28.3355 18.0016 28.3355L18.0016 6.17212Z" fill="#FDDCAB"/>
<path d="M28.1508 17.4512C27.9505 19.7473 26.4986 19.8853 26.4986 19.8853L26.4771 15.2886C26.4771 15.2886 28.3534 15.1539 28.1508 17.4512Z" fill="#FFEAD5"/>
<path d="M18.0015 6.17212L18.0015 28.3366C22.7421 28.3366 26.5842 24.4935 26.5842 19.7542V14.7557C26.5842 10.0152 22.741 6.17325 18.0015 6.17325V6.17212Z" fill="#FFEAD5"/>
<path d="M27.851 33.0679L26.3911 33.928C25.7075 34.2901 24.998 34.6081 24.2647 34.8797H24.2635C22.6429 35.4817 20.9115 35.8575 19.1076 35.9661C18.802 35.9853 18.4931 35.9955 18.1818 35.9989C18.1603 35.9989 18.1377 35.9989 18.1162 35.9989V33.4233H18.1196C18.1581 33.4233 18.1932 33.4199 18.2328 33.4199C21.5056 33.352 22.0997 30.0781 22.0997 30.0781C22.1869 30.0838 22.2718 30.0917 22.3555 30.1042C25.6736 30.6157 27.851 33.0679 27.851 33.0679Z" fill="#FF3932"/>
<path d="M18.1162 33.4233V35.9989C18.0777 35.9989 18.0392 35.9989 18.0007 35.9989H17.9838C17.917 35.9989 17.8514 35.9989 17.7857 35.9989C17.4858 35.9955 17.1893 35.9842 16.894 35.9661C15.0833 35.8563 13.345 35.4795 11.7176 34.8729C11.0862 34.6375 10.4716 34.3682 9.87751 34.0661L8.12793 33.0544C8.12793 33.0544 10.2397 30.5862 13.878 30.1042C13.9629 30.0928 14.0455 30.0838 14.1338 30.0781C14.1338 30.0781 14.7279 33.352 17.9996 33.4199C18.0392 33.4199 18.0754 33.4233 18.1139 33.4233H18.1162Z" fill="#DB242D"/>
<path d="M16.7341 18.4527V16.3614C16.7341 16.3026 16.6877 16.2562 16.6356 16.2562H12.505V18.4403C12.505 19.0084 12.9656 19.4689 13.5337 19.4689H15.7178C16.2792 19.4689 16.7341 19.014 16.7341 18.4527ZM17.3939 15.5964V18.4527C17.3939 19.3784 16.6436 20.1287 15.7178 20.1287H13.5405C12.608 20.1287 11.8452 19.366 11.8452 18.4335V15.7356C11.8452 15.6587 11.9075 15.5976 11.9833 15.5976H17.3939V15.5964Z" fill="#1F1F24"/>
<path d="M19.2389 18.5919V16.3614C19.2389 16.3026 19.2853 16.2562 19.3373 16.2562H23.468V18.5783C23.468 19.0706 23.0696 19.4689 22.5773 19.4689H20.1159C19.6316 19.4689 19.2389 19.0763 19.2389 18.5919ZM18.5791 15.5964V18.5919C18.5791 19.4406 19.2672 20.1287 20.1159 20.1287H22.5706C23.4272 20.1287 24.1277 19.4282 24.1277 18.5715V15.5964H18.5791Z" fill="#1F1F24"/>
<path d="M12.1735 16.2562H10.1738L9.97461 15.5964H12.1735V16.2562Z" fill="#1F1F24"/>
<path d="M23.7993 16.2562H25.8001L25.9982 15.5964H23.7993V16.2562Z" fill="#1F1F24"/>
<path d="M18.7363 15.5964H17.2368V16.2562H18.7363V15.5964Z" fill="#1F1F24"/>
<path d="M10.1691 16.2606L10.1691 13.7936C10.1691 13.3217 10.2698 12.8747 10.4452 12.4673C15.7358 8.18176 19.5734 16.2051 25.7682 13.2278C25.7999 13.4122 25.8248 13.599 25.8248 13.7925L25.7863 16.1825C26.3193 15.6529 26.6973 15.3168 27.1681 15.3949L27.442 13.582C27.5121 11.6899 26.7969 9.8566 25.5 8.48165C23.6237 6.49221 21.7473 5.84717 17.9958 5.84717C14.2443 5.84717 12.3668 6.49221 10.4916 8.48165C9.1947 9.85773 8.47948 11.6899 8.54964 13.582L8.82351 15.4617C9.29542 15.3847 9.78091 15.705 10.1668 16.2606H10.1691Z" fill="#1F1F24"/>
</g>
<defs>
<clipPath id="clip0_5284_69014">
<rect width="36" height="36" fill="white"/>
</clipPath>
</defs>
</svg>
