<svg width="140" height="60" viewBox="0 0 140 60" fill="none" xmlns="http://www.w3.org/2000/svg">
<path fill-rule="evenodd" clip-rule="evenodd" d="M45.246 33.1345C46.8006 34.43 49.737 35.0777 50.4711 39.7414C51.2052 44.4051 47.1028 51.7893 41.0141 54.1644C36.7822 55.8485 34.4072 55.4167 30.564 55.1576C28.923 54.2507 24.8639 53.603 23.1798 48.8098C22.2729 46.2188 21.5388 43.0665 22.6184 40.3028L23.1798 38.6187C23.5684 36.5459 23.3957 39.2233 24.0002 37.5391C24.0866 37.28 23.8275 37.4096 24.3457 36.6755L26.0298 34.8186C26.9366 33.9118 27.3253 34.0414 27.6276 32.8754C26.548 32.5732 27.2389 32.5732 26.1594 32.2709L27.498 30.7163C27.8435 30.2413 27.7571 30.5868 27.9298 29.939C29.2253 30.2413 28.8798 30.5004 29.9594 30.8027C28.7071 28.4277 29.5276 28.5572 31.514 26.4844C32.9822 24.9731 33.889 24.3685 35.8754 23.4617C38.4663 22.2957 41.5323 21.9935 44.9437 22.2957C46.2824 22.4253 46.8006 22.8139 48.2256 22.8571L48.571 23.1162C49.046 23.4185 48.6574 23.2026 49.1324 23.4185C51.162 24.3685 54.7029 25.8799 56.7757 26.0958C62.3894 26.5708 59.8417 25.923 64.9804 26.0958C66.4054 26.139 66.3622 26.3549 67.6145 26.3981C66.5349 24.9731 65.1531 25.1458 64.0735 24.3253C66.8804 24.023 66.7077 24.2821 67.1395 23.6344C67.3986 23.1162 67.8304 22.7708 68.7804 22.8139L69.6009 22.9435C69.6441 22.9435 69.7304 22.9435 69.7736 22.9435C69.8168 22.9435 69.9464 22.9003 69.9896 22.9003C70.0327 22.9003 70.1191 22.8571 70.1623 22.8571C71.7601 22.4253 72.6669 21.0435 74.4806 20.6548C76.1215 20.2662 77.8056 20.2662 79.6625 17.5889C77.1147 17.8048 72.7101 22.3821 60.2304 18.2366C59.2804 17.8911 58.4599 17.5025 57.5963 17.2866C57.9849 16.5525 58.1576 15.9479 57.5531 15.0411C56.9485 14.0911 55.2212 13.4434 54.0985 13.1843C53.3644 12.8388 52.1985 12.4502 51.2053 12.2342C50.2984 12.0183 48.9598 11.932 47.9234 11.7161C48.4416 11.3706 50.2553 11.1979 50.903 11.1547C51.9394 11.0252 53.278 11.1115 54.3576 11.1115C53.753 10.2911 52.9758 10.4638 51.4644 10.5502L48.8302 10.5933C46.8007 11.1115 46.3257 11.4138 43.5188 11.4138C43.7779 10.6797 44.2529 10.5933 43.2597 10.507C36.7823 9.8592 30.9526 13.6161 29.0958 14.0479C29.7004 13.2706 37.6891 8.90919 39.1141 8.17509L47.8802 3.12274C48.5279 2.64774 48.5711 2.90681 48.787 2L45.4188 3.03638C42.7415 4.11594 36.2209 6.05915 33.5436 6.44779C30.6072 6.87962 33.6732 5.97278 29.3981 7.26826L27.8003 7.74326C26.1594 8.391 26.8935 8.52055 25.9435 8.82282C24.6048 9.25465 25.9435 8.34782 24.7344 8.82282C23.7844 9.21147 24.3889 9.34101 23.223 9.64329C23.8275 8.73646 24.6048 8.26146 25.5117 7.52735C26.764 6.49097 27.6276 6.23188 27.9299 5.23868C26.4617 5.28185 25.9003 5.97278 24.9071 6.6637C23.9139 7.31144 23.0934 7.82963 22.1003 8.52055C21.0207 9.25465 20.6752 9.72966 19.4229 10.291C18.1275 10.8524 17.5661 11.2842 16.4434 12.0183C16.7456 10.8956 17.6093 10.1615 18.2138 9.08192C16.8752 9.42739 17.9116 9.68648 15.8388 11.0683C14.7592 11.8024 15.0615 11.8024 14.6729 12.5365C13.8524 13.9615 12.9024 13.832 11.1319 16.0775C10.0092 17.5025 8.23869 18.0207 7.63414 19.0139L7.37503 19.8343C7.37503 19.8775 7.37503 19.9639 7.33185 20.0071C6.77048 21.1299 5.12955 21.4321 5 23.1594C6.29547 23.2026 7.07276 23.4617 8.80005 23.4617C18.9047 23.4185 19.4229 18.4094 30.3049 19.3162C31.8163 19.4457 33.0254 19.6617 34.4072 19.6617V20.223C30.7367 20.3094 23.3094 24.1526 20.9343 25.8799C17.307 28.6004 14.1547 32.3141 12.6433 37.021C9.96598 45.6575 14.3274 52.2212 21.2366 55.719C22.8775 56.5395 26.2889 58.094 28.4049 58.1372C29.7003 58.6554 41.2732 58.4827 41.5755 58.3963C42.5255 58.094 41.7914 58.4395 41.5323 58.1804C40.8846 57.5759 40.9278 58.5691 41.1437 57.835C41.8778 57.7054 43.6051 57.5327 44.1233 57.144C44.1233 57.1009 44.2097 57.0577 44.2097 57.0145L44.3824 56.669C46.5415 56.669 49.0029 56.2372 50.428 55.3736C51.8962 54.4667 52.0689 54.8554 53.9689 54.2076C56.0417 53.5599 61.3531 51.7894 62.3031 50.5371C60.4463 50.9689 57.2076 52.5667 53.7962 52.5667C53.8394 52.5235 53.969 52.4372 53.969 52.4803C54.0121 52.5235 54.1417 52.394 54.1849 52.3508C56.1281 51.3144 55.0485 51.7462 56.0417 51.0121C56.3008 50.7962 56.7327 50.6235 57.0349 50.4939C56.9918 49.5871 56.9054 49.4575 56.7326 48.7234C57.769 48.0325 57.6395 48.3348 57.8986 47.2984L57.9849 46.7802C58.2872 45.1825 58.8054 44.7938 60.36 42.937L64.6782 37.971C64.5487 36.6755 74.0488 33.2209 74.3511 29.6368C73.5738 30.2413 73.7465 30.7163 72.0624 32.0118C69.3419 34.0846 68.2192 34.0846 64.6782 34.0414C62.6055 34.0414 61.8714 34.3437 59.9713 34.3437C60.835 33.0914 60.7054 34.3868 61.1373 32.8755C59.669 33.2209 59.2372 33.48 57.3372 33.48C52.8894 33.5232 52.4144 30.5868 46.9302 30.2413C41.8779 30.155 35.9187 29.1186 30.4346 32.7459C22.014 38.3165 25.2095 45.8734 31.1687 46.1325C32.8096 46.1756 34.0619 45.6575 34.8823 44.837C37.9483 41.6415 34.2346 38.7915 33.8891 38.3596C30.6073 33.6959 36.6528 31.58 43.0438 32.7459C43.9938 32.8755 44.4257 33.0914 45.2461 33.1346L45.246 33.1345Z" fill="url(#paint0_linear)"/>
<path d="M60.3864 18.7134L64.9664 26.1734L69.6264 18.7134H71.6264V32.7134H69.4664V26.9734C69.4664 26.1334 69.4797 25.3401 69.5064 24.5934C69.5464 23.8334 69.6064 23.0801 69.6864 22.3334L65.5664 28.6934H64.2464L60.2264 22.3534C60.3064 23.1001 60.3597 23.8468 60.3864 24.5934C60.4131 25.3401 60.4264 26.1334 60.4264 26.9734V32.7134H58.2664V18.7134H60.3864ZM82.1916 28.5334V22.2134H84.2516V32.7134H82.1916V31.0334C81.8849 31.5268 81.4316 31.9668 80.8316 32.3534C80.2449 32.7268 79.5382 32.9134 78.7116 32.9134C77.6182 32.9134 76.7316 32.5401 76.0516 31.7934C75.3716 31.0468 75.0316 30.0134 75.0316 28.6934V22.2134H77.0916V28.1334C77.0916 28.6668 77.1716 29.1601 77.3316 29.6134C77.5049 30.0668 77.7716 30.4334 78.1316 30.7134C78.5049 30.9801 78.9782 31.1134 79.5516 31.1134C80.2716 31.1134 80.8916 30.8868 81.4116 30.4334C81.9316 29.9801 82.1916 29.3468 82.1916 28.5334ZM96.9209 22.2134V32.7134H94.8409V31.0934C94.5209 31.5334 94.0476 31.9468 93.4209 32.3334C92.7943 32.7201 92.0676 32.9134 91.2409 32.9134C90.3609 32.9134 89.5543 32.6801 88.8209 32.2134C88.1009 31.7468 87.5276 31.1001 87.1009 30.2734C86.6743 29.4468 86.4609 28.5001 86.4609 27.4334C86.4609 26.3668 86.6809 25.4268 87.1209 24.6134C87.5609 23.7868 88.1676 23.1468 88.9409 22.6934C89.7143 22.2268 90.5943 21.9934 91.5809 21.9934C92.3143 21.9934 92.9543 22.1534 93.5009 22.4734C94.0609 22.7934 94.5076 23.1668 94.8409 23.5934V22.2134H96.9209ZM91.7209 31.0134C92.3609 31.0134 92.9209 30.8601 93.4009 30.5534C93.8809 30.2334 94.2543 29.8068 94.5209 29.2734C94.7876 28.7268 94.9209 28.1134 94.9209 27.4334C94.9209 26.7668 94.7876 26.1668 94.5209 25.6334C94.2543 25.1001 93.8809 24.6801 93.4009 24.3734C92.9209 24.0534 92.3609 23.8934 91.7209 23.8934C91.1076 23.8934 90.5609 24.0468 90.0809 24.3534C89.6009 24.6601 89.2276 25.0801 88.9609 25.6134C88.6943 26.1468 88.5609 26.7534 88.5609 27.4334C88.5609 28.1134 88.6943 28.7268 88.9609 29.2734C89.2276 29.8068 89.6009 30.2334 90.0809 30.5534C90.5609 30.8601 91.1076 31.0134 91.7209 31.0134ZM108.763 32.7134H106.703V24.2134H104.523V22.2134H106.703V19.5334H108.763V22.2134H111.203V24.2134H108.763V32.7134ZM118.578 21.9934C119.525 21.9934 120.258 22.1868 120.778 22.5734C121.298 22.9601 121.658 23.4801 121.858 24.1334C122.072 24.7868 122.178 25.5134 122.178 26.3134V32.7134H120.118V26.4534C120.118 25.9468 120.052 25.4934 119.918 25.0934C119.785 24.6934 119.558 24.3801 119.238 24.1534C118.918 23.9268 118.472 23.8334 117.898 23.8734C117.365 23.8734 116.892 23.9868 116.478 24.2134C116.065 24.4401 115.738 24.7401 115.498 25.1134C115.258 25.4868 115.138 25.9001 115.138 26.3534V32.7134H113.078V17.9134H115.138V23.8734C115.458 23.3801 115.925 22.9468 116.538 22.5734C117.152 22.1868 117.832 21.9934 118.578 21.9934ZM133.993 31.3334H133.973C133.546 31.7468 132.96 32.1134 132.213 32.4334C131.466 32.7534 130.686 32.9134 129.873 32.9134C128.78 32.9134 127.813 32.6868 126.973 32.2334C126.146 31.7668 125.5 31.1334 125.033 30.3334C124.566 29.5201 124.333 28.6001 124.333 27.5734C124.333 26.4001 124.58 25.4001 125.073 24.5734C125.566 23.7334 126.22 23.0934 127.033 22.6534C127.846 22.2001 128.733 21.9734 129.693 21.9734C130.573 21.9734 131.373 22.1934 132.093 22.6334C132.813 23.0601 133.386 23.6534 133.813 24.4134C134.24 25.1734 134.453 26.0601 134.453 27.0734L134.433 27.9534H126.393C126.513 28.9001 126.9 29.6534 127.553 30.2134C128.22 30.7601 129.06 31.0334 130.073 31.0334C130.806 31.0334 131.4 30.9001 131.853 30.6334C132.306 30.3534 132.68 30.0868 132.973 29.8334L133.993 31.3334ZM129.693 23.8734C128.906 23.8734 128.22 24.0601 127.633 24.4334C127.046 24.7934 126.66 25.4201 126.473 26.3134H132.353V26.1734C132.313 25.7201 132.16 25.3201 131.893 24.9734C131.64 24.6268 131.32 24.3601 130.933 24.1734C130.546 23.9734 130.133 23.8734 129.693 23.8734ZM127.293 17.4734C127.56 17.2068 127.84 16.9868 128.133 16.8134C128.426 16.6401 128.78 16.5534 129.193 16.5534C129.74 16.5534 130.16 16.6468 130.453 16.8334C130.746 17.0068 130.946 17.2201 131.053 17.4734C131.173 17.7268 131.233 17.9668 131.233 18.1934C131.233 18.4201 131.186 18.6201 131.093 18.7934C131.013 18.9534 130.9 19.1334 130.753 19.3334C130.7 19.4001 130.62 19.5268 130.513 19.7134C130.42 19.9001 130.366 20.0601 130.353 20.1934H128.993C128.993 20.0468 129.02 19.8868 129.073 19.7134C129.126 19.5268 129.206 19.3601 129.313 19.2134C129.446 19.0401 129.56 18.8868 129.653 18.7534C129.76 18.6068 129.813 18.4668 129.813 18.3334C129.813 18.1601 129.766 18.0268 129.673 17.9334C129.593 17.8268 129.406 17.7734 129.113 17.7734C128.886 17.7734 128.673 17.8468 128.473 17.9934C128.286 18.1268 128.113 18.2734 127.953 18.4334L127.293 17.4734ZM71.5962 37.5934C72.3962 37.5934 73.1362 37.7068 73.8162 37.9334C74.4962 38.1601 75.0962 38.4534 75.6162 38.8134C76.1362 39.1734 76.5429 39.5601 76.8362 39.9734L75.4362 41.4334C74.9029 40.9268 74.3162 40.5134 73.6762 40.1934C73.0362 39.8601 72.3429 39.6934 71.5962 39.6934C70.6496 39.6934 69.7896 39.9134 69.0162 40.3534C68.2562 40.7934 67.6562 41.3934 67.2162 42.1534C66.7762 42.9001 66.5562 43.7534 66.5562 44.7134C66.5562 45.6601 66.7896 46.5201 67.2562 47.2934C67.7229 48.0668 68.3429 48.6801 69.1162 49.1334C69.9029 49.5868 70.7562 49.8134 71.6762 49.8134C72.3429 49.8134 72.9696 49.6868 73.5562 49.4334C74.1429 49.1668 74.6162 48.8068 74.9762 48.3534C75.3496 47.9001 75.5362 47.3801 75.5362 46.7934C75.5362 46.7268 75.5362 46.6868 75.5362 46.6734H71.5562V44.5334H77.7562C77.7829 44.7334 77.8029 44.9334 77.8162 45.1334C77.8429 45.3334 77.8562 45.5334 77.8562 45.7334C77.8562 46.4668 77.7429 47.1868 77.5162 47.8934C77.3029 48.6001 76.9629 49.2134 76.4962 49.7334C75.9629 50.4001 75.2696 50.9334 74.4162 51.3334C73.5762 51.7201 72.6429 51.9134 71.6162 51.9134C70.6029 51.9134 69.6562 51.7334 68.7762 51.3734C67.8962 51.0001 67.1229 50.4868 66.4562 49.8334C65.7896 49.1801 65.2696 48.4201 64.8962 47.5534C64.5362 46.6734 64.3562 45.7268 64.3562 44.7134C64.3562 43.7001 64.5362 42.7668 64.8962 41.9134C65.2696 41.0468 65.7829 40.2934 66.4362 39.6534C67.1029 39.0001 67.8762 38.4934 68.7562 38.1334C69.6362 37.7734 70.5829 37.5934 71.5962 37.5934ZM89.9287 41.2134V51.7134H87.8487V50.0934C87.5287 50.5334 87.0554 50.9468 86.4287 51.3334C85.8021 51.7201 85.0754 51.9134 84.2487 51.9134C83.3687 51.9134 82.5621 51.6801 81.8287 51.2134C81.1087 50.7468 80.5354 50.1001 80.1087 49.2734C79.6821 48.4468 79.4687 47.5001 79.4687 46.4334C79.4687 45.3668 79.6887 44.4268 80.1287 43.6134C80.5687 42.7868 81.1754 42.1468 81.9487 41.6934C82.7221 41.2268 83.6021 40.9934 84.5887 40.9934C85.3221 40.9934 85.9621 41.1534 86.5087 41.4734C87.0687 41.7934 87.5154 42.1668 87.8487 42.5934V41.2134H89.9287ZM84.7287 50.0134C85.3687 50.0134 85.9287 49.8601 86.4087 49.5534C86.8887 49.2334 87.2621 48.8068 87.5287 48.2734C87.7954 47.7268 87.9287 47.1134 87.9287 46.4334C87.9287 45.7668 87.7954 45.1668 87.5287 44.6334C87.2621 44.1001 86.8887 43.6801 86.4087 43.3734C85.9287 43.0534 85.3687 42.8934 84.7287 42.8934C84.1154 42.8934 83.5687 43.0468 83.0887 43.3534C82.6087 43.6601 82.2354 44.0801 81.9687 44.6134C81.7021 45.1468 81.5687 45.7534 81.5687 46.4334C81.5687 47.1134 81.7021 47.7268 81.9687 48.2734C82.2354 48.8068 82.6087 49.2334 83.0887 49.5534C83.5687 49.8601 84.1154 50.0134 84.7287 50.0134ZM98.685 43.4334C98.5517 43.3668 98.385 43.3134 98.185 43.2734C97.9983 43.2201 97.7983 43.1934 97.585 43.1934C97.1583 43.1934 96.7383 43.3068 96.325 43.5334C95.9117 43.7468 95.565 44.0601 95.285 44.4734C95.0183 44.8734 94.885 45.3534 94.885 45.9134V51.7134H92.805V41.2134H94.885V43.1934C95.1783 42.5534 95.6183 42.0268 96.205 41.6134C96.805 41.2001 97.4317 40.9934 98.085 40.9934C98.5783 40.9934 98.9583 41.0601 99.225 41.1934L98.685 43.4334ZM109.442 50.3334H109.422C108.996 50.7468 108.409 51.1134 107.662 51.4334C106.916 51.7534 106.136 51.9134 105.322 51.9134C104.229 51.9134 103.262 51.6868 102.422 51.2334C101.596 50.7668 100.949 50.1334 100.482 49.3334C100.016 48.5201 99.7822 47.6001 99.7822 46.5734C99.7822 45.4001 100.029 44.4001 100.522 43.5734C101.016 42.7334 101.669 42.0934 102.482 41.6534C103.296 41.2001 104.182 40.9734 105.142 40.9734C106.022 40.9734 106.822 41.1934 107.542 41.6334C108.262 42.0601 108.836 42.6534 109.262 43.4134C109.689 44.1734 109.902 45.0601 109.902 46.0734L109.882 46.9534H101.842C101.962 47.9001 102.349 48.6534 103.002 49.2134C103.669 49.7601 104.509 50.0334 105.522 50.0334C106.256 50.0334 106.849 49.9001 107.302 49.6334C107.756 49.3534 108.129 49.0868 108.422 48.8334L109.442 50.3334ZM105.142 42.8734C104.356 42.8734 103.669 43.0601 103.082 43.4334C102.496 43.7934 102.109 44.4201 101.922 45.3134H107.802V45.1734C107.762 44.7201 107.609 44.3201 107.342 43.9734C107.089 43.6268 106.769 43.3601 106.382 43.1734C105.996 42.9734 105.582 42.8734 105.142 42.8734ZM117.641 40.9934C118.588 40.9934 119.321 41.1868 119.841 41.5734C120.361 41.9601 120.721 42.4801 120.921 43.1334C121.134 43.7868 121.241 44.5134 121.241 45.3134V51.7134H119.181V45.4534C119.181 44.9468 119.114 44.4934 118.981 44.0934C118.848 43.6934 118.621 43.3801 118.301 43.1534C117.981 42.9268 117.534 42.8334 116.961 42.8734C116.428 42.8734 115.954 42.9868 115.541 43.2134C115.128 43.4401 114.801 43.7401 114.561 44.1134C114.321 44.4868 114.201 44.9001 114.201 45.3534V51.7134H112.141V41.2134H114.201V42.8734C114.521 42.3801 114.988 41.9468 115.601 41.5734C116.214 41.1868 116.894 40.9934 117.641 40.9934ZM133.815 41.2134V51.7134H131.735V50.0934C131.415 50.5334 130.942 50.9468 130.315 51.3334C129.689 51.7201 128.962 51.9134 128.135 51.9134C127.255 51.9134 126.449 51.6801 125.715 51.2134C124.995 50.7468 124.422 50.1001 123.995 49.2734C123.569 48.4468 123.355 47.5001 123.355 46.4334C123.355 45.3668 123.575 44.4268 124.015 43.6134C124.455 42.7868 125.062 42.1468 125.835 41.6934C126.609 41.2268 127.489 40.9934 128.475 40.9934C129.209 40.9934 129.849 41.1534 130.395 41.4734C130.955 41.7934 131.402 42.1668 131.735 42.5934V41.2134H133.815ZM128.615 50.0134C129.255 50.0134 129.815 49.8601 130.295 49.5534C130.775 49.2334 131.149 48.8068 131.415 48.2734C131.682 47.7268 131.815 47.1134 131.815 46.4334C131.815 45.7668 131.682 45.1668 131.415 44.6334C131.149 44.1001 130.775 43.6801 130.295 43.3734C129.815 43.0534 129.255 42.8934 128.615 42.8934C128.002 42.8934 127.455 43.0468 126.975 43.3534C126.495 43.6601 126.122 44.0801 125.855 44.6134C125.589 45.1468 125.455 45.7534 125.455 46.4334C125.455 47.1134 125.589 47.7268 125.855 48.2734C126.122 48.8068 126.495 49.2334 126.975 49.5534C127.455 49.8601 128.002 50.0134 128.615 50.0134Z" fill="white"/>
<defs>
<linearGradient id="paint0_linear" x1="5" y1="21.1634" x2="42.3312" y2="58.4947" gradientUnits="userSpaceOnUse">
<stop stop-color="white" stop-opacity="0.75"/>
<stop offset="0.0989583" stop-color="white"/>
<stop offset="1" stop-color="white" stop-opacity="0"/>
</linearGradient>
</defs>
</svg>
