<svg width="16" height="16" viewBox="0 0 16 16" fill="none" xmlns="http://www.w3.org/2000/svg">
<path d="M7.99994 15.1673C7.55328 15.1673 7.09994 15.054 6.69994 14.8207L2.73994 12.534C1.93994 12.0673 1.43994 11.2073 1.43994 10.2807V5.72067C1.43994 4.794 1.93994 3.934 2.73994 3.46733L6.69994 1.18067C7.49994 0.714001 8.49327 0.714001 9.29994 1.18067L13.2599 3.46733C14.0599 3.934 14.5599 4.794 14.5599 5.72067V10.2807C14.5599 11.2073 14.0599 12.0673 13.2599 12.534L9.29994 14.8207C8.89994 15.054 8.44661 15.1673 7.99994 15.1673ZM7.99994 1.834C7.72661 1.834 7.44661 1.90733 7.19994 2.04733L3.23994 4.334C2.74661 4.62067 2.43994 5.14733 2.43994 5.72067V10.2807C2.43994 10.8473 2.74661 11.3807 3.23994 11.6673L7.19994 13.954C7.69327 14.2407 8.30661 14.2407 8.79994 13.954L12.7599 11.6673C13.2533 11.3807 13.5599 10.854 13.5599 10.2807V5.72067C13.5599 5.154 13.2533 4.62067 12.7599 4.334L8.79994 2.04733C8.55328 1.90733 8.27327 1.834 7.99994 1.834Z" fill="#A7ABC3"/>
<path d="M8.00133 7.83334C6.868 7.83334 5.948 6.91334 5.948 5.78C5.948 4.64667 6.868 3.72667 8.00133 3.72667C9.13466 3.72667 10.0547 4.64667 10.0547 5.78C10.0547 6.91334 9.13466 7.83334 8.00133 7.83334ZM8.00133 4.72667C7.42133 4.72667 6.948 5.2 6.948 5.78C6.948 6.36 7.42133 6.83334 8.00133 6.83334C8.58133 6.83334 9.05466 6.36 9.05466 5.78C9.05466 5.2 8.58133 4.72667 8.00133 4.72667Z" fill="#A7ABC3"/>
<path d="M10.6666 11.6053C10.3933 11.6053 10.1666 11.3787 10.1666 11.1053C10.1666 10.1853 9.19325 9.432 7.99992 9.432C6.80659 9.432 5.83325 10.1853 5.83325 11.1053C5.83325 11.3787 5.60659 11.6053 5.33325 11.6053C5.05992 11.6053 4.83325 11.3787 4.83325 11.1053C4.83325 9.632 6.25325 8.432 7.99992 8.432C9.74659 8.432 11.1666 9.632 11.1666 11.1053C11.1666 11.3787 10.9399 11.6053 10.6666 11.6053Z" fill="#A7ABC3"/>
</svg>
