<svg width="24" height="24" viewBox="0 0 24 24" fill="none" xmlns="http://www.w3.org/2000/svg">
<path d="M5.55801 9.763L5.27101 8.696C5.2024 8.44195 5.18463 8.17686 5.21871 7.91593C5.25279 7.65499 5.33806 7.40336 5.46962 7.17545C5.60117 6.94755 5.77644 6.74786 5.98535 6.58785C6.19426 6.42784 6.4327 6.31065 6.68701 6.243L16.73 3.567C17.2415 3.43288 17.7852 3.50594 18.2432 3.7703C18.7012 4.03466 19.0364 4.469 19.176 4.979L20.93 11.488C20.9985 11.742 21.0162 12.0071 20.982 12.268C20.9479 12.5289 20.8626 12.7805 20.731 13.0083C20.5995 13.2362 20.4243 13.4359 20.2155 13.5959C20.0066 13.756 19.7682 13.8732 19.514 13.941L17.4 14.504" stroke="#F473B9" stroke-width="1.5" stroke-linecap="round" stroke-linejoin="round"/>
<path d="M5 20.5H15.4C15.9304 20.5 16.4391 20.2893 16.8142 19.9142C17.1893 19.5391 17.4 19.0304 17.4 18.5V11.763C17.4 11.2326 17.1893 10.7239 16.8142 10.3488C16.4391 9.97371 15.9304 9.763 15.4 9.763H5C4.46957 9.763 3.96086 9.97371 3.58579 10.3488C3.21071 10.7239 3 11.2326 3 11.763V18.5C3 19.0304 3.21071 19.5391 3.58579 19.9142C3.96086 20.2893 4.46957 20.5 5 20.5Z" stroke="#F473B9" stroke-width="1.5" stroke-linecap="round" stroke-linejoin="round"/>
<path d="M3 13.84H17.4" stroke="#F473B9" stroke-width="1.5" stroke-linecap="round" stroke-linejoin="round"/>
</svg>
