<svg width="25" height="24" viewBox="0 0 25 24" fill="none" xmlns="http://www.w3.org/2000/svg">
<path d="M16.9444 3H8.05556C6.1 3 4.5 4.6 4.5 6.55556V17.2222C4.5 19.1778 6.1 20.7778 8.05556 20.7778H16.9444C18.9 20.7778 20.5 19.1778 20.5 17.2222V6.55556C20.5 4.6 18.9 3 16.9444 3ZM11.4867 17.3467C11.3533 17.48 11.1844 17.5422 11.0156 17.5422C10.8467 17.5422 10.6778 17.48 10.5444 17.3467L9.96667 16.7689L9.41556 17.32C9.28222 17.4533 9.11333 17.5156 8.94444 17.5156C8.77556 17.5156 8.60667 17.4533 8.47333 17.32C8.34935 17.1945 8.27982 17.0253 8.27982 16.8489C8.27982 16.6725 8.34935 16.5032 8.47333 16.3778L9.02444 15.8267L8.5 15.3022C8.37602 15.1768 8.30649 15.0075 8.30649 14.8311C8.30649 14.6547 8.37602 14.4855 8.5 14.36C8.75778 14.1022 9.18444 14.1022 9.44222 14.36L9.96667 14.8844L10.5178 14.3333C10.7756 14.0756 11.2022 14.0756 11.46 14.3333C11.7178 14.5911 11.7178 15.0178 11.46 15.2756L10.9089 15.8267L11.4867 16.4044C11.7444 16.6622 11.7444 17.0889 11.4867 17.3467ZM14.7133 17.6578C14.2244 17.6578 13.8244 17.2667 13.8244 16.7778V16.76C13.8244 16.2711 14.2244 15.8711 14.7133 15.8711C15.2022 15.8711 15.6022 16.2711 15.6022 16.76C15.6022 17.2489 15.2022 17.6578 14.7133 17.6578ZM16.5089 15.7378C16.02 15.7378 15.6111 15.3378 15.6111 14.8489C15.6111 14.36 16.0022 13.96 16.4911 13.96H16.5089C16.9978 13.96 17.3978 14.36 17.3978 14.8489C17.3978 15.3378 16.9978 15.7378 16.5089 15.7378ZM17.8333 9.44445C17.8333 10.2978 17.1311 11 16.2778 11H8.72222C7.86889 11 7.16667 10.2978 7.16667 9.44445V7.22222C7.16667 6.36889 7.86889 5.66667 8.72222 5.66667H16.2778C17.1311 5.66667 17.8333 6.36889 17.8333 7.22222V9.44445Z" fill="#0E3EDA"/>
</svg>
