<svg width="25" height="24" viewBox="0 0 25 24" fill="none" xmlns="http://www.w3.org/2000/svg">
<path d="M17.5 3H7.5C4.5 3 2.5 4.5 2.5 8V11.56C2.5 11.93 2.88 12.16 3.21 12.01C4.19 11.56 5.32 11.39 6.51 11.6C9.14 12.07 11.07 14.51 11 17.18C10.99 17.6 10.93 18.01 10.82 18.41C10.74 18.72 10.99 19.01 11.31 19.01H17.5C20.5 19.01 22.5 17.51 22.5 14.01V8C22.5 4.5 20.5 3 17.5 3ZM12.5 13.5C11.837 13.5 11.2011 13.2366 10.7322 12.7678C10.2634 12.2989 10 11.663 10 11C10 10.337 10.2634 9.70107 10.7322 9.23223C11.2011 8.76339 11.837 8.5 12.5 8.5C13.163 8.5 13.7989 8.76339 14.2678 9.23223C14.7366 9.70107 15 10.337 15 11C15 11.663 14.7366 12.2989 14.2678 12.7678C13.7989 13.2366 13.163 13.5 12.5 13.5ZM19.75 13C19.75 13.41 19.41 13.75 19 13.75C18.59 13.75 18.25 13.41 18.25 13V9C18.25 8.59 18.59 8.25 19 8.25C19.41 8.25 19.75 8.59 19.75 9V13Z" fill="#0E3EDA"/>
<path d="M5.5 13C3.29 13 1.5 14.79 1.5 17C1.5 17.75 1.71 18.46 2.08 19.06C2.43253 19.6525 2.93329 20.143 3.53296 20.4831C4.13264 20.8233 4.81056 21.0014 5.5 21C6.96 21 8.23 20.22 8.92 19.06C9.29 18.46 9.5 17.75 9.5 17C9.5 14.79 7.71 13 5.5 13ZM6.99 17.73H6.25V18.51C6.25 18.92 5.91 19.26 5.5 19.26C5.09 19.26 4.75 18.92 4.75 18.51V17.73H4.01C3.6 17.73 3.26 17.39 3.26 16.98C3.26 16.57 3.6 16.23 4.01 16.23H4.75V15.52C4.75 15.11 5.09 14.77 5.5 14.77C5.91 14.77 6.25 15.11 6.25 15.52V16.23H6.99C7.18891 16.23 7.37968 16.309 7.52033 16.4497C7.66098 16.5903 7.74 16.7811 7.74 16.98C7.74 17.1789 7.66098 17.3697 7.52033 17.5103C7.37968 17.651 7.18891 17.73 6.99 17.73Z" fill="#0E3EDA"/>
</svg>
