<svg width="25" height="24" viewBox="0 0 25 24" fill="none" xmlns="http://www.w3.org/2000/svg">
<path d="M12.0803 11.8245C13.2505 11.8245 14.3727 11.3597 15.2002 10.5322C16.0277 9.70474 16.4925 8.58246 16.4925 7.41226C16.4925 6.24205 16.0277 5.11978 15.2002 4.29232C14.3727 3.46486 13.2505 3 12.0803 3C10.9101 3 9.78778 3.46486 8.96032 4.29232C8.13286 5.11978 7.668 6.24205 7.668 7.41226C7.668 8.58246 8.13286 9.70474 8.96032 10.5322C9.78778 11.3597 10.9101 11.8245 12.0803 11.8245V11.8245Z" stroke="#A7ABC3" stroke-width="1.5" stroke-linecap="round" stroke-linejoin="round"/>
<path d="M19.6605 20.649C19.6605 17.234 16.2631 14.4719 12.0803 14.4719C7.89744 14.4719 4.5 17.234 4.5 20.649" stroke="#A7ABC3" stroke-width="1.5" stroke-linecap="round" stroke-linejoin="round"/>
</svg>
