<svg width="25" height="24" viewBox="0 0 25 24" fill="none" xmlns="http://www.w3.org/2000/svg">
<path d="M12.4814 11.7805C13.6458 11.7805 14.7625 11.3179 15.5858 10.4946C16.4091 9.67128 16.8717 8.55461 16.8717 7.39024C16.8717 6.22588 16.4091 5.1092 15.5858 4.28587C14.7625 3.46254 13.6458 3 12.4814 3C11.3171 3 10.2004 3.46254 9.37706 4.28587C8.55373 5.1092 8.09119 6.22588 8.09119 7.39024C8.09119 8.55461 8.55373 9.67128 9.37706 10.4946C10.2004 11.3179 11.3171 11.7805 12.4814 11.7805Z" fill="#0E3EDA"/>
<path d="M12.4815 13.9756C8.08244 13.9756 4.5 16.9259 4.5 20.561C4.5 20.8068 4.69317 21 4.93902 21H20.0239C20.2698 21 20.4629 20.8068 20.4629 20.561C20.4629 16.9259 16.8805 13.9756 12.4815 13.9756Z" fill="#0E3EDA"/>
</svg>
