<svg width="25" height="24" viewBox="0 0 25 24" fill="none" xmlns="http://www.w3.org/2000/svg">
<path d="M12.4524 13.5C13.0523 13.5 13.6276 13.2617 14.0518 12.8375C14.476 12.4133 14.7143 11.838 14.7143 11.2381C14.7143 10.6382 14.476 10.0629 14.0518 9.63869C13.6276 9.2145 13.0523 8.97619 12.4524 8.97619C11.8525 8.97619 11.2771 9.2145 10.853 9.63869C10.4288 10.0629 10.1905 10.6382 10.1905 11.2381C10.1905 11.838 10.4288 12.4133 10.853 12.8375C11.2771 13.2617 11.8525 13.5 12.4524 13.5Z" stroke="#A7ABC3" stroke-width="1.5" stroke-miterlimit="10" stroke-linecap="round" stroke-linejoin="round"/>
<path d="M18.3333 8.97619V13.5" stroke="#A7ABC3" stroke-width="1.5" stroke-miterlimit="10" stroke-linecap="round" stroke-linejoin="round"/>
<path d="M9.7381 16.6667C9.7381 17.3452 9.5481 17.9876 9.21334 18.5305C8.89438 19.0665 8.44132 19.5103 7.89876 19.8181C7.35619 20.1258 6.74283 20.287 6.11906 20.2857C5.49528 20.287 4.88192 20.1258 4.33935 19.8181C3.79679 19.5103 3.34373 19.0665 3.02477 18.5305C2.68036 17.9699 2.49867 17.3246 2.50001 16.6667C2.50001 14.6671 4.11953 13.0476 6.11906 13.0476C8.11858 13.0476 9.7381 14.6671 9.7381 16.6667Z" stroke="#A7ABC3" stroke-width="1.5" stroke-miterlimit="10" stroke-linecap="round" stroke-linejoin="round"/>
<path d="M7.46896 16.6486H4.77277" stroke="#A7ABC3" stroke-width="1.5" stroke-miterlimit="10" stroke-linecap="round" stroke-linejoin="round"/>
<path d="M6.11905 15.3276V18.0329" stroke="#A7ABC3" stroke-width="1.5" stroke-miterlimit="10" stroke-linecap="round" stroke-linejoin="round"/>
<path d="M3.40475 14.2238V8.52381C3.40475 5.35714 5.21428 4 7.92857 4H16.9762C19.6905 4 21.5 5.35714 21.5 8.52381V13.9524C21.5 17.119 19.6905 18.4762 16.9762 18.4762H9.28571" stroke="#A7ABC3" stroke-width="1.5" stroke-miterlimit="10" stroke-linecap="round" stroke-linejoin="round"/>
</svg>
