<svg width="25" height="24" viewBox="0 0 25 24" fill="none" xmlns="http://www.w3.org/2000/svg">
<path d="M19.5 7.88889V15.6667C19.5 18 18.3333 19.5556 15.6111 19.5556H9.38889C6.66667 19.5556 5.5 18 5.5 15.6667V7.88889C5.5 5.55556 6.66667 4 9.38889 4H15.6111C18.3333 4 19.5 5.55556 19.5 7.88889Z" stroke="#A7ABC3" stroke-width="1.5" stroke-miterlimit="10" stroke-linecap="round" stroke-linejoin="round"/>
<path d="M15.8056 11H9.19445C8.44779 11 7.83334 10.3855 7.83334 9.63888V7.69444C7.83334 6.94777 8.44779 6.33332 9.19445 6.33332H15.8056C16.5522 6.33332 17.1667 6.94777 17.1667 7.69444V9.63888C17.1667 10.3855 16.5522 11 15.8056 11Z" stroke="#A7ABC3" stroke-width="1.5" stroke-miterlimit="10" stroke-linecap="round" stroke-linejoin="round"/>
<path d="M11.1778 14.3289L9.38889 16.1178" stroke="#A7ABC3" stroke-width="1.5" stroke-miterlimit="10" stroke-linecap="round" stroke-linejoin="round"/>
<path d="M9.41223 14.3522L11.2011 16.1411" stroke="#A7ABC3" stroke-width="1.5" stroke-miterlimit="10" stroke-linecap="round" stroke-linejoin="round"/>
<path d="M15.9922 14.3678H16.0078" stroke="#A7ABC3" stroke-width="2" stroke-miterlimit="10" stroke-linecap="round" stroke-linejoin="round"/>
<path d="M14.4367 16.0556V16.04" stroke="#A7ABC3" stroke-width="2" stroke-miterlimit="10" stroke-linecap="round" stroke-linejoin="round"/>
</svg>
