<svg width="25" height="24" viewBox="0 0 25 24" fill="none" xmlns="http://www.w3.org/2000/svg">
<path d="M19.7448 7.33591L14.5609 3.70896C13.1479 2.71897 10.9789 2.77297 9.61992 3.82596L5.11098 7.34491C4.21099 8.0469 3.5 9.48689 3.5 10.6209V16.8308C3.5 19.1258 5.36298 20.9977 7.65795 20.9977H17.3598C19.6548 20.9977 21.5178 19.1348 21.5178 16.8398V10.7379C21.5178 9.52289 20.7348 8.0289 19.7448 7.33591ZM13.1839 17.3978C13.1839 17.7668 12.8779 18.0728 12.5089 18.0728C12.1399 18.0728 11.8339 17.7668 11.8339 17.3978V14.6978C11.8339 14.3288 12.1399 14.0228 12.5089 14.0228C12.8779 14.0228 13.1839 14.3288 13.1839 14.6978V17.3978Z" fill="#0E3EDA"/>
</svg>
