<svg width="24" height="24" viewBox="0 0 24 24" fill="none" xmlns="http://www.w3.org/2000/svg">
<path d="M18 3H6C5.73478 3 5.48043 3.10536 5.29289 3.29289C5.10536 3.48043 5 3.73478 5 4V20.113C5 20.603 5.397 21 5.887 21H15C16.0609 21 17.0783 20.5786 17.8284 19.8284C18.5786 19.0783 19 18.0609 19 17V4C19 3.73478 18.8946 3.48043 18.7071 3.29289C18.5196 3.10536 18.2652 3 18 3V3Z" stroke="#F473B9" stroke-width="1.5" stroke-linecap="round" stroke-linejoin="round"/>
<path d="M14 12H8.828C8.6084 12 8.3978 11.9128 8.24252 11.7575C8.08724 11.6022 8 11.3916 8 11.172V6.828C8 6.371 8.371 6 8.828 6H15.172C15.629 6 16 6.371 16 6.828V10C16 10.5304 15.7893 11.0391 15.4142 11.4142C15.0391 11.7893 14.5304 12 14 12Z" stroke="#F473B9" stroke-width="1.5" stroke-linecap="round" stroke-linejoin="round"/>
<path d="M13.437 16.75C13.3876 16.7502 13.3393 16.765 13.2984 16.7926C13.2574 16.8202 13.2255 16.8593 13.2067 16.905C13.188 16.9507 13.1832 17.001 13.1929 17.0494C13.2027 17.0978 13.2266 17.1423 13.2616 17.1771C13.2966 17.212 13.3411 17.2357 13.3896 17.2453C13.4381 17.2548 13.4883 17.2498 13.5339 17.2309C13.5795 17.2119 13.6185 17.1799 13.6459 17.1388C13.6734 17.0977 13.688 17.0494 13.688 17C13.688 16.9671 13.6815 16.9345 13.6689 16.9041C13.6562 16.8737 13.6377 16.8461 13.6144 16.8229C13.5911 16.7996 13.5634 16.7812 13.533 16.7687C13.5025 16.7562 13.4699 16.7499 13.437 16.75Z" stroke="#F473B9" stroke-width="1.5" stroke-linecap="round" stroke-linejoin="round"/>
<path d="M15.437 14.75C15.3876 14.7502 15.3393 14.765 15.2984 14.7926C15.2574 14.8202 15.2255 14.8593 15.2067 14.905C15.188 14.9507 15.1832 15.001 15.1929 15.0494C15.2027 15.0978 15.2266 15.1423 15.2616 15.1771C15.2966 15.212 15.3411 15.2357 15.3896 15.2453C15.4381 15.2548 15.4883 15.2498 15.5339 15.2309C15.5795 15.2119 15.6185 15.1799 15.6459 15.1388C15.6734 15.0977 15.688 15.0494 15.688 15C15.688 14.9671 15.6815 14.9345 15.6689 14.9041C15.6562 14.8737 15.6377 14.8461 15.6144 14.8229C15.5911 14.7996 15.5634 14.7812 15.533 14.7687C15.5025 14.7562 15.4699 14.7499 15.437 14.75Z" stroke="#F473B9" stroke-width="1.5" stroke-linecap="round" stroke-linejoin="round"/>
<path d="M9.44 14.75V17.25" stroke="#F473B9" stroke-width="1.5" stroke-linecap="round" stroke-linejoin="round"/>
<path d="M10.69 16H8.19" stroke="#F473B9" stroke-width="1.5" stroke-linecap="round" stroke-linejoin="round"/>
</svg>
