<svg width="24" height="24" viewBox="0 0 24 24" fill="none" xmlns="http://www.w3.org/2000/svg">
<path d="M14 19.91H21" stroke="#F473B9" stroke-width="1.5" stroke-linecap="round" stroke-linejoin="round"/>
<path d="M19.78 9.78V19.91" stroke="#F473B9" stroke-width="1.5" stroke-linecap="round" stroke-linejoin="round"/>
<path d="M4.301 9.778C2.603 9.766 1.496 8.085 2.232 6.636L3.948 3.259C4.338 2.489 5.16 2 6.062 2H17.938C18.84 2 19.662 2.489 20.053 3.259L21.769 6.636C22.505 8.085 21.398 9.766 19.7 9.778C18.283 9.778 17.134 8.81 17.134 7.615V7.567C17.134 8.788 15.985 9.778 14.568 9.778C13.149 9.778 12 8.788 12 7.567C12 8.788 10.851 9.778 9.434 9.778C8.017 9.778 6.868 8.788 6.868 7.567V7.615C6.867 8.81 5.718 9.778 4.301 9.778V9.778Z" stroke="#F473B9" stroke-width="1.5" stroke-linecap="round" stroke-linejoin="round"/>
<path d="M7.90101 16.8L6.15101 18.55L5.10001 17.5" stroke="#F473B9" stroke-width="1.5" stroke-linecap="round" stroke-linejoin="round"/>
<path d="M2.248 18.232L2.846 19.014L2.975 19.987C3.047 20.527 3.471 20.952 4.011 21.024L4.987 21.154L5.768 21.751C6.2 22.081 6.8 22.082 7.233 21.751L8.015 21.154H8.014L8.988 21.025C9.528 20.953 9.953 20.529 10.025 19.989L10.155 19.013L10.753 18.232C11.083 17.8 11.083 17.2 10.753 16.768L10.155 15.986L10.026 15.013C9.9912 14.7504 9.87088 14.5065 9.68363 14.319C9.49638 14.1316 9.25261 14.0111 8.99 13.976L8.014 13.846L7.233 13.249C7.02267 13.0882 6.76526 13.0011 6.5005 13.0011C6.23574 13.0011 5.97833 13.0882 5.768 13.249L4.986 13.846H4.987L4.013 13.975C3.473 14.047 3.048 14.471 2.976 15.011L2.846 15.987L2.248 16.768C2.08743 16.9782 2.00044 17.2355 2.00044 17.5C2.00044 17.7645 2.08743 18.0218 2.248 18.232V18.232Z" stroke="#F473B9" stroke-width="1.5" stroke-linecap="round" stroke-linejoin="round"/>
</svg>
