<svg width="24" height="24" viewBox="0 0 24 24" fill="none" xmlns="http://www.w3.org/2000/svg">
<path d="M12 10.3333H14.5" stroke="#F473B9" stroke-width="1.5" stroke-linecap="round" stroke-linejoin="round"/>
<path d="M12 7.83334H14.5" stroke="#F473B9" stroke-width="1.5" stroke-linecap="round" stroke-linejoin="round"/>
<path d="M9.08333 7.83334H7.41667C7.18655 7.83334 7 8.01988 7 8.25V9.91667C7 10.1468 7.18655 10.3333 7.41667 10.3333H9.08333C9.31345 10.3333 9.5 10.1468 9.5 9.91667V8.25C9.5 8.01988 9.31345 7.83334 9.08333 7.83334Z" stroke="#F473B9" stroke-width="1.5" stroke-linecap="round" stroke-linejoin="round"/>
<path d="M7 13.25H14.5" stroke="#F473B9" stroke-width="1.5" stroke-linecap="round" stroke-linejoin="round"/>
<path d="M14.5 16.1667H7" stroke="#F473B9" stroke-width="1.5" stroke-linecap="round" stroke-linejoin="round"/>
<path d="M17 8.66667H17.8333C18.2754 8.66667 18.6993 8.84226 19.0118 9.15482C19.3244 9.46738 19.5 9.89131 19.5 10.3333V17.8333C19.5 18.2754 19.3244 18.6993 19.0118 19.0118C18.6993 19.3244 18.2754 19.5 17.8333 19.5H6.16667C5.72464 19.5 5.30072 19.3244 4.98816 19.0118C4.67559 18.6993 4.5 18.2754 4.5 17.8333V6.16667C4.5 5.72464 4.67559 5.30072 4.98816 4.98816C5.30072 4.67559 5.72464 4.5 6.16667 4.5H15.3333C15.7754 4.5 16.1993 4.67559 16.5118 4.98816C16.8244 5.30072 17 5.72464 17 6.16667V19.5" stroke="#F473B9" stroke-width="1.5" stroke-linecap="round" stroke-linejoin="round"/>
</svg>
