<svg width="18" height="20" viewBox="0 0 18 20" fill="none" xmlns="http://www.w3.org/2000/svg">
<path d="M8.73114 10C9.92461 10 11.0692 9.52589 11.9131 8.68198C12.757 7.83807 13.2311 6.69347 13.2311 5.5C13.2311 4.30653 12.757 3.16193 11.9131 2.31802C11.0692 1.47411 9.92461 1 8.73114 1C7.53767 1 6.39307 1.47411 5.54916 2.31802C4.70525 3.16193 4.23114 4.30653 4.23114 5.5C4.23114 6.69347 4.70525 7.83807 5.54916 8.68198C6.39307 9.52589 7.53767 10 8.73114 10V10Z" stroke="#434657" stroke-width="1.5" stroke-linecap="round" stroke-linejoin="round"/>
<path d="M16.4621 19C16.4621 15.517 12.9971 12.7 8.73106 12.7C4.46506 12.7 1.00006 15.517 1.00006 19" stroke="#434657" stroke-width="1.5" stroke-linecap="round" stroke-linejoin="round"/>
</svg>
