<svg width="24" height="24" viewBox="0 0 24 24" fill="none" xmlns="http://www.w3.org/2000/svg">
<path d="M11.1667 19.5H4.5" stroke="#F473B9" stroke-width="1.5" stroke-linecap="round" stroke-linejoin="round"/>
<path d="M5.33333 19.5V6.16667C5.33333 5.72464 5.50892 5.30072 5.82148 4.98816C6.13404 4.67559 6.55797 4.5 6.99999 4.5H14.5C14.942 4.5 15.3659 4.67559 15.6785 4.98816C15.9911 5.30072 16.1667 5.72464 16.1667 6.16667V10.3333" stroke="#F473B9" stroke-width="1.5" stroke-linecap="round" stroke-linejoin="round"/>
<path d="M13.25 7H8.24999C8.01988 7 7.83333 7.18655 7.83333 7.41667V9.91667C7.83333 10.1468 8.01988 10.3333 8.24999 10.3333H13.25C13.4801 10.3333 13.6667 10.1468 13.6667 9.91667V7.41667C13.6667 7.18655 13.4801 7 13.25 7Z" stroke="#F473B9" stroke-width="1.5" stroke-linecap="round" stroke-linejoin="round"/>
<path d="M7.83333 13.6667H9.49999" stroke="#F473B9" stroke-width="1.5" stroke-linecap="round" stroke-linejoin="round"/>
<path d="M16.1667 19.5C18.0076 19.5 19.5 18.0076 19.5 16.1667C19.5 14.3257 18.0076 12.8333 16.1667 12.8333C14.3257 12.8333 12.8333 14.3257 12.8333 16.1667C12.8333 18.0076 14.3257 19.5 16.1667 19.5Z" stroke="#F473B9" stroke-width="1.5" stroke-linecap="round" stroke-linejoin="round"/>
<path d="M17.2775 16.1667H15.0558" stroke="#F473B9" stroke-width="1.5" stroke-linecap="round" stroke-linejoin="round"/>
<path d="M16.1667 15.0558V17.2775" stroke="#F473B9" stroke-width="1.5" stroke-linecap="round" stroke-linejoin="round"/>
</svg>
