<svg width="24" height="24" viewBox="0 0 24 24" fill="none" xmlns="http://www.w3.org/2000/svg">
<path fill-rule="evenodd" clip-rule="evenodd" d="M12.6164 5.20327H12.8972L11.9452 7.09106L15 6.33324L18.0616 5.58218L16.6301 2.74711L15.1986 0L14.4315 1.7051C13.863 1.59684 13.2808 1.50888 12.6164 1.50888C7.16437 1.50888 2.56848 5.37919 1.42464 10.5825L5.43834 10.2036C6.49314 7.26699 9.363 5.1965 12.6164 5.1965V5.20327ZM12.6164 20.4139C9.65067 20.4139 7.06848 18.7088 5.82875 16.1646L7.8356 16.0564L5.63697 13.7017L3.44519 11.5297L1.72601 14.0806L0.00683594 16.7195L1.91779 16.5233C3.54108 20.8807 7.65067 24 12.6301 24C14.0616 24 15.4931 23.7158 16.7397 23.2489L14.5479 20.1297C13.8767 20.3124 13.3014 20.4139 12.637 20.4139H12.6164ZM23.9931 12.8492C23.9931 9.26304 22.3699 6.13702 19.8835 4.16803L18.2534 7.55794C19.5959 8.88413 20.2671 10.7719 20.2671 12.8492C20.2671 14.1754 19.9794 15.4001 19.3082 16.53L18.1575 15.0211L17.3014 18.0524L16.5342 21.0837L19.6849 21.1717L22.8425 21.3544L21.6027 19.6493C23.137 17.7615 23.9931 15.4001 23.9931 12.8492Z" fill="#0E3EDA"/>
</svg>
