<svg width="18" height="22" viewBox="0 0 18 22" fill="none" xmlns="http://www.w3.org/2000/svg">
<path d="M9.02003 1.90991C5.71003 1.90991 3.02003 4.59991 3.02003 7.90991V10.7999C3.02003 11.4099 2.76003 12.3399 2.45003 12.8599L1.30003 14.7699C0.590027 15.9499 1.08003 17.2599 2.38003 17.6999C6.69003 19.1399 11.34 19.1399 15.65 17.6999C16.86 17.2999 17.39 15.8699 16.73 14.7699L15.58 12.8599C15.28 12.3399 15.02 11.4099 15.02 10.7999V7.90991C15.02 4.60991 12.32 1.90991 9.02003 1.90991Z" stroke="#434657" stroke-width="1.5" stroke-miterlimit="10" stroke-linecap="round"/>
<path d="M10.87 2.19994C9.66075 1.85553 8.37933 1.85553 7.17004 2.19994C7.46004 1.45994 8.18004 0.939941 9.02004 0.939941C9.86004 0.939941 10.58 1.45994 10.87 2.19994V2.19994Z" stroke="#434657" stroke-width="1.5" stroke-miterlimit="10" stroke-linecap="round" stroke-linejoin="round"/>
<path d="M12.02 18.0601C12.02 19.7101 10.67 21.0601 9.02002 21.0601C8.20002 21.0601 7.44002 20.7201 6.90002 20.1801C6.33818 19.6174 6.02181 18.8552 6.02002 18.0601" stroke="#434657" stroke-width="1.5" stroke-miterlimit="10"/>
</svg>
