<svg width="20" height="15" viewBox="0 0 20 15" fill="none" xmlns="http://www.w3.org/2000/svg">
<path fill-rule="evenodd" clip-rule="evenodd" d="M3 0.25C1.48122 0.25 0.25 1.48122 0.25 3V5.09091C0.25 5.50512 0.585786 5.84091 1 5.84091C1.9767 5.84091 2.70455 6.56876 2.70455 7.54545C2.70455 8.52215 1.9767 9.25 1 9.25C0.585786 9.25 0.25 9.58579 0.25 10V12.0909C0.25 13.6097 1.48122 14.8409 3 14.8409H17C18.5188 14.8409 19.75 13.6097 19.75 12.0909V10C19.75 9.58579 19.4142 9.25 19 9.25C18.0233 9.25 17.2955 8.52215 17.2955 7.54545C17.2955 6.56876 18.0233 5.84091 19 5.84091C19.4142 5.84091 19.75 5.50512 19.75 5.09091V3C19.75 1.48122 18.5188 0.25 17 0.25H3ZM1.75 3C1.75 2.30964 2.30964 1.75 3 1.75H17C17.6904 1.75 18.25 2.30964 18.25 3V4.42463C16.8216 4.75142 15.7955 5.99969 15.7955 7.54545C15.7955 9.09122 16.8216 10.3395 18.25 10.6663V12.0909C18.25 12.7813 17.6904 13.3409 17 13.3409H3C2.30964 13.3409 1.75 12.7813 1.75 12.0909V10.6663C3.17837 10.3395 4.20455 9.09122 4.20455 7.54545C4.20455 5.99969 3.17837 4.75142 1.75 4.42463V3ZM12.9849 5.62115C13.2778 5.32826 13.2778 4.85338 12.9849 4.56049C12.692 4.2676 12.2171 4.2676 11.9242 4.56049L7.01511 9.46958C6.72222 9.76247 6.72222 10.2373 7.01511 10.5302C7.308 10.8231 7.78288 10.8231 8.07577 10.5302L12.9849 5.62115ZM9.18184 4.68186C9.18184 5.35967 8.63237 5.90913 7.95457 5.90913C7.27676 5.90913 6.72729 5.35967 6.72729 4.68186C6.72729 4.00406 7.27676 3.45459 7.95457 3.45459C8.63237 3.45459 9.18184 4.00406 9.18184 4.68186ZM12.0454 11.6362C12.7233 11.6362 13.2727 11.0867 13.2727 10.4089C13.2727 9.73111 12.7233 9.18164 12.0454 9.18164C11.3676 9.18164 10.8182 9.73111 10.8182 10.4089C10.8182 11.0867 11.3676 11.6362 12.0454 11.6362Z" fill="#434657"/>
</svg>
