<svg width="24" height="24" viewBox="0 0 24 24" fill="none" xmlns="http://www.w3.org/2000/svg">
<path d="M11.6 19.2C12.598 19.2 13.5863 19.0034 14.5084 18.6215C15.4305 18.2395 16.2683 17.6797 16.974 16.974C17.6797 16.2683 18.2395 15.4305 18.6215 14.5084C19.0034 13.5863 19.2 12.598 19.2 11.6C19.2 10.602 19.0034 9.61368 18.6215 8.69161C18.2395 7.76953 17.6797 6.93171 16.974 6.22599C16.2683 5.52026 15.4305 4.96045 14.5084 4.57852C13.5863 4.19658 12.598 4 11.6 4C9.58435 4 7.65126 4.80071 6.22599 6.22599C4.80071 7.65126 4 9.58435 4 11.6C4 13.6156 4.80071 15.5487 6.22599 16.974C7.65126 18.3993 9.58435 19.2 11.6 19.2V19.2Z" stroke="#434657" stroke-width="1.5" stroke-linecap="round" stroke-linejoin="round"/>
<path d="M19.9999 20L18.3999 18.4" stroke="#434657" stroke-width="1.5" stroke-linecap="round" stroke-linejoin="round"/>
</svg>
