<svg width="24" height="24" viewBox="0 0 24 24" fill="none" xmlns="http://www.w3.org/2000/svg">
<path d="M9.56999 12.46L6.51999 15.51" stroke="#F473B9" stroke-width="1.5" stroke-miterlimit="10" stroke-linecap="round" stroke-linejoin="round"/>
<path d="M6.54999 12.49L9.59999 15.54" stroke="#F473B9" stroke-width="1.5" stroke-miterlimit="10" stroke-linecap="round" stroke-linejoin="round"/>
<path d="M13.53 14H13.54" stroke="#F473B9" stroke-width="2" stroke-miterlimit="10" stroke-linecap="round" stroke-linejoin="round"/>
<path d="M17.47 14H17.48" stroke="#F473B9" stroke-width="2" stroke-miterlimit="10" stroke-linecap="round" stroke-linejoin="round"/>
<path d="M15.5 15.98V15.96" stroke="#F473B9" stroke-width="2" stroke-miterlimit="10" stroke-linecap="round" stroke-linejoin="round"/>
<path d="M15.5 12.04V12.02" stroke="#F473B9" stroke-width="2" stroke-miterlimit="10" stroke-linecap="round" stroke-linejoin="round"/>
<path d="M9 22H15C20 22 22 20 22 15V13C22 8 20 6 15 6H9C4 6 2 8 2 13V15C2 20 4 22 9 22Z" stroke="#F473B9" stroke-width="1.5" stroke-linecap="round" stroke-linejoin="round"/>
<path d="M13.01 2L13 3.01C12.9974 3.27348 12.8909 3.52527 12.7036 3.71065C12.5164 3.89603 12.2635 4.00001 12 4H11.97C11.42 4 10.98 4.45 10.98 5C10.98 5.55 11.43 6 11.98 6H12.98" stroke="#F473B9" stroke-width="1.5" stroke-linecap="round" stroke-linejoin="round"/>
</svg>
