<svg width="24" height="24" viewBox="0 0 24 24" fill="none" xmlns="http://www.w3.org/2000/svg">
<path d="M13.6667 18.5917H19.5" stroke="#F473B9" stroke-width="1.5" stroke-linecap="round" stroke-linejoin="round"/>
<path d="M18.4833 10.15V18.5917" stroke="#F473B9" stroke-width="1.5" stroke-linecap="round" stroke-linejoin="round"/>
<path d="M12.8334 12.8333H15.3334V15.3333H13.6667" stroke="#F473B9" stroke-width="1.5" stroke-linecap="round" stroke-linejoin="round"/>
<path d="M14.15 10.15L14.1416 10.1492C13.5697 10.1476 13.0216 9.91975 12.6172 9.51531C12.2127 9.11088 11.9848 8.56279 11.9833 7.99084V7.98167C11.9822 8.5541 11.7537 9.10264 11.3482 9.50663C10.9426 9.91061 10.3932 10.1369 9.82079 10.1358C9.24837 10.1347 8.69983 9.90628 8.29584 9.50073C7.89186 9.09519 7.66552 8.54577 7.66663 7.97334V7.96501C7.6631 8.53481 7.43404 9.08003 7.02956 9.48139C6.62508 9.88274 6.07811 10.1076 5.50829 10.1067H5.49996C4.45829 10.1067 3.61663 9.26501 3.61663 8.22334C3.60829 7.92334 3.68329 7.63167 3.81663 7.37334L5.25829 4.52334H5.24996C5.53329 3.95667 6.10829 3.60667 6.73329 3.60667H17.125C17.75 3.60667 18.325 3.95667 18.6083 4.51501L20.05 7.35667C20.5166 8.27334 20.15 9.40667 19.225 9.87334C18.9583 10.0067 18.6666 10.0733 18.375 10.0733V10.0725C17.8025 10.0725 17.2536 9.84511 16.8488 9.44035C16.444 9.03558 16.2166 8.4866 16.2166 7.91417V7.89751C16.2131 8.46731 15.984 9.01253 15.5796 9.41389C15.1751 9.81524 14.6281 10.0401 14.0583 10.0392" stroke="#F473B9" stroke-width="1.5" stroke-linecap="round" stroke-linejoin="round"/>
<path d="M3.66666 14.9166V17.8333L3.65833 17.825C3.65833 18.625 4.30833 19.275 5.10833 19.2833H9.69166V19.2825C10.4917 19.2741 11.15 18.6241 11.15 17.8158V14.8991C11.15 14.0908 10.4917 13.4408 9.69166 13.4325H5.09166C4.28333 13.4325 3.63333 14.0825 3.63333 14.8908L3.66666 14.9166Z" stroke="#F473B9" stroke-width="1.5" stroke-linecap="round" stroke-linejoin="round"/>
<path d="M11.1667 16.05H3.66669" stroke="#F473B9" stroke-width="1.5" stroke-linecap="round" stroke-linejoin="round"/>
</svg>
