<svg width="24" height="24" viewBox="0 0 24 24" fill="none" xmlns="http://www.w3.org/2000/svg">
<path d="M13.6627 3.11264C18.1112 3.96799 21.4717 7.87879 21.4717 12.574C21.4717 17.8953 17.1551 22.2091 11.8302 22.2091C6.50533 22.2091 2.18867 17.8953 2.18867 12.574C2.18867 7.87879 5.54922 3.96799 9.99775 3.11264" stroke="#F473B9" stroke-width="1.5"/>
<circle cx="11.8302" cy="12.5675" r="1.8039" stroke="#F473B9" stroke-width="1.36847"/>
<rect x="11.0838" y="4.7299" width="1.49288" height="6.46915" fill="#F473B9"/>
<rect x="18.098" y="5.39966" width="1.49288" height="8.08644" transform="rotate(45 18.098 5.39966)" fill="#F473B9"/>
<rect x="21.4406" y="11.9766" width="1.49288" height="8.08644" transform="rotate(90 21.4406 11.9766)" fill="#F473B9"/>
<rect x="19.1536" y="18.9908" width="1.49288" height="8.08644" transform="rotate(135 19.1536 18.9908)" fill="#F473B9"/>
<rect x="11.0838" y="14.247" width="1.49288" height="8.08644" fill="#F473B9"/>
<rect x="10.2248" y="13.2729" width="1.49288" height="8.08644" transform="rotate(45 10.2248 13.2729)" fill="#F473B9"/>
<rect x="10.3062" y="11.9766" width="1.49288" height="8.08644" transform="rotate(90 10.3062 11.9766)" fill="#F473B9"/>
<rect x="11.2804" y="11.1176" width="1.49288" height="8.08644" transform="rotate(135 11.2804 11.1176)" fill="#F473B9"/>
<path fill-rule="evenodd" clip-rule="evenodd" d="M15.1161 1.28969C15.2437 1.51156 15.2431 1.78471 15.1144 2.00598L12.4797 6.53708C12.3516 6.75733 12.1161 6.89283 11.8613 6.89283C11.6065 6.89283 11.371 6.75733 11.2429 6.53708L8.60818 2.00598C8.47951 1.78471 8.47888 1.51156 8.60652 1.28969C8.73416 1.06782 8.97061 0.931061 9.22657 0.931061H14.496C14.752 0.931061 14.9885 1.06782 15.1161 1.28969ZM10.47 2.36174L11.8613 4.75443L13.2526 2.36174H10.47Z" fill="#F473B9"/>
</svg>
