<svg width="24" height="24" viewBox="0 0 24 24" fill="none" xmlns="http://www.w3.org/2000/svg">
<path d="M16.3799 17.0001L16.3899 17.0301C16.4428 17.2271 16.4563 17.4325 16.4295 17.6347C16.4028 17.8369 16.3365 18.0319 16.2343 18.2084C16.1321 18.3849 15.9961 18.5395 15.834 18.6634C15.672 18.7872 15.4871 18.8778 15.2899 18.9301L7.77993 20.9501C7.3808 21.0568 6.95564 21.001 6.59762 20.7948C6.2396 20.5886 5.97792 20.2489 5.86993 19.8501L3.04993 9.33008C2.94457 8.931 3.00102 8.50647 3.20701 8.14879C3.413 7.79112 3.75187 7.52923 4.14993 7.42008L10.1099 5.83008" stroke="#434657" stroke-width="1.5" stroke-linecap="round" stroke-linejoin="round"/>
<path d="M20.1411 3H10.9701C10.4957 3 10.1111 3.38459 10.1111 3.859V16.141C10.1111 16.6154 10.4957 17 10.9701 17H20.1411C20.6155 17 21.0001 16.6154 21.0001 16.141V3.859C21.0001 3.38459 20.6155 3 20.1411 3Z" stroke="#434657" stroke-width="1.5" stroke-linecap="round" stroke-linejoin="round"/>
<path d="M16.23 7.91939L17.485 9.51639C17.5995 9.66533 17.6617 9.84797 17.6617 10.0359C17.6617 10.2238 17.5995 10.4064 17.485 10.5554L16.229 12.1524C16.1628 12.2402 16.0771 12.3114 15.9787 12.3605C15.8803 12.4095 15.7719 12.4351 15.662 12.4351C15.552 12.4351 15.4436 12.4095 15.3452 12.3605C15.2468 12.3114 15.1611 12.2402 15.095 12.1524L13.839 10.5554C13.7241 10.4064 13.6619 10.2235 13.6619 10.0354C13.6619 9.84726 13.7241 9.66442 13.839 9.51539L15.095 7.91939C15.1611 7.83159 15.2468 7.76036 15.3452 7.7113C15.4436 7.66225 15.552 7.63672 15.662 7.63672C15.7719 7.63672 15.8803 7.66225 15.9787 7.7113C16.0771 7.76036 16.1628 7.83159 16.229 7.91939H16.23Z" stroke="#434657" stroke-width="1.5" stroke-linecap="round" stroke-linejoin="round"/>
</svg>
