<svg width="24" height="24" viewBox="0 0 24 24" fill="none" xmlns="http://www.w3.org/2000/svg">
<path fill-rule="evenodd" clip-rule="evenodd" d="M8.83551 6.91304C8.83551 5.13595 10.2215 3.75 11.9986 3.75C13.7756 3.75 15.1616 5.13595 15.1616 6.91304V9.29346H8.83551V6.91304ZM7.33551 9.29346V6.91304C7.33551 4.30753 9.39304 2.25 11.9986 2.25C14.6041 2.25 16.6616 4.30753 16.6616 6.91304V9.29346H17.042C18.5608 9.29346 19.792 10.5247 19.792 12.0435V19C19.792 20.5188 18.5608 21.75 17.042 21.75H6.95508C5.4363 21.75 4.20508 20.5188 4.20508 19V12.0435C4.20508 10.5247 5.43629 9.29346 6.95508 9.29346H7.33551ZM5.70508 12.0435C5.70508 11.3531 6.26472 10.7935 6.95508 10.7935H17.042C17.7324 10.7935 18.292 11.3531 18.292 12.0435V19C18.292 19.6903 17.7324 20.25 17.042 20.25H6.95508C6.26472 20.25 5.70508 19.6903 5.70508 19V12.0435ZM11.9986 13.9238C11.5483 13.9238 11.1833 14.2888 11.1833 14.739C11.1833 15.1869 11.5445 15.5504 11.9914 15.5542C11.9938 15.5542 11.9962 15.5542 11.9986 15.5542C12.0009 15.5542 12.0033 15.5542 12.0057 15.5542C12.4526 15.5504 12.8138 15.1869 12.8138 14.739C12.8138 14.2888 12.4488 13.9238 11.9986 13.9238ZM12.7486 16.9301C13.6591 16.6185 14.3138 15.7552 14.3138 14.739C14.3138 13.4604 13.2772 12.4238 11.9986 12.4238C10.7199 12.4238 9.68334 13.4604 9.68334 14.739C9.68334 15.7552 10.338 16.6185 11.2486 16.9301V17.8694C11.2486 18.2836 11.5843 18.6194 11.9986 18.6194C12.4128 18.6194 12.7486 18.2836 12.7486 17.8694V16.9301Z" fill="#434657"/>
</svg>
