<svg width="24" height="24" viewBox="0 0 24 24" fill="none" xmlns="http://www.w3.org/2000/svg">
<path d="M0 12C0 5.37258 5.37258 0 12 0C18.6274 0 24 5.37258 24 12C24 18.6274 18.6274 24 12 24C5.37258 24 0 18.6274 0 12Z" fill="#E4E5F0"/>
<path fill-rule="evenodd" clip-rule="evenodd" d="M8.86977 9.8181C8.86977 11.547 10.2711 12.9483 12 12.9483C13.7289 12.9483 15.1311 11.547 15.1311 9.8181V8.253C15.1311 6.5241 13.7289 5.1228 12 5.1228C10.2711 5.1228 8.86977 6.5241 8.86977 8.253V9.8181ZM7.70572 14.7383L10.2212 13.2947C10.2212 13.2947 10.9628 13.8482 12.0005 13.8482C13.0373 13.8482 13.7762 13.2965 13.7762 13.2965L16.2953 14.7383C17.027 15.155 17.4779 15.9344 17.4779 16.7768V17.36C17.4779 17.36 16.1171 19.2113 12.0005 19.2113C7.88392 19.2113 6.52222 17.36 6.52222 17.36V16.7768C6.52222 15.9344 6.97402 15.155 7.70572 14.7383Z" fill="#BCBFD6"/>
</svg>
