<svg width="17" height="16" viewBox="0 0 17 16" fill="none" xmlns="http://www.w3.org/2000/svg">
<path d="M9.95545 14.6667H7.16475V10.1706H6.5756C6.21591 10.1706 5.92444 9.87908 5.92444 9.51939V8.3411C5.92444 7.98141 6.21591 7.68993 6.5756 7.68993H7.16475V6.13955C7.16475 4.85583 8.20661 3.81396 9.49033 3.81396H11.1647C11.5244 3.81396 11.8159 4.10544 11.8159 4.46513V5.9535C11.8159 6.31319 11.5244 6.60466 11.1647 6.60466H9.95545V7.68993H11.1213C11.2175 7.68945 11.3126 7.71036 11.3996 7.75117C11.4867 7.79198 11.5636 7.85166 11.6248 7.92587C11.6859 8.00008 11.7298 8.08698 11.7532 8.18025C11.7766 8.27352 11.779 8.37083 11.7601 8.46513L11.5244 9.64342C11.4624 9.9473 11.1958 10.1644 10.8857 10.1644H9.95545V14.6667ZM8.09498 13.7364H9.02521V9.24032H10.6624L10.7865 8.62017H9.03142V6.32559C9.03142 5.9659 9.32289 5.67443 9.68258 5.67443H10.8919V4.7442H9.49033C8.72134 4.7442 8.09498 5.37055 8.09498 6.13955V8.62017H6.85467V9.24032H8.09498V13.7364Z" fill="#0E3EDA"/>
<path d="M10.1105 14.6668H6.38955C3.0221 14.6668 1.58334 13.2281 1.58334 9.86063V6.1397C1.58334 2.77226 3.0221 1.3335 6.38955 1.3335H10.1105C13.4779 1.3335 14.9167 2.77226 14.9167 6.1397V9.86063C14.9167 13.2281 13.4779 14.6668 10.1105 14.6668ZM6.38955 2.26373C3.53063 2.26373 2.51358 3.28078 2.51358 6.1397V9.86063C2.51358 12.7195 3.53063 13.7366 6.38955 13.7366H10.1105C12.9694 13.7366 13.9864 12.7195 13.9864 9.86063V6.1397C13.9864 3.28078 12.9694 2.26373 10.1105 2.26373H6.38955Z" fill="#0E3EDA"/>
</svg>
