<svg width="17" height="16" viewBox="0 0 17 16" fill="none" xmlns="http://www.w3.org/2000/svg">
<path d="M8.85364 15.1674C8.40697 15.1674 7.95364 15.054 7.55364 14.8207L3.59364 12.534C2.79364 12.0674 2.29364 11.2074 2.29364 10.2807V5.72069C2.29364 4.79402 2.79364 3.93402 3.59364 3.46736L7.55364 1.18069C8.35364 0.714022 9.34697 0.714022 10.1536 1.18069L14.1136 3.46736C14.9136 3.93402 15.4136 4.79402 15.4136 5.72069V10.2807C15.4136 11.2074 14.9136 12.0674 14.1136 12.534L10.1536 14.8207C9.75364 15.054 9.30031 15.1674 8.85364 15.1674ZM8.85364 1.83402C8.58031 1.83402 8.30031 1.90736 8.05364 2.04736L4.09364 4.33402C3.60031 4.62069 3.29364 5.14736 3.29364 5.72069V10.2807C3.29364 10.8474 3.60031 11.3807 4.09364 11.6674L8.05364 13.954C8.54697 14.2407 9.16031 14.2407 9.65364 13.954L13.6136 11.6674C14.107 11.3807 14.4136 10.854 14.4136 10.2807V5.72069C14.4136 5.15402 14.107 4.62069 13.6136 4.33402L9.65364 2.04736C9.40697 1.90736 9.12697 1.83402 8.85364 1.83402Z" fill="#A7ABC3"/>
<path d="M8.85497 7.83335C7.72164 7.83335 6.80164 6.91335 6.80164 5.78002C6.80164 4.64668 7.72164 3.72668 8.85497 3.72668C9.9883 3.72668 10.9083 4.64668 10.9083 5.78002C10.9083 6.91335 9.9883 7.83335 8.85497 7.83335ZM8.85497 4.72668C8.27497 4.72668 7.80164 5.20002 7.80164 5.78002C7.80164 6.36002 8.27497 6.83335 8.85497 6.83335C9.43497 6.83335 9.9083 6.36002 9.9083 5.78002C9.9083 5.20002 9.43497 4.72668 8.85497 4.72668Z" fill="#A7ABC3"/>
<path d="M11.5202 11.6053C11.2469 11.6053 11.0202 11.3787 11.0202 11.1053C11.0202 10.1853 10.0469 9.43201 8.85356 9.43201C7.66022 9.43201 6.68689 10.1853 6.68689 11.1053C6.68689 11.3787 6.46022 11.6053 6.18689 11.6053C5.91356 11.6053 5.68689 11.3787 5.68689 11.1053C5.68689 9.63201 7.10689 8.43201 8.85356 8.43201C10.6002 8.43201 12.0202 9.63201 12.0202 11.1053C12.0202 11.3787 11.7936 11.6053 11.5202 11.6053Z" fill="#A7ABC3"/>
</svg>
