<svg width="35" height="31" viewBox="0 0 35 31" fill="none" xmlns="http://www.w3.org/2000/svg">
<path d="M32.75 18.05C32.75 18.05 32.75 18.14 32.75 18.18C32.75 18.22 32.75 18.25 32.75 18.29V18.05ZM31.88 10.42H22.75C22.2196 10.42 21.7109 10.2093 21.3358 9.83421C20.9607 9.45914 20.75 8.95043 20.75 8.42V4.57999C20.7503 4.04359 20.6427 3.5126 20.4336 3.01863C20.2245 2.52465 19.9182 2.07778 19.5329 1.70459C19.1476 1.33141 18.6911 1.03954 18.1907 0.846336C17.6903 0.653137 17.1562 0.562561 16.62 0.579994C16.1124 0.613056 15.6365 0.838278 15.2891 1.20983C14.9417 1.58138 14.749 2.07133 14.75 2.57999V6.58C14.75 9.42 10.75 11.42 10.75 13.42V26.21C10.7455 26.5769 10.842 26.938 11.029 27.2537C11.2159 27.5694 11.4861 27.8276 11.81 28L13.05 28.66C15.2304 29.8289 17.6661 30.4404 20.14 30.44H27.88C28.6412 30.44 29.3712 30.1376 29.9094 29.5994C30.4477 29.0612 30.75 28.3312 30.75 27.57V27.31C30.7463 26.852 30.6295 26.402 30.41 26C30.8205 25.7436 31.1589 25.3869 31.3933 24.9635C31.6278 24.5401 31.7505 24.064 31.75 23.58V22.82C31.7497 22.436 31.6725 22.0559 31.5231 21.7021C31.3737 21.3483 31.1551 21.028 30.88 20.76C31.4061 20.5643 31.8629 20.2182 32.1936 19.7648C32.5244 19.3114 32.7144 18.7707 32.74 18.21C32.7112 17.539 32.4495 16.899 32 16.4C32.7323 16.3641 33.4228 16.0484 33.929 15.518C34.4352 14.9876 34.7183 14.2831 34.72 13.55V13.29C34.7227 12.5332 34.4253 11.8062 33.893 11.2683C33.3607 10.7303 32.6368 10.4253 31.88 10.42Z" fill="#F473B9"/>
<path d="M7.75 11.4199H0.75C0.617392 11.4199 0.490215 11.4726 0.396447 11.5664C0.302679 11.6601 0.25 11.7873 0.25 11.9199V27.9199C0.25 28.0525 0.302679 28.1797 0.396447 28.2735C0.490215 28.3672 0.617392 28.4199 0.75 28.4199H7.75C7.88261 28.4199 8.00979 28.3672 8.10355 28.2735C8.19732 28.1797 8.25 28.0525 8.25 27.9199V11.9199C8.25 11.7873 8.19732 11.6601 8.10355 11.5664C8.00979 11.4726 7.88261 11.4199 7.75 11.4199ZM4.25 25.4199C3.95333 25.4199 3.66332 25.3319 3.41665 25.1671C3.16997 25.0023 2.97771 24.768 2.86418 24.4939C2.75065 24.2199 2.72094 23.9183 2.77882 23.6273C2.8367 23.3363 2.97956 23.069 3.18934 22.8593C3.39912 22.6495 3.66639 22.5066 3.95736 22.4487C4.24834 22.3909 4.54994 22.4206 4.82403 22.5341C5.09811 22.6476 5.33238 22.8399 5.4972 23.0866C5.66203 23.3332 5.75 23.6232 5.75 23.9199C5.75 24.3177 5.59196 24.6993 5.31066 24.9806C5.02936 25.2619 4.64782 25.4199 4.25 25.4199Z" fill="#F473B9"/>
</svg>
