<svg width="32" height="36" viewBox="0 0 32 36" fill="none" xmlns="http://www.w3.org/2000/svg">
<path d="M29.25 10.78C29.1135 10.7696 28.9765 10.7696 28.84 10.78C28.1888 7.85618 26.5603 5.24175 24.2233 3.368C21.8863 1.49425 18.9804 0.473145 15.985 0.473145C12.9896 0.473145 10.0837 1.49425 7.74666 3.368C5.40965 5.24175 3.78121 7.85618 3.13 10.78C3.00352 10.7701 2.87648 10.7701 2.75 10.78C2.08696 10.78 1.45107 11.0433 0.982233 11.5122C0.513392 11.981 0.25 12.6169 0.25 13.28V16.28C0.25 16.943 0.513392 17.5789 0.982233 18.0477C1.45107 18.5166 2.08696 18.78 2.75 18.78C3.04399 18.7791 3.33537 18.7249 3.61 18.62C3.97831 19.5506 4.61743 20.3492 5.44466 20.9126C6.27189 21.476 7.24915 21.7781 8.25 21.78C8.51522 21.78 8.76957 21.6746 8.95711 21.4871C9.14464 21.2995 9.25 21.0452 9.25 20.78C9.25 20.5147 9.14464 20.2604 8.95711 20.0728C8.76957 19.8853 8.51522 19.78 8.25 19.78C7.45435 19.78 6.69129 19.4639 6.12868 18.9013C5.56607 18.3387 5.25 17.5756 5.25 16.78V13.61C5.31723 10.793 6.47572 8.11222 8.4812 6.13286C10.4867 4.1535 13.1824 3.03026 16 2.99995C18.8804 3.03949 21.6275 4.2197 23.639 6.28178C25.6504 8.34386 26.762 11.1195 26.73 14C26.73 14 26.73 14.05 26.73 14.07V16.26C26.73 16.923 26.9934 17.5589 27.4622 18.0277C27.9311 18.4966 28.567 18.76 29.23 18.76C29.893 18.76 30.5289 18.4966 30.9978 18.0277C31.4666 17.5589 31.73 16.923 31.73 16.26V13.26C31.7248 12.6038 31.4618 11.9761 30.9978 11.5121C30.5339 11.0481 29.9061 10.7852 29.25 10.78Z" fill="#F473B9"/>
<path d="M24.19 24.77H21.25C20.9284 24.7694 20.6115 24.8464 20.326 24.9943C20.0405 25.1423 19.7949 25.3569 19.61 25.62L17.56 28.56C17.376 28.8261 17.1302 29.0436 16.8437 29.1938C16.5572 29.344 16.2385 29.4225 15.915 29.4225C15.5915 29.4225 15.2728 29.344 14.9863 29.1938C14.6998 29.0436 14.454 28.8261 14.27 28.56L12.27 25.66C12.0864 25.3918 11.8401 25.1725 11.5526 25.0209C11.2651 24.8693 10.945 24.79 10.62 24.79H7.76999C5.98773 24.79 4.27848 25.498 3.01823 26.7583C1.75799 28.0185 1.04999 29.7278 1.04999 31.51V34.51C1.04999 34.7752 1.15534 35.0296 1.34288 35.2171C1.53042 35.4047 1.78477 35.51 2.04999 35.51H29.91C30.1752 35.51 30.4296 35.4047 30.6171 35.2171C30.8046 35.0296 30.91 34.7752 30.91 34.51V31.51C30.9126 30.6259 30.7407 29.7499 30.4042 28.9322C30.0677 28.1146 29.5731 27.3715 28.9488 26.7453C28.3246 26.1192 27.5829 25.6224 26.7663 25.2835C25.9496 24.9445 25.0742 24.77 24.19 24.77ZM16 22.27C17.6304 22.268 19.2237 21.783 20.5786 20.8762C21.9336 19.9693 22.9895 18.6813 23.6129 17.1748C24.2364 15.6683 24.3995 14.0109 24.0817 12.4117C23.7638 10.8126 22.9793 9.3435 21.8271 8.18992C20.6749 7.03635 19.2068 6.25003 17.608 5.93026C16.0093 5.61048 14.3516 5.77159 12.8444 6.39324C11.3371 7.01489 10.0479 8.06921 9.13938 9.42306C8.2309 10.7769 7.74394 12.3696 7.73999 14C7.73735 15.0859 7.94914 16.1617 8.36318 17.1656C8.77723 18.1695 9.3854 19.0818 10.1528 19.8501C10.9202 20.6185 11.8318 21.2277 12.8352 21.643C13.8385 22.0583 14.9141 22.2713 16 22.27Z" fill="#F473B9"/>
</svg>
