<svg width="12" height="12" viewBox="0 0 12 12" fill="none" xmlns="http://www.w3.org/2000/svg">
<path fill-rule="evenodd" clip-rule="evenodd" d="M6.5 0.666667C6.5 0.390525 6.27614 0.166667 6 0.166667C5.72386 0.166667 5.5 0.390525 5.5 0.666667V5.5H0.666666C0.390524 5.5 0.166666 5.72386 0.166666 6C0.166666 6.27614 0.390524 6.5 0.666666 6.5H5.5V11.3333C5.5 11.6095 5.72386 11.8333 6 11.8333C6.27614 11.8333 6.5 11.6095 6.5 11.3333V6.5H11.3333C11.6095 6.5 11.8333 6.27614 11.8333 6C11.8333 5.72386 11.6095 5.5 11.3333 5.5H6.5V0.666667Z" fill="#434657"/>
</svg>
