<svg width="25" height="24" viewBox="0 0 25 24" fill="none" xmlns="http://www.w3.org/2000/svg">
<path d="M18.5 3H6.5C6.23478 3 5.98043 3.10536 5.79289 3.29289C5.60536 3.48043 5.5 3.73478 5.5 4V20.113C5.5 20.603 5.897 21 6.387 21H15.5C16.5609 21 17.5783 20.5786 18.3284 19.8284C19.0786 19.0783 19.5 18.0609 19.5 17V4C19.5 3.73478 19.3946 3.48043 19.2071 3.29289C19.0196 3.10536 18.7652 3 18.5 3V3Z" stroke="#A7ABC3" stroke-width="1.5" stroke-linecap="round" stroke-linejoin="round"/>
<path d="M14.5 12H9.328C9.1084 12 8.8978 11.9128 8.74252 11.7575C8.58724 11.6022 8.5 11.3916 8.5 11.172V6.828C8.5 6.371 8.871 6 9.328 6H15.672C16.129 6 16.5 6.371 16.5 6.828V10C16.5 10.5304 16.2893 11.0391 15.9142 11.4142C15.5391 11.7893 15.0304 12 14.5 12Z" stroke="#A7ABC3" stroke-width="1.5" stroke-linecap="round" stroke-linejoin="round"/>
<path d="M13.937 16.75C13.8876 16.7502 13.8393 16.765 13.7984 16.7926C13.7574 16.8202 13.7255 16.8593 13.7067 16.905C13.688 16.9507 13.6832 17.001 13.6929 17.0494C13.7027 17.0978 13.7266 17.1423 13.7616 17.1771C13.7966 17.212 13.8411 17.2357 13.8896 17.2453C13.9381 17.2548 13.9883 17.2498 14.0339 17.2309C14.0795 17.2119 14.1185 17.1799 14.1459 17.1388C14.1734 17.0977 14.188 17.0494 14.188 17C14.188 16.9671 14.1815 16.9345 14.1689 16.9041C14.1562 16.8737 14.1377 16.8461 14.1144 16.8229C14.0911 16.7996 14.0634 16.7812 14.033 16.7687C14.0025 16.7562 13.9699 16.7499 13.937 16.75Z" stroke="#A7ABC3" stroke-width="1.5" stroke-linecap="round" stroke-linejoin="round"/>
<path d="M15.937 14.75C15.8876 14.7502 15.8393 14.765 15.7984 14.7926C15.7574 14.8202 15.7255 14.8593 15.7067 14.905C15.688 14.9507 15.6832 15.001 15.6929 15.0494C15.7027 15.0978 15.7266 15.1423 15.7616 15.1771C15.7966 15.212 15.8411 15.2357 15.8896 15.2453C15.9381 15.2548 15.9883 15.2498 16.0339 15.2309C16.0795 15.2119 16.1185 15.1799 16.1459 15.1388C16.1734 15.0977 16.188 15.0494 16.188 15C16.188 14.9671 16.1815 14.9345 16.1689 14.9041C16.1562 14.8737 16.1377 14.8461 16.1144 14.8229C16.0911 14.7996 16.0634 14.7812 16.033 14.7687C16.0025 14.7562 15.9699 14.7499 15.937 14.75Z" stroke="#A7ABC3" stroke-width="1.5" stroke-linecap="round" stroke-linejoin="round"/>
<path d="M9.94 14.75V17.25" stroke="#A7ABC3" stroke-width="1.5" stroke-linecap="round" stroke-linejoin="round"/>
<path d="M11.19 16H8.69" stroke="#A7ABC3" stroke-width="1.5" stroke-linecap="round" stroke-linejoin="round"/>
</svg>
