<svg width="6" height="4" viewBox="0 0 6 4" fill="none" xmlns="http://www.w3.org/2000/svg">
<path d="M4.94507 0.732644C4.73026 0.732644 4.55612 0.91143 4.55612 1.13197C4.5562 1.17383 4.56277 1.21541 4.57557 1.25516L4.26013 1.46101C4.05244 1.59687 3.77862 1.55184 3.62264 1.35619L3.31343 0.967855C3.36264 0.899843 3.38924 0.817381 3.38927 0.732654C3.38927 0.512118 3.21513 0.333332 3.00032 0.333332C2.78552 0.333332 2.61138 0.512118 2.61138 0.732654C2.61141 0.817381 2.63801 0.899843 2.68722 0.967855L2.37801 1.35619C2.22206 1.55173 1.94836 1.59674 1.74072 1.46101L1.42511 1.25516C1.43792 1.21541 1.44448 1.17383 1.44455 1.13197C1.44459 0.91143 1.27049 0.732616 1.05567 0.732579C0.84087 0.732541 0.666664 0.911299 0.666664 1.13183C0.666664 1.33886 0.820705 1.51158 1.02157 1.52969L1.25144 2.94527C1.25924 2.9934 1.29978 3.02872 1.34731 3.02872H4.65336C4.70089 3.02872 4.74144 2.9934 4.74923 2.94527L4.9791 1.52969C5.19305 1.50999 5.35094 1.31595 5.33175 1.09629C5.31379 0.890681 5.14614 0.733028 4.94507 0.732644Z" fill="#FFC107"/>
</svg>
