<svg width="14" height="12" viewBox="0 0 14 12" fill="none" xmlns="http://www.w3.org/2000/svg">
<path d="M13.1158 1.19409C13.1411 1.18529 13.1671 1.17858 13.1934 1.17398C13.1926 1.19836 13.1908 1.21794 13.1882 1.24684C13.1855 1.27821 13.1817 1.32056 13.1771 1.39197L13.177 1.39348C13.1621 1.633 13.0271 2.33858 12.8138 3.32053C12.6053 4.28068 12.3335 5.45576 12.0634 6.5974C11.7934 7.73855 11.5255 8.84414 11.3251 9.6646C11.2249 10.0748 11.1416 10.4136 11.0834 10.6498L11.0158 10.9233L10.998 10.995L10.9935 11.0133L10.9924 11.0179L10.9921 11.019L10.992 11.0193L11.4773 11.1399L10.9916 11.021C10.9826 11.0578 10.9626 11.091 10.9342 11.1162C10.9108 11.137 10.8825 11.1515 10.8522 11.1585C10.815 11.1572 10.7782 11.1497 10.7434 11.1363C10.7011 11.12 10.6626 11.0954 10.6301 11.0639L10.6196 11.0538L10.6086 11.0443C10.1035 10.6093 8.96466 9.80227 7.93658 9.09243L7.62263 8.87566L7.33066 9.12123C7.03015 9.37398 6.44372 9.87995 5.81845 10.4975L6.03942 8.18643C6.17092 8.0691 6.43214 7.83544 6.78531 7.51739C7.29515 7.05823 7.9742 6.44302 8.6572 5.8126C9.33939 5.18293 10.029 4.53493 10.5584 4.01112C10.8225 3.74988 11.0519 3.51452 11.2219 3.32534C11.3065 3.2313 11.3821 3.14236 11.4416 3.06352C11.4854 3.00545 11.571 2.8896 11.6087 2.75751L11.6087 2.75753L11.6109 2.74926C11.6366 2.65319 11.6435 2.52021 11.5804 2.38392C11.5169 2.24681 11.4094 2.16438 11.3139 2.12155C11.1436 2.04513 10.9825 2.07419 10.8969 2.09985L10.8829 2.10407L10.8691 2.1091C10.8036 2.13303 10.7233 2.17659 10.666 2.20814C10.5948 2.24736 10.5049 2.29902 10.4006 2.36027C10.1913 2.48309 9.91384 2.65045 9.5915 2.8473C8.9463 3.24133 8.11391 3.75816 7.27269 4.28358C5.75325 5.23264 4.20101 6.21224 3.66187 6.55288L1.06733 5.7075C1.18028 5.65572 1.33008 5.59104 1.51371 5.51471C1.89116 5.35782 2.39762 5.15742 2.99073 4.92843C4.17617 4.47075 5.69617 3.9033 7.19743 3.34959C8.69824 2.79606 10.1784 2.25697 11.2835 1.85621C11.8361 1.65584 12.2947 1.49009 12.6153 1.37444L12.9869 1.24048L13.0846 1.20531L13.1096 1.19632L13.1158 1.19409Z" stroke="#0E3EDA"/>
</svg>
