<svg width="16" height="16" viewBox="0 0 16 16" fill="none" xmlns="http://www.w3.org/2000/svg">
<path d="M10.7067 8.07996H7.60669" stroke="#A7ABC3" stroke-width="1.00915" stroke-linecap="round" stroke-linejoin="round"/>
<path d="M8.00665 1.67334C7.21872 1.67334 6.43851 1.82853 5.71055 2.13006C4.9826 2.43159 4.32116 2.87355 3.76401 3.4307C3.20686 3.98785 2.7649 4.64929 2.46338 5.37724C2.16185 6.10519 2.00665 6.88541 2.00665 7.67334C2.00665 8.46127 2.16185 9.24149 2.46338 9.96944C2.7649 10.6974 3.20686 11.3588 3.76401 11.916C4.32116 12.4731 4.9826 12.9151 5.71055 13.2166C6.43851 13.5181 7.21872 13.6733 8.00665 13.6733C9.59795 13.6733 11.1241 13.0412 12.2493 11.916C13.3745 10.7908 14.0067 9.26464 14.0067 7.67334C14.0067 6.08204 13.3745 4.55592 12.2493 3.4307C11.1241 2.30548 9.59795 1.67334 8.00665 1.67334V1.67334Z" stroke="#A7ABC3" stroke-width="1.00915" stroke-linecap="round" stroke-linejoin="round"/>
<path d="M7.60669 8.08001V4.34668" stroke="#A7ABC3" stroke-width="1.00915" stroke-linecap="round" stroke-linejoin="round"/>
</svg>
