<svg width="16" height="16" viewBox="0 0 16 16" fill="none" xmlns="http://www.w3.org/2000/svg">
<path d="M6.5 0.5C3.186 0.5 0.5 2.739 0.5 5.5C0.5 6.521 0.869 7.47 1.5 8.262V12L4.073 10.07C4.815 10.345 5.635 10.5 6.5 10.5C9.814 10.5 12.5 8.261 12.5 5.5C12.5 2.739 9.814 0.5 6.5 0.5Z" stroke="#7C7C8A" stroke-linecap="round" stroke-linejoin="round"/>
<path d="M5.21899 12.5039C6.30799 13.4269 7.82399 13.9999 9.49999 13.9999C10.283 13.9999 11.029 13.8709 11.715 13.6439L14.5 15.4999V11.7619C15.131 10.9699 15.5 10.0219 15.5 8.99988C15.5 8.09088 15.209 7.23888 14.701 6.50488" stroke="#7C7C8A" stroke-linecap="round" stroke-linejoin="round"/>
</svg>
