<svg width="16" height="16" viewBox="0 0 16 16" fill="none" xmlns="http://www.w3.org/2000/svg">
<path fill-rule="evenodd" clip-rule="evenodd" d="M8.50002 2.66666C8.50002 2.39051 8.27616 2.16666 8.00002 2.16666C7.72388 2.16666 7.50002 2.39051 7.50002 2.66666V7.49999H2.66669C2.39054 7.49999 2.16669 7.72385 2.16669 7.99999C2.16669 8.27613 2.39054 8.49999 2.66669 8.49999H7.50002V13.3333C7.50002 13.6095 7.72388 13.8333 8.00002 13.8333C8.27616 13.8333 8.50002 13.6095 8.50002 13.3333V8.49999H13.3334C13.6095 8.49999 13.8334 8.27613 13.8334 7.99999C13.8334 7.72385 13.6095 7.49999 13.3334 7.49999H8.50002V2.66666Z" fill="#434657"/>
</svg>
