<svg width="16" height="16" viewBox="0 0 16 16" fill="none" xmlns="http://www.w3.org/2000/svg">
<path d="M2.23335 1.33331H8.16668C8.66002 1.33331 9.06668 1.73998 9.06668 2.23331V3.21998C9.06668 3.57998 8.84002 4.02665 8.62002 4.25331L6.68668 5.95998C6.42002 6.18665 6.24002 6.63331 6.24002 6.99331V8.92665C6.24002 9.19331 6.06002 9.55331 5.83335 9.69331L5.20668 10.1C4.62002 10.46 3.81335 10.0533 3.81335 9.33331V6.95331C3.81335 6.63998 3.63335 6.23331 3.45335 6.00665L1.74668 4.20665C1.52002 3.97998 1.34002 3.57998 1.34002 3.30665V2.27331C1.33335 1.73998 1.74002 1.33331 2.23335 1.33331Z" stroke="#434657" stroke-miterlimit="10" stroke-linecap="round" stroke-linejoin="round"/>
<path d="M1.33334 8.00001V10C1.33334 13.3333 2.66668 14.6667 6.00001 14.6667H10C13.3333 14.6667 14.6667 13.3333 14.6667 10V6.00001C14.6667 3.92001 14.1467 2.61335 12.94 1.93335C12.6 1.74001 11.92 1.59335 11.3 1.49335" stroke="#434657" stroke-linecap="round" stroke-linejoin="round"/>
<path d="M8.66666 8.66669H12" stroke="#434657" stroke-linecap="round" stroke-linejoin="round"/>
<path d="M7.33334 11.3333H12" stroke="#434657" stroke-linecap="round" stroke-linejoin="round"/>
</svg>
