<svg width="24" height="24" viewBox="0 0 24 24" fill="none" xmlns="http://www.w3.org/2000/svg">
<path d="M3.34989 2H12.2499C12.9899 2 13.5999 2.61 13.5999 3.35V4.83C13.5999 5.37 13.2599 6.04 12.9299 6.38L10.0299 8.94C9.62989 9.28 9.35989 9.95 9.35989 10.49V13.39C9.35989 13.79 9.08989 14.33 8.74989 14.54L7.80989 15.15C6.92989 15.69 5.71989 15.08 5.71989 14V10.43C5.71989 9.96 5.44989 9.35 5.17989 9.01L2.61989 6.31C2.27989 5.97 2.00989 5.37 2.00989 4.96V3.41C1.99989 2.61 2.60989 2 3.34989 2Z" stroke="#0E3EDA" stroke-width="1.5" stroke-miterlimit="10" stroke-linecap="round" stroke-linejoin="round"/>
<path d="M2 12V15C2 20 4 22 9 22H15C20 22 22 20 22 15V8.99999C22 5.87999 21.22 3.91999 19.41 2.89999C18.9 2.60999 17.88 2.38999 16.95 2.23999" stroke="#0E3EDA" stroke-width="1.5" stroke-linecap="round" stroke-linejoin="round"/>
<path d="M13 13H18" stroke="#0E3EDA" stroke-width="1.5" stroke-linecap="round" stroke-linejoin="round"/>
<path d="M11 17H18" stroke="#0E3EDA" stroke-width="1.5" stroke-linecap="round" stroke-linejoin="round"/>
</svg>
