<svg width="20" height="20" viewBox="0 0 20 20" fill="none" xmlns="http://www.w3.org/2000/svg">
<path d="M9.66668 16C10.4984 16 11.3219 15.8362 12.0903 15.5179C12.8587 15.1996 13.5569 14.7331 14.145 14.145C14.7331 13.5569 15.1996 12.8587 15.5179 12.0903C15.8362 11.3219 16 10.4984 16 9.66667C16 8.83496 15.8362 8.0114 15.5179 7.243C15.1996 6.47461 14.7331 5.77643 14.145 5.18832C13.5569 4.60022 12.8587 4.13371 12.0903 3.81543C11.3219 3.49715 10.4984 3.33333 9.66668 3.33333C7.98697 3.33333 6.37606 4.00059 5.18833 5.18832C4.0006 6.37605 3.33334 7.98696 3.33334 9.66667C3.33334 11.3464 4.0006 12.9573 5.18833 14.145C6.37606 15.3327 7.98697 16 9.66668 16V16Z" stroke="#A7ABC3" stroke-width="1.5" stroke-linecap="round" stroke-linejoin="round"/>
<path d="M16.6666 16.6667L15.3333 15.3333" stroke="#A7ABC3" stroke-width="1.5" stroke-linecap="round" stroke-linejoin="round"/>
</svg>
