<svg width="16" height="16" viewBox="0 0 16 16" fill="none" xmlns="http://www.w3.org/2000/svg">
<path fill-rule="evenodd" clip-rule="evenodd" d="M3.47978 12.4798C3.28452 12.675 3.28452 12.9916 3.47978 13.1869C3.67504 13.3821 3.99163 13.3821 4.18689 13.1869L8.85356 8.52022C9.04882 8.32496 9.04882 8.00838 8.85356 7.81311L4.18689 3.14645C3.99163 2.95118 3.67504 2.95118 3.47978 3.14645C3.28452 3.34171 3.28452 3.65829 3.47978 3.85355L7.7929 8.16667L3.47978 12.4798ZM7.47978 12.4798C7.28452 12.675 7.28452 12.9916 7.47978 13.1869C7.67505 13.3821 7.99163 13.3821 8.18689 13.1869L12.8536 8.52022C13.0488 8.32496 13.0488 8.00838 12.8536 7.81311L8.18689 3.14645C7.99163 2.95118 7.67505 2.95118 7.47978 3.14645C7.28452 3.34171 7.28452 3.65829 7.47978 3.85355L11.7929 8.16667L7.47978 12.4798Z" fill="#A7ABC3"/>
</svg>
