<svg width="24" height="24" viewBox="0 0 24 24" fill="none" xmlns="http://www.w3.org/2000/svg">
<path d="M9.3 21H14.7C19.2 21 21 19.2 21 14.7V9.3C21 4.8 19.2 3 14.7 3H9.3C4.8 3 3 4.8 3 9.3V14.7C3 19.2 4.8 21 9.3 21Z" stroke="#A7ABC3" stroke-width="1.5" stroke-linecap="round" stroke-linejoin="round"/>
<path d="M9.39001 12V10.668C9.39001 8.94899 10.605 8.25599 12.09 9.11099L13.242 9.77699L14.394 10.443C15.879 11.298 15.879 12.702 14.394 13.557L13.242 14.223L12.09 14.889C10.605 15.744 9.39001 15.042 9.39001 13.332V12Z" stroke="#A7ABC3" stroke-width="1.5" stroke-miterlimit="10" stroke-linecap="round" stroke-linejoin="round"/>
</svg>
