<svg width="40" height="40" viewBox="0 0 40 40" fill="none" xmlns="http://www.w3.org/2000/svg">
<rect width="40" height="40" rx="8" fill="#FEF1E6"/>
<path d="M31 8H21C20.7348 8 20.4804 8.10536 20.2929 8.29289C20.1054 8.48043 20 8.73478 20 9V17.1C20.3298 17.038 20.6644 17.0045 21 17C22.4782 16.9993 23.9039 17.5481 25 18.54V13H27V22.8C28 29.707 28 29.82 28 30C27.9959 30.7043 27.8039 31.3947 27.444 32H31C31.2652 32 31.5196 31.8946 31.7071 31.7071C31.8946 31.5196 32 31.2652 32 31V9C32 8.73478 31.8946 8.48043 31.7071 8.29289C31.5196 8.10536 31.2652 8 31 8V8Z" fill="#F67600"/>
<path d="M17 13C16.7348 13 16.4804 13.1054 16.2929 13.2929C16.1054 13.4804 16 13.7348 16 14V18H18V14C18 13.7348 17.8946 13.4804 17.7071 13.2929C17.5196 13.1054 17.2652 13 17 13Z" fill="#F67600"/>
<path d="M24.98 22.8059C24.9425 21.9449 24.6264 21.1193 24.0792 20.4534C23.532 19.7875 22.7834 19.3174 21.9459 19.1137C21.1085 18.91 20.2275 18.9838 19.4357 19.324C18.6438 19.6641 17.9838 20.2523 17.555 20.9999H16.445C16.0162 20.2523 15.3562 19.6641 14.5643 19.324C13.7725 18.9838 12.8915 18.91 12.0541 19.1137C11.2166 19.3174 10.468 19.7875 9.9208 20.4534C9.37362 21.1193 9.0575 21.9449 9.02 22.8059C9.02 22.8059 8 29.8579 8 29.9999C8 30.5303 8.21071 31.0391 8.58579 31.4141C8.96086 31.7892 9.46957 31.9999 10 31.9999C10.3568 31.9997 10.7068 31.9018 11.012 31.7169L14.952 28.9999H19.052L22.992 31.7169C23.296 31.9011 23.6445 31.9989 24 31.9999C24.5304 31.9999 25.0391 31.7892 25.4142 31.4141C25.7893 31.0391 26 30.5303 26 29.9999C26 29.8579 24.98 22.8059 24.98 22.8059ZM13 24.4999C12.7033 24.4999 12.4133 24.4119 12.1666 24.2471C11.92 24.0823 11.7277 23.848 11.6142 23.5739C11.5006 23.2998 11.4709 22.9983 11.5288 22.7073C11.5867 22.4163 11.7296 22.149 11.9393 21.9393C12.1491 21.7295 12.4164 21.5866 12.7074 21.5287C12.9983 21.4709 13.2999 21.5006 13.574 21.6141C13.8481 21.7276 14.0824 21.9199 14.2472 22.1666C14.412 22.4132 14.5 22.7032 14.5 22.9999C14.5 23.3977 14.342 23.7793 14.0607 24.0606C13.7794 24.3419 13.3978 24.4999 13 24.4999ZM21 24.4999C20.7033 24.4999 20.4133 24.4119 20.1666 24.2471C19.92 24.0823 19.7277 23.848 19.6142 23.5739C19.5006 23.2998 19.4709 22.9983 19.5288 22.7073C19.5867 22.4163 19.7296 22.149 19.9393 21.9393C20.1491 21.7295 20.4164 21.5866 20.7074 21.5287C20.9983 21.4709 21.2999 21.5006 21.574 21.6141C21.8481 21.7276 22.0824 21.9199 22.2472 22.1666C22.412 22.4132 22.5 22.7032 22.5 22.9999C22.5 23.3977 22.342 23.7793 22.0607 24.0606C21.7794 24.3419 21.3978 24.4999 21 24.4999Z" fill="#F67600"/>
</svg>
