<svg width="40" height="40" viewBox="0 0 40 40" fill="none" xmlns="http://www.w3.org/2000/svg">
<rect width="40" height="40" rx="8" fill="#FEF1E6"/>
<path d="M30.0004 10H14.6671C14.4903 10 14.3207 10.0702 14.1957 10.1953C14.0707 10.3203 14.0004 10.4899 14.0004 10.6667V27.346C14.0022 27.5177 13.9701 27.688 13.9061 27.8473C13.842 28.0066 13.7471 28.1517 13.627 28.2743C13.5068 28.397 13.3637 28.4948 13.2057 28.5621C13.0478 28.6294 12.8781 28.6649 12.7064 28.6667H12.6071C12.2633 28.6605 11.936 28.5181 11.6972 28.2707C11.4585 28.0233 11.3277 27.6911 11.3338 27.3473V22H12.6671V20.6667H10.6671C10.4903 20.6667 10.3207 20.7369 10.1957 20.8619C10.0707 20.987 10.0004 21.1565 10.0004 21.3333V27.3207C9.99408 27.6662 10.0558 28.0096 10.1822 28.3312C10.3085 28.6528 10.497 28.9465 10.7368 29.1953C10.9767 29.4441 11.2631 29.6432 11.5799 29.7813C11.8967 29.9193 12.2376 29.9937 12.5831 30H28.0384C28.7279 29.9996 29.3896 29.7285 29.8812 29.2451C30.3729 28.7617 30.6551 28.1047 30.6671 27.4153V10.6667C30.6671 10.4899 30.5969 10.3203 30.4718 10.1953C30.3468 10.0702 30.1773 10 30.0004 10ZM27.0004 26H17.6671C17.5787 26 17.4939 25.9649 17.4314 25.9024C17.3689 25.8399 17.3338 25.7551 17.3338 25.6667V25C17.3338 24.9116 17.3689 24.8268 17.4314 24.7643C17.4939 24.7018 17.5787 24.6667 17.6671 24.6667H27.0004C27.0889 24.6667 27.1736 24.7018 27.2361 24.7643C27.2987 24.8268 27.3338 24.9116 27.3338 25V25.6667C27.3338 25.7551 27.2987 25.8399 27.2361 25.9024C27.1736 25.9649 27.0889 26 27.0004 26ZM27.0004 22H17.6671C17.5787 22 17.4939 21.9649 17.4314 21.9024C17.3689 21.8399 17.3338 21.7551 17.3338 21.6667V21C17.3338 20.9116 17.3689 20.8268 17.4314 20.7643C17.4939 20.7018 17.5787 20.6667 17.6671 20.6667H27.0004C27.0889 20.6667 27.1736 20.7018 27.2361 20.7643C27.2987 20.8268 27.3338 20.9116 27.3338 21V21.6667C27.3338 21.7551 27.2987 21.8399 27.2361 21.9024C27.1736 21.9649 27.0889 22 27.0004 22ZM27.0004 18H17.6671C17.5787 18 17.4939 17.9649 17.4314 17.9024C17.3689 17.8399 17.3338 17.7551 17.3338 17.6667V13.6667C17.3338 13.5783 17.3689 13.4935 17.4314 13.431C17.4939 13.3685 17.5787 13.3333 17.6671 13.3333H27.0004C27.0889 13.3333 27.1736 13.3685 27.2361 13.431C27.2987 13.4935 27.3338 13.5783 27.3338 13.6667V17.6667C27.3338 17.7551 27.2987 17.8399 27.2361 17.9024C27.1736 17.9649 27.0889 18 27.0004 18Z" fill="#F67600"/>
</svg>
