<svg width="40" height="40" viewBox="0 0 40 40" fill="none" xmlns="http://www.w3.org/2000/svg">
<rect width="40" height="40" rx="8" fill="#FEF1E6"/>
<g clip-path="url(#clip0_4892_69304)">
<path d="M24.8034 21.0655C24.8054 23.718 22.6439 25.8744 19.9832 25.8744C17.3239 25.8744 15.1643 23.7159 15.167 21.0615C15.1697 18.4265 17.3265 16.2754 19.9711 16.2708C22.6352 16.2661 24.8021 18.4158 24.8034 21.0655Z" fill="#F67600"/>
<path d="M21.4644 6.73054C21.7931 6.14498 21.6221 6.2125 22.3406 6.32279C25.2206 6.76664 27.7626 7.94244 29.9389 9.87159C32.5902 12.2219 34.2123 15.1543 34.7725 18.6463C35.3857 22.4678 34.6565 26.0367 32.5023 29.2586C29.9751 33.0374 26.4275 35.3074 21.8918 35.8682C16.8287 36.4939 12.5069 34.8856 8.99959 31.2092C6.80449 28.907 5.51172 26.1376 5.12664 22.9772C4.61006 18.7346 5.67004 14.9104 8.37702 11.5908C10.7479 8.68308 13.8373 6.95782 17.5452 6.33282C17.6002 6.32346 17.6552 6.31477 17.7095 6.30474C18.0548 6.24057 18.3211 6.37916 18.5085 6.72052C13.6655 7.34886 9.90795 9.67172 7.44182 13.893C5.62174 17.0086 5.11389 20.3896 5.81764 23.9197C7.20232 30.8602 13.5132 35.7773 20.6272 35.4598C27.7572 35.1416 33.3885 29.7646 34.2942 23.0521C34.8362 19.036 33.8776 15.3736 31.3658 12.1717C28.8534 8.96918 25.5044 7.2125 21.4637 6.73054H21.4644Z" fill="#F67600"/>
<path d="M29.5705 11.742C30.1991 12.3469 30.7177 13.0401 31.2095 13.756C31.3168 13.9124 31.2698 13.9759 31.1249 14.0595C29.0781 15.2313 27.0326 16.4071 24.9905 17.5869C24.8462 17.6704 24.7698 17.6671 24.6664 17.526C24.3498 17.0922 23.9694 16.7159 23.5347 16.3997C23.4025 16.3035 23.4059 16.2293 23.4797 16.1023C24.6691 14.0568 25.8546 12.0093 27.0413 9.96255C27.0963 9.86696 27.1326 9.76134 27.2869 9.86295C27.9584 10.3048 28.5917 10.7941 29.1761 11.3449C29.2029 11.3696 29.2009 11.4244 29.213 11.4652C29.1304 11.5688 28.9916 11.5621 28.8909 11.6297C28.693 11.7607 28.5964 11.9405 28.6803 12.1704C28.7534 12.3696 28.9205 12.4632 29.1311 12.4378C29.3719 12.4084 29.5061 12.2654 29.5242 12.018C29.5309 11.9258 29.4598 11.8188 29.5699 11.7426L29.5705 11.742Z" fill="#E9DAFF"/>
<path d="M10.6853 11.4619C11.2777 10.855 11.956 10.355 12.655 9.8797C12.8026 9.77943 12.8583 9.83357 12.9314 9.96058C14.1148 12.008 15.2996 14.0548 16.4911 16.0976C16.5823 16.254 16.538 16.3209 16.4106 16.4158C15.9872 16.7286 15.6156 17.0976 15.3056 17.5214C15.2023 17.6624 15.1299 17.6718 14.9836 17.5876C12.9422 16.4071 10.8987 15.2313 8.85184 14.0608C8.68346 13.9646 8.66735 13.8917 8.77537 13.7346C9.22888 13.0742 9.70721 12.4338 10.2781 11.867C10.4666 11.877 10.4016 12.0662 10.4827 12.1524C10.525 12.2173 10.5733 12.2768 10.631 12.3289C10.7665 12.4526 10.9228 12.488 11.0879 12.4064C11.2482 12.3276 11.3368 12.1939 11.3294 12.0087C11.3227 11.8289 11.2442 11.6985 11.0771 11.617C10.9503 11.5548 10.788 11.5842 10.6853 11.4626V11.4619Z" fill="#F67600"/>
<path d="M16.7161 8.13769C17.5037 7.92579 18.308 7.82151 19.1198 7.76002C19.4311 7.73595 19.4512 7.93715 19.4512 8.16977C19.4485 9.93582 19.4499 11.7019 19.4499 13.4686C19.4499 13.9793 19.4411 14.4906 19.4546 15.0013C19.4593 15.1905 19.3902 15.2493 19.2117 15.266C18.6985 15.3135 18.2061 15.4512 17.7358 15.6597C17.5775 15.7299 17.4923 15.7226 17.3977 15.5575C16.225 13.5187 15.0436 11.4846 13.8675 9.44718C13.8212 9.36764 13.6891 9.27205 13.8736 9.18448C14.6551 8.81149 15.4394 8.44584 16.2961 8.27205C16.3645 8.40774 16.2632 8.52873 16.2612 8.65908C16.2585 8.86697 16.3102 9.04076 16.5356 9.09424C16.7301 9.14036 16.9307 9.129 17.032 8.9278C17.134 8.72392 17.1125 8.52071 16.926 8.35427C16.8516 8.28809 16.6966 8.29611 16.7167 8.13836L16.7161 8.13769Z" fill="#E9DAFF"/>
<path d="M23.2216 8.12155C22.7929 8.43438 22.6963 8.69842 22.8747 8.97917C23.0277 9.21981 23.3671 9.29802 23.6087 9.14896C23.8864 8.97783 23.9206 8.69775 23.6972 8.25323C24.5492 8.48118 25.3375 8.79936 26.0989 9.18639C26.3002 9.28866 26.1305 9.39428 26.0828 9.4765C25.4482 10.5834 24.8075 11.6871 24.1675 12.7913C23.6389 13.7038 23.1055 14.6129 22.5869 15.5306C22.489 15.7031 22.4051 15.7352 22.226 15.6536C21.7571 15.4417 21.2626 15.3101 20.7494 15.2639C20.5602 15.2465 20.5159 15.165 20.5166 14.9879C20.522 12.7011 20.522 10.4137 20.518 8.1269C20.518 7.83679 20.636 7.73519 20.9272 7.76192C21.6799 7.83011 22.4259 7.92904 23.2202 8.12155H23.2216Z" fill="#F67600"/>
<path d="M7.00559 24.3945C6.82445 23.5716 6.68625 22.7428 6.61514 21.9018C6.59501 21.6659 6.65002 21.6017 6.89087 21.603C9.20873 21.6117 11.5259 21.6104 13.8438 21.6044C14.0437 21.6044 14.143 21.6405 14.1618 21.8644C14.2041 22.3644 14.3423 22.845 14.5482 23.3022C14.626 23.4747 14.616 23.5623 14.4368 23.6645C12.4101 24.8196 10.3888 25.9847 8.36478 27.1452C8.26616 27.202 8.16553 27.3444 8.05819 27.1244C7.68384 26.3571 7.33297 25.5823 7.13708 24.7468C7.25515 24.6839 7.34773 24.7742 7.45038 24.8002C7.68719 24.8604 7.90657 24.7555 7.98842 24.5335C8.06758 24.319 8.01324 24.1391 7.81332 24.0202C7.61273 23.9005 7.37725 23.9647 7.2196 24.1505C7.14982 24.2327 7.17196 24.3992 7.00492 24.3952L7.00559 24.3945Z" fill="#F67600"/>
<path d="M7.12893 17.3349C7.34495 16.5521 7.65154 15.8048 8.00509 15.0742C8.08425 14.9104 8.14731 14.8716 8.31973 14.9719C10.3505 16.1484 12.3845 17.3182 14.422 18.4833C14.5904 18.5795 14.6313 18.6584 14.5468 18.8422C14.3381 19.2981 14.206 19.7807 14.1583 20.2807C14.1402 20.4706 14.0805 20.5448 13.8739 20.5441C11.5325 20.5367 9.19119 20.5394 6.85052 20.5408C6.70494 20.5408 6.59022 20.5441 6.60833 20.3369C6.6781 19.5401 6.77068 18.748 6.95584 17.9686C6.96993 17.9084 6.97932 17.8335 7.06251 17.8162C7.1618 17.8743 7.19736 17.9886 7.2792 18.0621C7.46302 18.2272 7.66563 18.2306 7.85481 18.0962C8.02253 17.9766 8.08626 17.7934 7.99234 17.5989C7.89171 17.3917 7.71997 17.2841 7.47778 17.3355C7.38118 17.3563 7.29799 17.4218 7.19602 17.4291C7.14436 17.4184 7.10478 17.3984 7.12759 17.3342L7.12893 17.3349Z" fill="#E9DAFF"/>
<path d="M33.0306 18.0107C33.1856 18.75 33.2849 19.4973 33.356 20.2493C33.3788 20.4886 33.3151 20.5468 33.0776 20.5461C30.7577 20.5374 28.4378 20.5381 26.118 20.5461C25.906 20.5468 25.8275 20.4899 25.808 20.276C25.7624 19.776 25.6229 19.2961 25.4203 18.8369C25.3532 18.6851 25.3485 18.5969 25.5195 18.4993C27.5677 17.3315 29.6099 16.153 31.6567 14.9819C31.7224 14.9445 31.8157 14.8001 31.8989 14.9599C32.2967 15.7272 32.6214 16.5227 32.8515 17.3863C32.3987 17.1591 32.0847 17.2152 31.9351 17.5254C31.8083 17.7874 31.919 18.1069 32.1813 18.2339C32.4825 18.3797 32.7616 18.248 32.9146 17.8897C33.0461 17.8416 32.975 17.9866 33.0306 18.0107Z" fill="#F67600"/>
<path d="M16.2977 33.8756C15.4712 33.6784 14.699 33.3409 13.9396 32.9692C13.7859 32.8943 13.7873 32.8295 13.8658 32.6952C15.0499 30.6617 16.2293 28.6263 17.406 26.5889C17.4845 26.4538 17.5449 26.4004 17.7139 26.4766C18.1922 26.6925 18.6961 26.8355 19.2207 26.8803C19.4119 26.897 19.4528 26.9819 19.4528 27.1577C19.4481 29.4899 19.4495 31.8215 19.4501 34.1537C19.4501 34.2921 19.4682 34.4204 19.2529 34.4004C18.4438 34.3262 17.6368 34.2393 16.8478 34.0341C16.7988 34.0214 16.7351 34.0173 16.719 33.9485C16.8713 33.8008 17.1054 33.7199 17.088 33.4398C17.0726 33.1905 16.9484 33.0474 16.6982 33.0347C16.4325 33.0214 16.2789 33.1637 16.2581 33.4218C16.2454 33.5768 16.3641 33.7179 16.2984 33.875L16.2977 33.8756Z" fill="#F67600"/>
<path d="M23.746 33.7994C23.9197 33.3896 23.8385 33.0808 23.5413 32.9565C23.2589 32.8388 22.9308 32.9772 22.8249 33.2593C22.7101 33.5627 22.8685 33.8254 23.275 33.9892C22.427 34.2385 21.5636 34.3228 20.6989 34.399C20.4305 34.4224 20.5251 34.2218 20.5244 34.1062C20.5191 32.2847 20.5204 30.4631 20.5204 28.6416C20.5204 28.1416 20.5258 27.6416 20.517 27.1423C20.5144 26.9832 20.5466 26.8976 20.7264 26.8823C21.2631 26.8368 21.7749 26.6884 22.2674 26.4752C22.4042 26.4157 22.4713 26.4237 22.5525 26.5648C23.7319 28.6129 24.9193 30.6563 26.1034 32.7018C26.149 32.7807 26.2443 32.8635 26.0913 32.9404C25.3856 33.2947 24.6637 33.6089 23.8989 33.8168C23.8593 33.8275 23.8117 33.8081 23.7453 33.7994H23.746Z" fill="#E9DAFF"/>
<path d="M32.9726 24.272C32.7149 23.8816 32.456 23.7733 32.1762 23.911C31.932 24.0313 31.816 24.3415 31.9206 24.5935C32.0421 24.8863 32.3104 24.9652 32.7579 24.8321C32.7626 24.8883 32.784 24.9471 32.77 24.9952C32.5526 25.7426 32.2514 26.4565 31.8958 27.1483C31.7938 27.3468 31.6892 27.1884 31.604 27.1396C30.493 26.5059 29.3861 25.8669 28.2778 25.2292C27.3721 24.7085 26.4691 24.1817 25.5574 23.671C25.3729 23.5674 25.3394 23.4832 25.4273 23.288C25.6332 22.8315 25.766 22.3495 25.8123 21.8488C25.8284 21.6724 25.8881 21.6029 26.0787 21.6035C28.4301 21.6095 30.7808 21.6075 33.1322 21.6069C33.263 21.6069 33.3778 21.5995 33.3603 21.792C33.2852 22.6082 33.2013 23.4217 32.9732 24.2713L32.9726 24.272Z" fill="#E9DAFF"/>
<path d="M29.2156 30.6792C28.6494 31.3155 27.9524 31.7908 27.256 32.2681C27.095 32.3784 27.0682 32.2333 27.0185 32.1484C26.7207 31.6404 26.4282 31.1297 26.133 30.621C25.2756 29.1411 24.4216 27.6591 23.5561 26.1845C23.4267 25.9639 23.3784 25.8302 23.6407 25.6558C24.0405 25.3904 24.3659 25.0308 24.6497 24.6431C24.7557 24.498 24.8342 24.4733 24.9958 24.5669C27.0272 25.7427 29.0633 26.9111 31.0981 28.0809C31.2088 28.1444 31.3108 28.1892 31.1981 28.3523C30.7251 29.0388 30.2441 29.7166 29.6222 30.2814C29.5296 30.2019 29.5457 30.0796 29.5001 29.9813C29.4129 29.7908 29.2646 29.6899 29.0546 29.7066C28.8453 29.7233 28.6977 29.8369 28.6615 30.0461C28.6259 30.25 28.7199 30.4078 28.8956 30.5174C28.9976 30.5809 29.1338 30.5769 29.2156 30.6798V30.6792Z" fill="#F67600"/>
<path d="M10.4105 30.3348C9.74905 29.7619 9.25596 29.0514 8.76555 28.3381C8.62601 28.1356 8.82056 28.1202 8.91784 28.0641C10.1784 27.3341 11.4417 26.6075 12.7049 25.8809C13.457 25.4484 14.213 25.0226 14.9584 24.5794C15.1315 24.4765 15.2126 24.4919 15.33 24.6536C15.6266 25.0594 15.9821 25.4143 16.3894 25.7104C16.543 25.8221 16.5826 25.8996 16.4766 26.0808C15.2999 28.0935 14.1325 30.1122 12.9619 32.1289C12.9062 32.2245 12.8787 32.3796 12.7022 32.2592C12.0045 31.784 11.3115 31.3034 10.744 30.669C10.8171 30.5901 10.9251 30.5901 11.0163 30.5527C11.2578 30.4538 11.3759 30.2586 11.3169 30.0306C11.2639 29.8261 11.127 29.7011 10.9097 29.7051C10.6641 29.7098 10.5232 29.8488 10.4816 30.0895C10.4669 30.1743 10.4897 30.2706 10.4099 30.3361L10.4105 30.3348Z" fill="#E9DAFF"/>
<path d="M20.0153 4.0002C21.3583 4.01905 22.1882 5.31832 21.6574 6.54457C21.2968 7.37738 20.7566 8.09239 20.2269 8.81801C20.0508 9.05949 19.9231 9.06184 19.7458 8.81801C19.2197 8.09121 18.6782 7.3762 18.3165 6.54339C17.7703 5.29359 18.6416 3.98135 20.0153 4.0002Z" fill="#9147FF"/>
</g>
<defs>
<clipPath id="clip0_4892_69304">
<rect width="29.982" height="32" fill="white" transform="translate(5 4)"/>
</clipPath>
</defs>
</svg>
