<svg width="20" height="20" viewBox="0 0 20 20" fill="none" xmlns="http://www.w3.org/2000/svg">
<path d="M10 17.5C14.1421 17.5 17.5 14.1421 17.5 10C17.5 5.85786 14.1421 2.5 10 2.5C5.85786 2.5 2.5 5.85786 2.5 10C2.5 14.1421 5.85786 17.5 10 17.5Z" fill="#DFDFE6"/>
<path fill-rule="evenodd" clip-rule="evenodd" d="M8.25029 7.20503C8.00621 6.96095 7.61049 6.96095 7.36641 7.20503C7.12233 7.44911 7.12233 7.84484 7.36641 8.08891L9.23032 9.95283L7.36656 11.8166C7.12248 12.0607 7.12248 12.4564 7.36656 12.7005C7.61063 12.9446 8.00636 12.9446 8.25044 12.7005L10.1142 10.8367L11.978 12.7005C12.2221 12.9446 12.6178 12.9446 12.8619 12.7005C13.1059 12.4564 13.1059 12.0607 12.8619 11.8166L10.9981 9.95283L12.862 8.08891C13.1061 7.84484 13.1061 7.44911 12.862 7.20503C12.6179 6.96095 12.2222 6.96095 11.9781 7.20503L10.1142 9.06895L8.25029 7.20503Z" fill="white"/>
</svg>
