<svg width="25" height="24" viewBox="0 0 25 24" fill="none" xmlns="http://www.w3.org/2000/svg">
<path d="M18.311 5.49V6.23L14.771 4.18C13.431 3.41 11.561 3.41 10.231 4.18L6.69101 6.24V5.49C6.69101 3.24 7.92101 2 10.171 2H14.831C17.081 2 18.311 3.24 18.311 5.49Z" fill="white"/>
<path d="M18.34 7.96798L18.2 7.89798L16.84 7.11798L14.02 5.48798C13.16 4.98798 11.84 4.98798 10.98 5.48798L8.16 7.10798L6.8 7.90798L6.62 7.99798C4.87 9.17798 4.75 9.39798 4.75 11.288V15.808C4.75 17.698 4.87 17.918 6.66 19.128L10.98 21.618C11.41 21.878 11.95 21.988 12.5 21.988C13.04 21.988 13.59 21.868 14.02 21.618L18.38 19.098C20.14 17.918 20.25 17.708 20.25 15.808V11.288C20.25 9.39798 20.13 9.17798 18.34 7.96798ZM15.29 13.498L14.68 14.248C14.58 14.358 14.51 14.568 14.52 14.718L14.58 15.678C14.62 16.268 14.2 16.568 13.65 16.358L12.76 15.998C12.5937 15.948 12.4163 15.948 12.25 15.998L11.36 16.348C10.81 16.568 10.39 16.258 10.43 15.668L10.49 14.708C10.4937 14.5373 10.4371 14.3709 10.33 14.238L9.71 13.498C9.33 13.048 9.5 12.548 10.07 12.398L11 12.158C11.15 12.118 11.32 11.978 11.4 11.858L11.92 11.058C12.24 10.558 12.75 10.558 13.08 11.058L13.6 11.858C13.68 11.988 13.86 12.118 14 12.158L14.93 12.398C15.5 12.548 15.67 13.048 15.29 13.498Z" fill="white"/>
</svg>
