<svg width="16" height="16" viewBox="0 0 16 16" fill="none" xmlns="http://www.w3.org/2000/svg">
<path fill-rule="evenodd" clip-rule="evenodd" d="M2 0C0.895431 0 0 0.895431 0 2V14C0 15.1046 0.895431 16 2 16H14C15.1046 16 16 15.1046 16 14V2C16 0.895431 15.1046 0 14 0H2ZM12.5303 5.53033C12.8232 5.23744 12.8232 4.76256 12.5303 4.46967C12.2374 4.17678 11.7626 4.17678 11.4697 4.46967L6.5 9.43934L4.53033 7.46967C4.23744 7.17678 3.76256 7.17678 3.46967 7.46967C3.17678 7.76256 3.17678 8.23744 3.46967 8.53033L5.96967 11.0303C6.26256 11.3232 6.73744 11.3232 7.03033 11.0303L12.5303 5.53033Z" fill="#0E3EDA"/>
</svg>
