<svg width="24" height="24" viewBox="0 0 24 24" fill="none" xmlns="http://www.w3.org/2000/svg">
<path fill-rule="evenodd" clip-rule="evenodd" d="M6.81304 5.75263C6.52015 5.45974 6.04528 5.45974 5.75238 5.75263C5.45949 6.04552 5.45949 6.5204 5.75238 6.81329L10.8789 11.9398L5.75241 17.0663C5.45952 17.3592 5.45952 17.8341 5.75241 18.127C6.0453 18.4199 6.52018 18.4199 6.81307 18.127L11.9396 13.0005L17.0661 18.127C17.359 18.4199 17.8339 18.4199 18.1268 18.127C18.4196 17.8341 18.4196 17.3592 18.1268 17.0663L13.0002 11.9398L18.1268 6.81329C18.4197 6.5204 18.4197 6.04552 18.1268 5.75263C17.8339 5.45974 17.359 5.45974 17.0661 5.75263L11.9396 10.8792L6.81304 5.75263Z" fill="#1B1D29"/>
</svg>
