<svg width="16" height="16" viewBox="0 0 16 16" fill="none" xmlns="http://www.w3.org/2000/svg">
<path d="M10.7067 8.08008H7.60666" stroke="#A7ABC3" stroke-linecap="round" stroke-linejoin="round"/>
<path d="M8.00668 1.67334C7.21875 1.67334 6.43854 1.82853 5.71058 2.13006C4.98263 2.43159 4.32119 2.87355 3.76404 3.4307C3.20689 3.98785 2.76493 4.64929 2.46341 5.37724C2.16188 6.10519 2.00668 6.88541 2.00668 7.67334C2.00668 8.46127 2.16188 9.24149 2.46341 9.96944C2.76493 10.6974 3.20689 11.3588 3.76404 11.916C4.32119 12.4731 4.98263 12.9151 5.71058 13.2166C6.43854 13.5181 7.21875 13.6733 8.00668 13.6733C9.59798 13.6733 11.1241 13.0412 12.2493 11.916C13.3745 10.7908 14.0067 9.26464 14.0067 7.67334C14.0067 6.08204 13.3745 4.55592 12.2493 3.4307C11.1241 2.30548 9.59798 1.67334 8.00668 1.67334V1.67334Z" stroke="#A7ABC3" stroke-linecap="round" stroke-linejoin="round"/>
<path d="M7.60666 8.08001V4.34668" stroke="#A7ABC3" stroke-linecap="round" stroke-linejoin="round"/>
</svg>
