<svg width="24" height="24" viewBox="0 0 24 24" fill="none" xmlns="http://www.w3.org/2000/svg">
<path d="M15.2927 11.6158C15.2927 13.4369 13.8211 14.9086 11.9999 14.9086C10.1788 14.9086 8.70715 13.4369 8.70715 11.6158C8.70715 9.79461 10.1788 8.32297 11.9999 8.32297C13.8211 8.32297 15.2927 9.79461 15.2927 11.6158Z" stroke="#A7ABC3" stroke-width="1.5" stroke-linecap="round" stroke-linejoin="round"/>
<path d="M12 19.2223C15.2468 19.2223 18.2729 17.3091 20.3792 13.998C21.207 12.7011 21.207 10.5212 20.3792 9.22432C18.2729 5.91313 15.2468 4 12 4C8.75319 4 5.72713 5.91313 3.62085 9.22432C2.79305 10.5212 2.79305 12.7011 3.62085 13.998C5.72713 17.3091 8.75319 19.2223 12 19.2223Z" stroke="#A7ABC3" stroke-width="1.5" stroke-linecap="round" stroke-linejoin="round"/>
</svg>
