<svg width="16" height="16" viewBox="0 0 16 16" fill="none" xmlns="http://www.w3.org/2000/svg">
<path d="M7.16667 1.63338C7.63334 1.24005 8.38667 1.24005 8.84 1.63338L9.89334 2.53338C10.0933 2.70005 10.4733 2.84005 10.74 2.84005H11.8733C12.58 2.84005 13.16 3.42005 13.16 4.12671V5.26005C13.16 5.52671 13.3 5.90005 13.4667 6.10005L14.3667 7.15338C14.76 7.62005 14.76 8.37338 14.3667 8.82671L13.4667 9.88005C13.3 10.08 13.16 10.4534 13.16 10.72V11.8534C13.16 12.56 12.58 13.14 11.8733 13.14H10.74C10.4733 13.14 10.1 13.28 9.9 13.4467L8.84667 14.3467C8.38 14.74 7.62667 14.74 7.17334 14.3467L6.12 13.4467C5.92 13.28 5.54 13.14 5.28 13.14H4.11334C3.40667 13.14 2.82667 12.56 2.82667 11.8534V10.7134C2.82667 10.4534 2.69334 10.0734 2.52667 9.88005L1.62667 8.82005C1.24 8.36005 1.24 7.61338 1.62667 7.15338L2.52667 6.09338C2.69334 5.89338 2.82667 5.52005 2.82667 5.26005V4.13338C2.82667 3.42671 3.40667 2.84671 4.11334 2.84671H5.26667C5.53334 2.84671 5.90667 2.70671 6.10667 2.54005L7.16667 1.63338Z" stroke="white" stroke-width="1.5" stroke-linecap="round" stroke-linejoin="round"/>
<path d="M8 5.42004V8.64004" stroke="white" stroke-width="1.5" stroke-linecap="round" stroke-linejoin="round"/>
<path d="M7.9967 10.6667H8.0027" stroke="white" stroke-width="2" stroke-linecap="round" stroke-linejoin="round"/>
</svg>
