<svg width="16" height="16" viewBox="0 0 16 16" fill="none" xmlns="http://www.w3.org/2000/svg">
<path fill-rule="evenodd" clip-rule="evenodd" d="M8.52022 3.68688C8.71548 3.49162 8.71548 3.17504 8.52022 2.97977C8.32496 2.78451 8.00838 2.78451 7.81311 2.97977L3.14645 7.64644C2.95118 7.8417 2.95118 8.15829 3.14645 8.35355L7.81311 13.0202C8.00838 13.2155 8.32496 13.2155 8.52022 13.0202C8.71548 12.825 8.71548 12.5084 8.52022 12.3131L4.20711 7.99999L8.52022 3.68688ZM12.5202 3.68688C12.7155 3.49162 12.7155 3.17504 12.5202 2.97977C12.325 2.78451 12.0084 2.78451 11.8131 2.97977L7.14645 7.64644C6.95118 7.8417 6.95118 8.15829 7.14645 8.35355L11.8131 13.0202C12.0084 13.2155 12.325 13.2155 12.5202 13.0202C12.7155 12.825 12.7155 12.5084 12.5202 12.3131L8.20711 7.99999L12.5202 3.68688Z" fill="#A7ABC3"/>
</svg>
