<svg width="24" height="24" viewBox="0 0 24 24" fill="none" xmlns="http://www.w3.org/2000/svg">
<path d="M9.3 21H14.7C19.2 21 21 19.2 21 14.7V9.3C21 4.8 19.2 3 14.7 3H9.3C4.8 3 3 4.8 3 9.3V14.7C3 19.2 4.8 21 9.3 21Z" stroke="#A7ABC3" stroke-width="1.5" stroke-linecap="round" stroke-linejoin="round"/>
<path d="M9.3 10.2C9.77739 10.2 10.2352 10.0104 10.5728 9.6728C10.9104 9.33523 11.1 8.8774 11.1 8.40001C11.1 7.92262 10.9104 7.46478 10.5728 7.12721C10.2352 6.78965 9.77739 6.60001 9.3 6.60001C8.82261 6.60001 8.36477 6.78965 8.02721 7.12721C7.68964 7.46478 7.5 7.92262 7.5 8.40001C7.5 8.8774 7.68964 9.33523 8.02721 9.6728C8.36477 10.0104 8.82261 10.2 9.3 10.2Z" stroke="#A7ABC3" stroke-width="1.5" stroke-linecap="round" stroke-linejoin="round"/>
<path d="M3.60303 18.255L8.04003 15.276C8.75103 14.799 9.77703 14.853 10.416 15.402L10.713 15.663C11.415 16.266 12.549 16.266 13.251 15.663L16.995 12.45C17.697 11.847 18.831 11.847 19.533 12.45L21 13.71" stroke="#A7ABC3" stroke-width="1.5" stroke-linecap="round" stroke-linejoin="round"/>
</svg>
