<svg width="20" height="20" viewBox="0 0 20 20" fill="none" xmlns="http://www.w3.org/2000/svg">
<path d="M10 17.5C14.1421 17.5 17.5 14.1421 17.5 10C17.5 5.85786 14.1421 2.5 10 2.5C5.85786 2.5 2.5 5.85786 2.5 10C2.5 14.1421 5.85786 17.5 10 17.5Z" fill="#DFDFE6"/>
<path fill-rule="evenodd" clip-rule="evenodd" d="M8.25038 7.20495C8.0063 6.96087 7.61057 6.96087 7.36649 7.20495C7.12241 7.44902 7.12241 7.84475 7.36649 8.08883L9.23041 9.95275L7.36664 11.8165C7.12256 12.0606 7.12256 12.4563 7.36664 12.7004C7.61072 12.9445 8.00645 12.9445 8.25052 12.7004L10.1143 10.8366L11.9781 12.7004C12.2221 12.9445 12.6179 12.9445 12.8619 12.7004C13.106 12.4563 13.106 12.0606 12.8619 11.8165L10.9982 9.95275L12.8621 8.08883C13.1062 7.84475 13.1062 7.44902 12.8621 7.20495C12.618 6.96087 12.2223 6.96087 11.9782 7.20495L10.1143 9.06886L8.25038 7.20495Z" fill="white"/>
</svg>
