<svg width="17" height="17" viewBox="0 0 17 17" fill="none" xmlns="http://www.w3.org/2000/svg">
<path d="M8.85364 15.3439C8.40697 15.3439 7.95364 15.2305 7.55364 14.9972L3.59364 12.7105C2.79364 12.2439 2.29364 11.3839 2.29364 10.4572V5.89719C2.29364 4.97052 2.79364 4.11052 3.59364 3.64385L7.55364 1.35719C8.35364 0.89052 9.34697 0.89052 10.1536 1.35719L14.1136 3.64385C14.9136 4.11052 15.4136 4.97052 15.4136 5.89719V10.4572C15.4136 11.3839 14.9136 12.2439 14.1136 12.7105L10.1536 14.9972C9.75364 15.2305 9.30031 15.3439 8.85364 15.3439ZM8.85364 2.01052C8.58031 2.01052 8.30031 2.08385 8.05364 2.22385L4.09364 4.51052C3.60031 4.79719 3.29364 5.32385 3.29364 5.89719V10.4572C3.29364 11.0239 3.60031 11.5572 4.09364 11.8439L8.05364 14.1305C8.54697 14.4172 9.16031 14.4172 9.65364 14.1305L13.6136 11.8439C14.107 11.5572 14.4136 11.0305 14.4136 10.4572V5.89719C14.4136 5.33052 14.107 4.79719 13.6136 4.51052L9.65364 2.22385C9.40697 2.08385 9.12697 2.01052 8.85364 2.01052Z" fill="#A7ABC3"/>
<path d="M8.85497 8.00985C7.72164 8.00985 6.80164 7.08985 6.80164 5.95652C6.80164 4.82318 7.72164 3.90318 8.85497 3.90318C9.9883 3.90318 10.9083 4.82318 10.9083 5.95652C10.9083 7.08985 9.9883 8.00985 8.85497 8.00985ZM8.85497 4.90318C8.27497 4.90318 7.80164 5.37652 7.80164 5.95652C7.80164 6.53652 8.27497 7.00985 8.85497 7.00985C9.43497 7.00985 9.9083 6.53652 9.9083 5.95652C9.9083 5.37652 9.43497 4.90318 8.85497 4.90318Z" fill="#A7ABC3"/>
<path d="M11.5203 11.7819C11.247 11.7819 11.0203 11.5552 11.0203 11.2819C11.0203 10.3619 10.047 9.60852 8.85368 9.60852C7.66035 9.60852 6.68701 10.3619 6.68701 11.2819C6.68701 11.5552 6.46035 11.7819 6.18701 11.7819C5.91368 11.7819 5.68701 11.5552 5.68701 11.2819C5.68701 9.80852 7.10701 8.60852 8.85368 8.60852C10.6003 8.60852 12.0203 9.80852 12.0203 11.2819C12.0203 11.5552 11.7937 11.7819 11.5203 11.7819Z" fill="#A7ABC3"/>
</svg>
