<svg width="20" height="20" viewBox="0 0 20 20" fill="none" xmlns="http://www.w3.org/2000/svg">
<path fill-rule="evenodd" clip-rule="evenodd" d="M14.9728 3.6955C14.9728 3.35032 14.693 3.0705 14.3478 3.0705C14.0026 3.0705 13.7228 3.35032 13.7228 3.6955V4.16669H6.27716V3.6955C6.27716 3.35032 5.99734 3.0705 5.65216 3.0705C5.30699 3.0705 5.02716 3.35032 5.02716 3.6955V4.16669H3.95832C2.69267 4.16669 1.66666 5.1927 1.66666 6.45835V15.2084C1.66666 16.474 2.69267 17.5 3.95832 17.5H16.0417C17.3073 17.5 18.3333 16.474 18.3333 15.2084V6.45835C18.3333 5.1927 17.3073 4.16669 16.0417 4.16669H14.9728V3.6955ZM5.02716 5.41669H3.95832C3.38303 5.41669 2.91666 5.88306 2.91666 6.45835V7.70835H17.0833V6.45835C17.0833 5.88306 16.617 5.41669 16.0417 5.41669H14.9728V5.86941C14.9728 6.21459 14.693 6.49441 14.3478 6.49441C14.0026 6.49441 13.7228 6.21459 13.7228 5.86941V5.41669H6.27716V5.86941C6.27716 6.21459 5.99734 6.49441 5.65216 6.49441C5.30699 6.49441 5.02716 6.21459 5.02716 5.86941V5.41669ZM2.91666 8.95835H17.0833V15.2084C17.0833 15.7837 16.617 16.25 16.0417 16.25H3.95832C3.38303 16.25 2.91666 15.7837 2.91666 15.2084V8.95835Z" fill="#A7ABC3"/>
</svg>
