<svg width="8" height="11" viewBox="0 0 8 11" fill="none" xmlns="http://www.w3.org/2000/svg">
<path d="M5.45459 8.66699V0.25H6.63525V10H5.55615L5.45459 8.66699ZM0.833496 6.64209V6.50879C0.833496 5.98405 0.896973 5.50798 1.02393 5.08057C1.15511 4.64893 1.33919 4.27865 1.57617 3.96973C1.81738 3.66081 2.10303 3.42383 2.43311 3.25879C2.76742 3.08952 3.13981 3.00488 3.55029 3.00488C3.98193 3.00488 4.35856 3.08105 4.68018 3.2334C5.00602 3.38151 5.28109 3.59945 5.50537 3.88721C5.73389 4.17074 5.91374 4.51351 6.04492 4.91553C6.17611 5.31755 6.26709 5.77246 6.31787 6.28027V6.86426C6.27132 7.36784 6.18034 7.82064 6.04492 8.22266C5.91374 8.62467 5.73389 8.96745 5.50537 9.25098C5.28109 9.53451 5.00602 9.75244 4.68018 9.90479C4.35433 10.0529 3.97347 10.127 3.5376 10.127C3.13558 10.127 2.76742 10.0402 2.43311 9.8667C2.10303 9.6932 1.81738 9.44987 1.57617 9.13672C1.33919 8.82357 1.15511 8.4554 1.02393 8.03223C0.896973 7.60482 0.833496 7.14144 0.833496 6.64209ZM2.01416 6.50879V6.64209C2.01416 6.98486 2.04801 7.30648 2.11572 7.60693C2.18766 7.90739 2.29769 8.17188 2.4458 8.40039C2.59391 8.62891 2.78223 8.80876 3.01074 8.93994C3.23926 9.06689 3.51221 9.13037 3.82959 9.13037C4.21891 9.13037 4.53841 9.04785 4.78809 8.88281C5.04199 8.71777 5.24512 8.49984 5.39746 8.229C5.5498 7.95817 5.66829 7.66406 5.75293 7.34668V5.81689C5.70215 5.58415 5.62809 5.35986 5.53076 5.14404C5.43766 4.92399 5.31494 4.72933 5.1626 4.56006C5.01449 4.38656 4.8304 4.24902 4.61035 4.14746C4.39453 4.0459 4.13851 3.99512 3.84229 3.99512C3.52067 3.99512 3.24349 4.06283 3.01074 4.19824C2.78223 4.32943 2.59391 4.51139 2.4458 4.74414C2.29769 4.97266 2.18766 5.23926 2.11572 5.54395C2.04801 5.8444 2.01416 6.16602 2.01416 6.50879ZM7.82861 1.2085V2.17334H3.78516V1.2085H7.82861Z" fill="#A7ABC3"/>
</svg>
