<svg width="24" height="24" viewBox="0 0 24 24" fill="none" xmlns="http://www.w3.org/2000/svg">
<path d="M13.9034 9.09648L9.09639 13.9035C8.45894 13.266 8.10083 12.4015 8.10083 11.5C8.10083 11.0536 8.18875 10.6116 8.35957 10.1992C8.53039 9.78683 8.78076 9.41212 9.09639 9.09648C9.41202 8.78085 9.78673 8.53048 10.1991 8.35966C10.6115 8.18884 11.0535 8.10092 11.4999 8.10092C12.4014 8.10092 13.2659 8.45904 13.9034 9.09648V9.09648Z" stroke="#A7ABC3" stroke-width="1.5" stroke-linecap="round" stroke-linejoin="round"/>
<path d="M17.029 5.58149C15.3665 4.32749 13.4665 3.64349 11.5 3.64349C8.14647 3.64349 5.02097 5.61949 2.84547 9.03949C1.99047 10.379 1.99047 12.6305 2.84547 13.97C3.59597 15.148 4.46997 16.1645 5.41997 16.9815" stroke="#A7ABC3" stroke-width="1.5" stroke-linecap="round" stroke-linejoin="round"/>
<path d="M8.09912 18.6535C9.18212 19.1095 10.3316 19.3565 11.5001 19.3565C14.8536 19.3565 17.9791 17.3805 20.1546 13.9605C21.0096 12.621 21.0096 10.3695 20.1546 9.03001C19.8411 8.53601 19.4991 8.07051 19.1476 7.63351" stroke="#A7ABC3" stroke-width="1.5" stroke-linecap="round" stroke-linejoin="round"/>
<path d="M14.8345 12.165C14.7058 12.8277 14.382 13.4368 13.9047 13.9142C13.4273 14.3915 12.8182 14.7153 12.1555 14.844" stroke="#A7ABC3" stroke-width="1.5" stroke-linecap="round" stroke-linejoin="round"/>
<path d="M9.0965 13.9035L2 21" stroke="#A7ABC3" stroke-width="1.5" stroke-linecap="round" stroke-linejoin="round"/>
<path d="M20.9999 2L13.9034 9.0965" stroke="#A7ABC3" stroke-width="1.5" stroke-linecap="round" stroke-linejoin="round"/>
</svg>
