<svg width="24" height="24" viewBox="0 0 24 24" fill="none" xmlns="http://www.w3.org/2000/svg">
<path d="M19 3C19.5304 3 20.0391 3.21071 20.4142 3.58579C20.7893 3.96086 21 4.46957 21 5V19C21 19.5304 20.7893 20.0391 20.4142 20.4142C20.0391 20.7893 19.5304 21 19 21H5C4.46957 21 3.96086 20.7893 3.58579 20.4142C3.21071 20.0391 3 19.5304 3 19V5C3 4.46957 3.21071 3.96086 3.58579 3.58579C3.96086 3.21071 4.46957 3 5 3H19Z" stroke="#434657" stroke-width="1.5" stroke-linecap="round" stroke-linejoin="round"/>
<path d="M3 15H7.382C7.761 15 8.107 15.214 8.276 15.553L8.723 16.447C8.893 16.786 9.239 17 9.618 17H14.382C14.5677 17.0001 14.7498 16.9484 14.9077 16.8507C15.0656 16.7531 15.1932 16.6132 15.276 16.447L15.723 15.553C15.893 15.214 16.239 15 16.618 15H21" stroke="#434657" stroke-width="1.5" stroke-linecap="round" stroke-linejoin="round"/>
<path d="M3 9H7.382C7.761 9 8.107 9.214 8.276 9.553L8.723 10.447C8.893 10.786 9.239 11 9.618 11H14.382C14.5677 11.0001 14.7498 10.9484 14.9077 10.8507C15.0656 10.7531 15.1932 10.6132 15.276 10.447L15.723 9.553C15.893 9.214 16.239 9 16.618 9H21" stroke="#434657" stroke-width="1.5" stroke-linecap="round" stroke-linejoin="round"/>
</svg>
