<svg width="24" height="24" viewBox="0 0 24 24" fill="none" xmlns="http://www.w3.org/2000/svg">
<path d="M17.5981 16.4221C17.4684 16.4221 17.3412 16.386 17.2309 16.3178C17.1206 16.2496 17.0314 16.152 16.9734 16.036C16.9154 15.92 16.8908 15.7901 16.9025 15.661C16.9141 15.5318 16.9615 15.4084 17.0393 15.3046C17.7513 14.3495 18.1359 13.19 18.1359 11.9988C18.1359 10.8075 17.7513 9.64804 17.0393 8.69291C16.9282 8.54473 16.8805 8.35846 16.9067 8.17509C16.9329 7.99172 17.0308 7.82627 17.179 7.71513C17.3272 7.60399 17.5135 7.55627 17.6969 7.58246C17.8802 7.60866 18.0457 7.70662 18.1568 7.85481C19.982 10.2946 19.982 13.7029 18.1568 16.1427C18.0171 16.329 17.8123 16.4221 17.5981 16.4221Z" fill="#0E3EDA"/>
<path d="M19.3004 18.7502C19.1706 18.7502 19.0435 18.714 18.9332 18.6459C18.8228 18.5777 18.7337 18.4801 18.6757 18.3641C18.6177 18.2481 18.5931 18.1182 18.6048 17.989C18.6164 17.8598 18.6638 17.7365 18.7416 17.6327C21.228 14.3175 21.228 9.68002 18.7416 6.36485C18.6305 6.21666 18.5828 6.0304 18.609 5.84703C18.6351 5.66366 18.7331 5.4982 18.8813 5.38706C19.0295 5.27592 19.2158 5.2282 19.3991 5.2544C19.5825 5.28059 19.7479 5.37856 19.8591 5.52675C22.718 9.33546 22.718 14.6621 19.8591 18.4708C19.7287 18.657 19.5145 18.7502 19.3004 18.7502Z" fill="#0E3EDA"/>
<path d="M13.8918 4.34597C12.8488 3.76861 11.5171 3.91761 10.1575 4.76502L7.43836 6.46917C7.25212 6.58091 7.03794 6.6461 6.82375 6.6461H5.4921C3.23853 6.6461 2 7.88463 2 10.1382V13.8631C2 16.1167 3.23853 17.3552 5.4921 17.3552H6.82375C7.03794 17.3552 7.25212 17.4204 7.43836 17.5321L10.1575 19.2363C10.977 19.7485 11.7779 19.9999 12.5229 19.9999C13.0011 20.0041 13.4725 19.8855 13.8918 19.6553C14.9254 19.078 15.5028 17.8767 15.5028 16.275V7.72632C15.5028 6.12461 14.9254 4.92333 13.8918 4.34597Z" fill="#0E3EDA"/>
</svg>
